<svg width="67" height="64" viewBox="0 0 67 64" fill="none" xmlns="http://www.w3.org/2000/svg">
<path d="M8.45699 25.6411C8.51897 25.6411 8.58278 25.6356 8.64659 25.621L11.3173 25.0723C11.8241 24.9684 12.1486 24.4726 12.0447 23.9677C11.9408 23.4609 11.4468 23.1364 10.94 23.2403L8.26922 23.789C7.76242 23.8929 7.43791 24.3869 7.54183 24.8937C7.63298 25.3367 8.02311 25.6411 8.45699 25.6411Z" fill="#35862E"/>
<path d="M14.5788 28.9973C14.6408 28.9973 14.7046 28.9918 14.7684 28.9772L17.4392 28.4285C17.9441 28.3246 18.2705 27.8306 18.1665 27.3238C18.0626 26.8189 17.5668 26.4907 17.0618 26.5965L14.391 27.1452C13.8842 27.2491 13.5597 27.7431 13.6637 28.2499C13.7548 28.6928 14.1449 28.9973 14.5788 28.9973Z" fill="#35862E"/>
<path d="M65.425 31.1409V29.2997C65.425 28.206 65.0294 27.1469 64.3111 26.3211L61.3469 22.9122C60.924 22.4273 60.6924 21.8057 60.6924 21.1604V17.1354C61.573 17.0953 62.2766 16.368 62.2766 15.4784V8.90677C62.2766 7.99167 61.531 7.24609 60.6159 7.24609H49.9967C49.0815 7.24609 48.3359 7.99167 48.3359 8.90677V15.4802C48.3359 16.326 48.974 17.026 49.7925 17.1263V21.1604C49.7925 21.8039 49.5592 22.4255 49.138 22.9122L46.3087 26.1661C46.2996 26.1497 46.2905 26.1333 46.2795 26.1187L45.0581 24.2703C45.6232 24.0005 46.017 23.4245 46.017 22.7555V19.2755C46.017 18.3495 45.2641 17.5966 44.338 17.5966H31.5476C31.0298 17.5966 30.6124 18.0159 30.6124 18.5318C30.6124 19.0477 31.0317 19.4669 31.5476 19.4669H44.1447V22.5622H23.3767V19.4669H27.2252C27.7411 19.4669 28.1604 19.0477 28.1604 18.5318C28.1604 18.0141 27.7411 17.5966 27.2252 17.5966H23.1853C22.2592 17.5966 21.5063 18.3495 21.5063 19.2755V22.7555C21.5063 23.4227 21.8983 24.0005 22.4652 24.2703L21.2438 26.1187C21.2237 26.1479 21.2073 26.1789 21.1891 26.2081C20.9722 24.8354 20.7024 23.6596 20.4417 22.7172C19.6231 19.7531 17.1292 17.6221 14.0884 17.2904C13.5834 17.2357 13.1058 17.2193 12.6774 17.2266L14.0702 14.6617C14.3163 14.2078 14.1485 13.6409 13.6946 13.393C13.2407 13.1469 12.6737 13.3146 12.4258 13.7685L11.4195 15.6206L10.7103 12.1734C10.6064 11.6667 10.1123 11.3404 9.60555 11.4461C9.09874 11.55 8.77424 12.044 8.87816 12.5508L9.58732 15.9979L7.93018 14.6927C7.52364 14.3737 6.93663 14.443 6.61577 14.8495C6.29674 15.256 6.36602 15.843 6.77255 16.1638L9.06593 17.9685C8.67033 18.1307 8.23827 18.3349 7.79527 18.5846C5.13364 20.0904 3.68433 23.0326 4.10181 26.0805C4.28229 27.3966 4.61408 29.1211 5.21933 31.1008H4.38438C3.52391 31.1008 2.82568 31.8008 2.82568 32.6594V37.4992C2.82568 38.3596 3.52573 39.0578 4.38438 39.0578H6.62306L7.33952 43.1812C7.42702 43.6898 7.91195 44.0307 8.42057 43.9432C8.9292 43.8539 9.27011 43.3708 9.1826 42.8604L8.52266 39.0578H60.9349L57.6662 57.8831C57.2906 60.0432 55.4275 61.6109 53.2344 61.6109H16.2232C14.03 61.6109 12.1669 60.0432 11.7914 57.8831L9.92458 47.137C9.83707 46.6284 9.35214 46.2857 8.84352 46.375C8.33489 46.4643 7.99398 46.9474 8.08149 47.4578L9.94828 58.2021C10.4788 61.2609 13.1185 63.4812 16.2232 63.4812H53.2344C56.339 63.4812 58.9788 61.2609 59.5093 58.2021L62.8345 39.056H65.0732C65.9336 39.056 66.6319 38.356 66.6319 37.4974V32.6575C66.6319 31.9211 66.1141 31.3013 65.425 31.1409ZM50.2082 9.11823H60.4044V15.2706H50.2082V9.11823ZM46.9322 29.2997C46.9322 28.6562 47.1637 28.0346 47.5866 27.5479L50.5509 24.1391C51.2692 23.3133 51.6648 22.256 51.6648 21.1604V17.1409H58.822V21.1604C58.822 22.2542 59.2176 23.3133 59.9359 24.1391L62.9001 27.5479C63.3231 28.0328 63.5546 28.6544 63.5546 29.2997V31.1008H46.9322V29.2997ZM22.4616 28.2844C22.4616 27.8797 22.5801 27.4859 22.8025 27.1487L24.5964 24.4326H42.9233L44.7172 27.1487C44.9414 27.4859 45.0581 27.8797 45.0581 28.2844V31.099H42.5678V28.9352C42.5678 28.0747 41.8678 27.3766 41.0091 27.3766H26.5142C25.6537 27.3766 24.9555 28.0766 24.9555 28.9352V31.099H22.4634V28.2844H22.4616ZM40.6974 29.2469V31.099H26.8241V29.2469H40.6974ZM8.71773 20.2125C9.99021 19.4924 11.1989 19.2336 11.2062 19.2318C11.2153 19.2299 11.9007 19.0951 12.8578 19.0951C13.175 19.0951 13.5214 19.1096 13.8842 19.1497C16.1575 19.3977 18.0225 20.9945 18.6369 23.2148C19.0489 24.7096 19.6705 27.5279 19.7325 31.099H7.18638C6.45899 28.8458 6.11444 26.9719 5.95766 25.8234C5.64409 23.5411 6.72698 21.3391 8.71773 20.2125ZM64.7614 37.1875H4.69612V32.9711H21.2493C21.3368 32.9984 21.4297 33.013 21.5245 33.013H45.7672C45.8402 33.0312 45.9167 33.0422 45.9951 33.0422H64.488C64.5828 33.0422 64.6739 33.0276 64.7596 33.0021V37.1875H64.7614Z" fill="#35862E"/>
<path d="M18.9504 57.5787C19.0087 57.5787 19.067 57.5732 19.1272 57.5622C19.634 57.4656 19.9676 56.9753 19.871 56.4685L17.4664 43.8703C17.3698 43.3617 16.8794 43.03 16.3726 43.1266C15.864 43.2232 15.5322 43.7136 15.6288 44.2203L18.0334 56.8185C18.1172 57.2669 18.511 57.5787 18.9504 57.5787Z" fill="#35862E"/>
<path d="M29.3182 57.5787C29.3437 57.5787 29.371 57.5769 29.3965 57.5751C29.9106 57.5331 30.2935 57.0792 30.2515 56.5652L29.1997 43.967C29.1577 43.4511 28.7056 43.0683 28.1897 43.112C27.6738 43.154 27.2928 43.6079 27.3347 44.1219L28.3866 56.7201C28.4285 57.2087 28.8369 57.5787 29.3182 57.5787Z" fill="#35862E"/>
<path d="M50.5071 57.5786C50.9465 57.5786 51.3384 57.2669 51.4241 56.8185L53.8287 44.2203C53.9253 43.7135 53.5917 43.2231 53.0849 43.1265C52.5781 43.0299 52.0877 43.3635 51.9911 43.8703L49.5865 56.4666C49.4899 56.9752 49.8235 57.4638 50.3303 57.5604C50.3904 57.5731 50.4488 57.5786 50.5071 57.5786Z" fill="#35862E"/>
<path d="M40.1397 57.5787C40.621 57.5787 41.0311 57.2105 41.0712 56.7201L42.1231 44.1219C42.1669 43.6061 41.784 43.154 41.2681 43.112C40.7522 43.0683 40.3001 43.4511 40.2582 43.967L39.2063 56.5652C39.1643 57.0792 39.5454 57.5313 40.0613 57.5751C40.0868 57.5769 40.1141 57.5787 40.1397 57.5787Z" fill="#35862E"/>
<path d="M42.1121 0C40.0977 0 38.4661 1.63151 38.4661 3.64583C38.4661 5.66016 40.0977 7.29167 42.1121 7.29167C44.1266 7.29167 45.7582 5.66016 45.7582 3.64583C45.7582 1.63151 44.1266 0 42.1121 0ZM42.1121 5.77865C40.9345 5.77865 39.9792 4.82344 39.9792 3.64583C39.9792 2.46823 40.9345 1.51302 42.1121 1.51302C43.2898 1.51302 44.2451 2.46823 44.2451 3.64583C44.2451 4.82344 43.2898 5.77865 42.1121 5.77865Z" fill="#35862E"/>
<path d="M3.64607 41.927C1.63162 41.927 0 43.5585 0 45.5728C0 47.5872 1.63162 49.2187 3.64607 49.2187C5.66052 49.2187 7.29214 47.5872 7.29214 45.5728C7.29214 43.5585 5.66052 41.927 3.64607 41.927ZM3.64607 47.7057C2.46839 47.7057 1.51312 46.7504 1.51312 45.5728C1.51312 44.3952 2.46839 43.44 3.64607 43.44C4.82375 43.44 5.77902 44.3952 5.77902 45.5728C5.77902 46.7504 4.82375 47.7057 3.64607 47.7057Z" fill="#35862E"/>
</svg>
