<svg width="68" height="63" viewBox="0 0 68 63" fill="none" xmlns="http://www.w3.org/2000/svg">
<path d="M34.3723 22.8257C34.0352 19.4417 32.5246 16.2512 30.1149 13.8417C28.0553 11.7823 25.5352 10.4596 22.8842 9.87199V8.0133C23.9674 7.74436 24.7725 6.76436 24.7725 5.5983C24.7725 4.22594 23.6561 3.10962 22.2836 3.10962H17.013C15.6406 3.10962 14.5242 4.22594 14.5242 5.5983C14.5242 6.76251 15.3292 7.74436 16.4125 8.0133V9.87751C13.7689 10.4688 11.2561 11.7896 9.20385 13.8417C8.75435 14.2912 8.32512 14.8125 7.90509 15.2491C7.60296 15.5623 6.96372 16.7136 6.96372 16.7136C6.49579 17.4983 6.11077 18.318 5.80127 19.158C5.48257 19.963 5.48257 20.1399 5.24676 20.9909H5.25228C5.04043 21.9175 4.90042 22.8588 4.88937 23.8038C4.88384 24.1704 4.89858 24.9017 4.91332 25.2683C4.95201 26.217 5.50652 28.503 5.83812 29.5457C6.45342 31.4817 7.6785 33.2262 9.2057 34.7515C11.6172 37.1628 14.8116 38.6751 18.1994 39.0104C18.6821 39.0583 19.1666 39.0823 19.6493 39.0823C22.5047 39.0823 25.3251 38.2551 27.7182 36.6967C28.0572 36.4757 28.153 36.0225 27.9319 35.6836C27.7108 35.3446 27.2576 35.2488 26.9187 35.4699C21.6812 38.8796 14.666 38.1428 10.2392 33.7162C5.04411 28.5215 5.04411 20.0717 10.2392 14.877C15.4342 9.68225 23.8845 9.68225 29.0796 14.877C33.5009 19.298 34.2415 26.3054 30.8426 31.5407C30.6215 31.8796 30.7192 32.3328 31.0581 32.5538C31.3971 32.7749 31.8503 32.6773 32.0714 32.3383C33.886 29.542 34.7039 26.1636 34.3723 22.8257ZM21.4196 9.6233C20.2425 9.4833 19.0524 9.48515 17.8752 9.62515V8.08699H21.4196V9.6233ZM17.013 6.62251C16.4475 6.62251 15.9888 6.16199 15.9888 5.5983C15.9888 5.03278 16.4493 4.57409 17.013 4.57409H22.2836C22.8492 4.57409 23.3079 5.03462 23.3079 5.5983C23.3079 6.16383 22.8474 6.62251 22.2836 6.62251H17.013Z" fill="#35862E"/>
<path d="M19.6585 12.9429C13.3967 12.9429 8.30298 18.0363 8.30298 24.2976C8.30298 30.5589 13.3967 35.6523 19.6585 35.6523C25.9202 35.6523 31.014 30.5589 31.014 24.2976C31.014 18.0363 25.9202 12.9429 19.6585 12.9429ZM19.6585 34.1879C14.2036 34.1879 9.76755 29.7502 9.76755 24.2976C9.76755 18.845 14.2055 14.4073 19.6585 14.4073C25.1133 14.4073 29.5494 18.845 29.5494 24.2976C29.5494 29.7502 25.1133 34.1879 19.6585 34.1879Z" fill="#35862E"/>
<path d="M24.2899 18.6311L20.6644 22.2564C20.3605 22.1072 20.0197 22.0225 19.6604 22.0225C19.2994 22.0225 18.9585 22.1072 18.6564 22.2564L17.0334 20.6335C16.7479 20.348 16.2836 20.348 15.9981 20.6335C15.7125 20.919 15.7125 21.3832 15.9981 21.6688L17.6211 23.2917C17.4719 23.5956 17.3871 23.9364 17.3871 24.2956C17.3871 25.5501 18.4077 26.5706 19.6623 26.5706C20.9168 26.5706 21.9374 25.5501 21.9374 24.2956C21.9374 23.9346 21.8527 23.5938 21.7035 23.2917L25.2221 19.7732L25.3289 19.6664C25.6145 19.3809 25.6145 18.9167 25.3289 18.6311C25.0434 18.3456 24.5755 18.3456 24.2899 18.6311ZM19.6586 25.108C19.2109 25.108 18.848 24.7451 18.848 24.2975C18.848 23.8498 19.2109 23.4869 19.6586 23.4869C20.1062 23.4869 20.4692 23.8498 20.4692 24.2975C20.4692 24.7432 20.1062 25.108 19.6586 25.108Z" fill="#35862E"/>
<path d="M27.4843 23.5735H26.8063C26.4029 23.5735 26.075 23.9014 26.075 24.3048C26.075 24.7082 26.4029 25.0361 26.8063 25.0361H27.4843C27.8877 25.0361 28.2156 24.7082 28.2156 24.3048C28.2175 23.9014 27.8895 23.5735 27.4843 23.5735Z" fill="#35862E"/>
<path d="M12.5106 23.557H11.8327C11.4292 23.557 11.1013 23.8849 11.1013 24.2883C11.1013 24.6917 11.4292 25.0196 11.8327 25.0196H12.5106C12.9141 25.0196 13.242 24.6917 13.242 24.2883C13.242 23.8849 12.9141 23.557 12.5106 23.557Z" fill="#35862E"/>
<path d="M19.6677 17.8814C20.0711 17.8814 20.399 17.5535 20.399 17.1501V16.4722C20.399 16.0687 20.0711 15.7408 19.6677 15.7408C19.2642 15.7408 18.9363 16.0687 18.9363 16.4722V17.1501C18.9363 17.5535 19.2642 17.8814 19.6677 17.8814Z" fill="#35862E"/>
<path d="M19.6493 30.7135C19.2459 30.7135 18.918 31.0414 18.918 31.4448V32.1227C18.918 32.5261 19.2459 32.854 19.6493 32.854C20.0528 32.854 20.3807 32.5261 20.3807 32.1227V31.4448C20.3826 31.0396 20.0546 30.7135 19.6493 30.7135Z" fill="#35862E"/>
<path d="M8.14819 32.2684V40.5192C8.14819 40.6776 8.20346 40.8324 8.31031 40.9374C9.15959 41.7774 10.1452 41.129 10.1452 40.2263V34.5213C9.32723 33.9005 8.65113 33.1324 8.14819 32.2684Z" fill="#35862E"/>
<path d="M63.3135 36.8054L61.6481 29.507C62.1032 29.4001 62.444 28.958 62.444 28.4275V27.3001C62.444 24.7415 60.5631 22.6654 58.2419 22.6654H50.7109V20.267C50.7109 19.007 49.7842 17.9865 48.642 17.9865H32.1781C32.6037 18.7012 32.9979 19.4325 33.3442 20.1878H48.6457C48.6826 20.1878 48.712 20.2209 48.712 20.2615V40.2354C48.712 40.788 49.0676 41.2836 49.5631 41.3609C50.1803 41.4586 50.709 40.9317 50.709 40.2686V39.0436H62.5711C62.5729 39.0436 62.5729 39.0436 62.5729 39.0436C62.5748 39.0436 62.5748 39.0436 62.5766 39.0436C64.0356 39.0454 65.2755 40.0862 65.701 41.5212H62.5692C62.0166 41.5212 61.5689 42.0149 61.5689 42.6246V44.9457C61.5689 46.8541 62.9727 48.4033 64.7044 48.4033H65.6881V53.2204H63.144C62.2855 50.483 59.9312 48.512 57.1678 48.512C54.4027 48.512 52.0483 50.483 51.1917 53.2204H50.7109V44.942C50.7109 44.3894 50.3553 43.8938 49.8598 43.8165C49.2426 43.7188 48.7139 44.2457 48.7139 44.9088V53.2204H27.9465C27.0862 50.483 24.7263 48.512 21.9556 48.512C19.1849 48.512 16.825 50.483 15.9647 53.2204H10.2115C10.1746 53.2204 10.1451 53.1872 10.1451 53.1467V50.7428H14.4394C14.9404 50.7428 15.3899 50.3504 15.4599 49.8033C15.5465 49.1236 15.0712 48.5415 14.4725 48.5415H4.91874C4.41766 48.5415 3.96816 48.9338 3.89816 49.4809C3.81157 50.1607 4.28686 50.7428 4.88558 50.7428H8.14816V53.1412C8.14816 54.4012 9.0748 55.4217 10.217 55.4217H15.3494C15.3494 55.4457 15.3476 55.4715 15.3476 55.4954C15.3476 59.3491 18.2067 62.4825 21.7217 62.4825C25.2366 62.4825 28.0957 59.3473 28.0957 55.4954C28.0957 55.4715 28.0939 55.4457 28.0939 55.4217H50.7717C50.7717 55.4457 50.7698 55.4715 50.7698 55.4954C50.7698 59.3491 53.6289 62.4825 57.1439 62.4825C60.6588 62.4825 63.518 59.3473 63.518 55.4954C63.518 55.4715 63.5162 55.4457 63.5162 55.4217H66.8119C67.3645 55.4217 67.8122 54.928 67.8122 54.3183V42.5491C67.8122 39.6441 65.8576 37.2291 63.3135 36.8054ZM50.7109 24.8686H58.2455C59.4614 24.8686 60.447 25.9554 60.447 27.2965V27.3462H50.7109V24.8686ZM50.7109 36.7041V29.5475H59.5388L61.1618 36.7041H50.7109ZM21.9243 60.307C19.5331 60.307 17.5877 58.1628 17.5877 55.5267C17.5877 52.8907 19.5331 50.7465 21.9243 50.7465C24.3155 50.7465 26.2609 52.8907 26.2609 55.5267C26.259 58.1628 24.3137 60.307 21.9243 60.307ZM57.1476 60.307C54.7564 60.307 52.811 58.1628 52.811 55.5267C52.811 52.8907 54.7564 50.7465 57.1476 50.7465C59.5388 50.7465 61.4842 52.8907 61.4842 55.5267C61.4823 58.1628 59.5369 60.307 57.1476 60.307ZM65.69 46.2001H64.5773C63.9509 46.2001 63.4425 45.6401 63.4425 44.9494V43.7225H65.69V46.2001Z" fill="#35862E"/>
<path d="M21.9243 53.2444C20.7839 53.2444 19.8555 54.2668 19.8555 55.5249C19.8555 56.7831 20.7839 57.8054 21.9243 57.8054C23.0646 57.8054 23.9931 56.7831 23.9931 55.5249C23.9931 54.2668 23.0646 53.2444 21.9243 53.2444Z" fill="#35862E"/>
<path d="M57.1477 53.2444C56.0073 53.2444 55.0789 54.2668 55.0789 55.5249C55.0789 56.7831 56.0073 57.8054 57.1477 57.8054C58.288 57.8054 59.2165 56.7831 59.2165 55.5249C59.2165 54.2668 58.288 53.2444 57.1477 53.2444Z" fill="#35862E"/>
<path d="M45.3906 48.5397H30.5128C30.0117 48.5397 29.5622 48.932 29.4922 49.4791C29.4056 50.1589 29.8809 50.741 30.4796 50.741H45.3574C45.8585 50.741 46.308 50.3486 46.378 49.8015C46.4646 49.1218 45.9893 48.5397 45.3906 48.5397Z" fill="#35862E"/>
<path d="M22.3535 43.8607H9.60527C9.10418 43.8607 8.65468 44.2531 8.58468 44.8002C8.4981 45.4799 8.97339 46.062 9.57211 46.062H22.3203C22.8214 46.062 23.2709 45.6697 23.3409 45.1226C23.4294 44.4428 22.9541 43.8607 22.3535 43.8607Z" fill="#35862E"/>
<path d="M3.75997 38.4172C1.68379 38.4172 0 40.1009 0 42.177C0 44.253 1.68379 45.9367 3.75997 45.9367C5.83616 45.9367 7.51995 44.253 7.51995 42.177C7.51995 40.1009 5.83616 38.4172 3.75997 38.4172ZM3.75997 44.3764C2.54595 44.3764 1.56036 43.3909 1.56036 42.177C1.56036 40.963 2.54595 39.9775 3.75997 39.9775C4.974 39.9775 5.95959 40.963 5.95959 42.177C5.95959 43.3909 4.974 44.3764 3.75997 44.3764Z" fill="#35862E"/>
<path d="M47.032 0.547241C44.9558 0.547241 43.272 2.23092 43.272 4.30698C43.272 6.38303 44.9558 8.06671 47.032 8.06671C49.1081 8.06671 50.7919 6.38303 50.7919 4.30698C50.7938 2.23092 49.11 0.547241 47.032 0.547241ZM47.032 6.50645C45.8179 6.50645 44.8323 5.52092 44.8323 4.30698C44.8323 3.09303 45.8179 2.1075 47.032 2.1075C48.246 2.1075 49.2316 3.09303 49.2316 4.30698C49.2316 5.52092 48.2478 6.50645 47.032 6.50645Z" fill="#35862E"/>
</svg>
