<svg width="60" height="63" viewBox="0 0 60 63" fill="none" xmlns="http://www.w3.org/2000/svg">
<path d="M44.9544 2.93794C47.7269 2.93794 50.5013 2.949 53.2739 2.92873C53.8744 2.92505 54.3332 3.11479 54.7513 3.54031C56.2454 5.05821 57.7523 6.56321 59.2685 8.05715C59.6903 8.47347 59.893 8.92479 59.8911 9.529C59.8764 15.0756 59.8764 20.6222 59.8911 26.1687C59.893 26.7729 59.6903 27.2243 59.2685 27.6406C57.4226 29.4661 55.5932 31.3064 53.7584 33.1411C53.6957 33.2037 53.6331 33.2682 53.5686 33.3272C52.9754 33.8743 52.4394 33.9277 51.9843 33.4837C51.5182 33.0287 51.5643 32.4429 52.1336 31.8443C52.5315 31.4261 52.9459 31.0264 53.3549 30.6193C54.7053 29.2708 56.0685 27.9372 57.3912 26.5629C57.6196 26.3253 57.7855 25.9164 57.7873 25.5848C57.8131 20.4158 57.815 15.2469 57.7947 10.0779C57.7928 9.76663 57.6344 9.38163 57.4189 9.15689C56.1901 7.87663 54.9337 6.624 53.6552 5.39163C53.4434 5.18715 53.086 5.02873 52.7949 5.02873C47.5814 5.00847 42.3679 5.01215 37.1526 5.03426C36.8615 5.0361 36.4968 5.189 36.2905 5.39347C28.4187 13.2408 20.5616 21.1011 12.7045 28.9614C11.9234 29.7424 11.332 29.8714 10.831 29.35C10.3391 28.8361 10.4625 28.2779 11.2178 27.5227C19.1725 19.5703 27.1272 11.6216 35.0709 3.65821C35.5793 3.14794 36.1099 2.91952 36.8339 2.92873C39.542 2.95637 42.2482 2.93794 44.9544 2.93794Z" fill="#35862E"/>
<path d="M2.8284 38.8332C9.90439 45.9106 16.9233 52.9345 23.9974 60.0101C25.5633 58.4332 27.1661 56.8085 28.778 55.1948C35.3787 48.589 41.9831 41.9851 48.5875 35.3811C48.7127 35.2559 48.8417 35.1287 48.9909 35.0348C49.4588 34.7364 49.9323 34.7456 50.321 35.1527C50.7115 35.5598 50.7263 36.0498 50.3671 36.4772C49.9839 36.9359 49.5454 37.3466 49.1217 37.7703C41.0601 45.8332 32.9967 53.8943 24.9351 61.9572C24.1245 62.7677 23.6658 62.7788 22.8608 61.9738C15.5176 54.6367 8.17637 47.2959 0.838784 39.9514C0.0318888 39.1445 0.0448005 38.6895 0.85538 37.8772C3.02 35.7127 5.18277 33.5464 7.34923 31.3837C8.10454 30.6285 8.67929 30.5143 9.17117 31.0098C9.66304 31.5072 9.55253 32.1077 8.81932 32.8427C6.81498 34.8543 4.80511 36.8585 2.8284 38.8332Z" fill="#35862E"/>
<path d="M35.3326 26.6053C35.3326 26.6495 35.34 26.6956 35.3308 26.7379C34.9863 28.3516 35.5629 29.4772 37.0607 30.1956C37.6317 30.4701 38.1144 30.9269 38.6468 31.2879C39.0594 31.5679 39.3469 31.9051 39.2768 32.4393C39.205 32.9827 38.8273 33.2093 38.3484 33.3529C37.2651 33.679 36.1966 34.0529 35.106 34.344C34.5626 34.4895 34.3139 34.7695 34.1739 35.3019C33.8902 36.3722 33.5273 37.4203 33.2067 38.4814C33.0557 38.9787 32.8162 39.3877 32.2561 39.4743C31.7127 39.559 31.3995 39.2182 31.1195 38.8203C30.4434 37.8587 29.747 36.9119 29.0875 35.9393C28.848 35.5856 28.5883 35.4529 28.1572 35.4714C27.0058 35.5211 25.8507 35.5156 24.6975 35.5377C24.1817 35.5469 23.7101 35.4511 23.4448 34.9574C23.1703 34.4453 23.4208 34.0272 23.7285 33.6201C24.4396 32.6843 25.1581 31.7522 25.8213 30.7832C25.9779 30.5548 26.035 30.1569 25.9576 29.8898C25.6186 28.7422 25.217 27.6148 24.832 26.4819C24.6736 26.0158 24.6257 25.5645 25.0033 25.1777C25.3847 24.789 25.8397 24.8406 26.3039 24.999C27.4369 25.3858 28.5625 25.7929 29.7084 26.1356C29.9718 26.2148 30.366 26.1614 30.5908 26.0066C31.5763 25.3287 32.4975 24.5532 33.4978 23.8993C33.8386 23.6764 34.3784 23.5732 34.7726 23.6598C35.2866 23.7722 35.3584 24.3156 35.3548 24.8074C35.3492 25.4061 35.3529 26.0048 35.3529 26.6035C35.3474 26.6053 35.34 26.6053 35.3326 26.6053ZM33.2399 26.6514C32.5822 27.134 32.0001 27.4914 31.5027 27.9408C30.8579 28.5229 30.2113 28.6003 29.4302 28.2577C28.8149 27.9887 28.1572 27.8156 27.3816 27.5522C27.6838 28.4548 27.9159 29.2119 28.194 29.9506C28.393 30.4811 28.3341 30.9251 27.9804 31.3727C27.4811 32.0064 27.0187 32.6714 26.479 33.4082C27.3356 33.4082 28.0633 33.4451 28.7854 33.3972C29.5057 33.3493 30.0087 33.5851 30.3918 34.2095C30.7824 34.8451 31.2503 35.4345 31.7624 36.1548C32.0203 35.3185 32.2746 34.6129 32.4496 33.889C32.6135 33.2074 33.0059 32.8206 33.6691 32.6401C34.4097 32.4393 35.1374 32.1961 35.9792 31.9382C35.2682 31.4298 34.6805 30.9564 34.0394 30.5714C33.4038 30.1901 33.1828 29.6816 33.2288 28.9669C33.2749 28.2485 33.2399 27.5264 33.2399 26.6514Z" fill="#35862E"/>
<path d="M23.8815 9.31532C23.7746 9.47006 23.6199 9.79058 23.3804 10.0301C19.7052 13.7235 16.0189 17.4058 12.3344 21.0919C10.0298 23.3964 7.72334 25.7008 5.41872 28.0053C5.35608 28.0679 5.29713 28.1343 5.23265 28.1969C4.69104 28.7127 4.07023 28.7698 3.6373 28.3443C3.19701 27.9114 3.23015 27.2869 3.75519 26.7508C4.5934 25.8943 5.44635 25.0543 6.29193 24.2087C11.4981 19.0048 16.706 13.8027 21.914 8.60058C22.054 8.46058 22.2014 8.31506 22.3727 8.22111C23.0654 7.84164 23.9036 8.35374 23.8815 9.31532Z" fill="#35862E"/>
<path d="M59.8746 35.0089C59.7475 35.1931 59.5688 35.5524 59.2998 35.8213C56.7263 38.415 54.1398 40.9939 51.5551 43.5766C51.2106 43.921 50.8717 44.271 50.518 44.6045C49.8879 45.2013 49.3629 45.2584 48.8931 44.7942C48.4233 44.3281 48.4602 43.7718 49.0516 43.1695C50.4019 41.7953 51.767 40.4376 53.1284 39.0745C54.6777 37.5234 56.227 35.9724 57.78 34.4268C57.9661 34.2408 58.1669 34.051 58.3953 33.9295C59.0659 33.5758 59.8728 34.0676 59.8746 35.0089Z" fill="#35862E"/>
<path d="M51.6733 8.09223C53.3866 8.10328 54.7443 9.48302 54.7277 11.198C54.7111 12.8928 53.2926 14.2799 51.6032 14.2504C49.9471 14.2209 48.5691 12.8209 48.5691 11.1649C48.5691 9.47749 49.9803 8.08118 51.6733 8.09223ZM51.677 12.1522C52.2425 12.143 52.6939 11.6788 52.6681 11.1299C52.6441 10.5938 52.143 10.1314 51.6088 10.1517C51.0856 10.172 50.6674 10.6178 50.6674 11.1575C50.6674 11.7322 51.1022 12.1614 51.677 12.1522Z" fill="#35862E"/>
<path d="M20.8325 37.7832C21.1383 38.0135 21.5086 38.1645 21.6431 38.4335C21.7794 38.7024 21.7075 39.0929 21.6707 39.4245C21.656 39.5553 21.5031 39.6806 21.3944 39.7893C19.4214 41.7677 17.4502 43.7461 15.468 45.7135C14.9669 46.2108 14.3442 46.2385 13.9316 45.8295C13.5152 45.4169 13.5429 44.7942 13.9997 44.2821C14.0734 44.1992 14.1563 44.1237 14.2337 44.0464C15.4569 42.8232 16.6783 41.6 17.9015 40.3769C18.5758 39.7027 19.239 39.0174 19.9317 38.3616C20.1638 38.1443 20.4714 38.0116 20.8325 37.7832Z" fill="#35862E"/>
<path d="M44.4957 14.1288C44.8126 14.3959 45.2713 14.5948 45.3431 14.8877C45.4297 15.2488 45.3192 15.7977 45.076 16.074C44.2728 16.9896 43.372 17.8185 42.5099 18.6806C41.7564 19.434 41.0122 20.193 40.2495 20.9372C39.6434 21.5285 39.0852 21.5875 38.6136 21.1398C38.1475 20.6996 38.1881 20.099 38.7684 19.5114C40.36 17.9033 41.959 16.3043 43.571 14.7164C43.7994 14.4972 44.1144 14.3683 44.4957 14.1288Z" fill="#35862E"/>
<path d="M43.3518 25.6733C43.0718 25.4375 42.6518 25.2533 42.5689 24.9696C42.4676 24.6251 42.5229 24.0965 42.7365 23.8257C43.2689 23.1515 43.9266 22.5786 44.5364 21.967C44.9435 21.5599 45.3377 21.138 45.7651 20.753C46.2552 20.3146 46.7857 20.3146 47.1984 20.7051C47.6147 21.1012 47.6479 21.7257 47.2002 22.1917C46.2018 23.2288 45.1793 24.2438 44.1477 25.2478C43.9708 25.4209 43.6945 25.4946 43.3518 25.6733Z" fill="#35862E"/>
<path d="M26.0663 42.9576C25.8489 43.3334 25.7347 43.6576 25.5191 43.8824C24.5833 44.855 23.6254 45.8074 22.6601 46.7487C22.1479 47.2479 21.5455 47.2663 21.1292 46.8463C20.7147 46.4282 20.7238 45.8055 21.2084 45.3045C22.1645 44.3208 23.1151 43.3261 24.1357 42.4142C24.4065 42.1711 24.9536 42.0808 25.3257 42.1563C25.6021 42.2134 25.801 42.6519 26.0663 42.9576Z" fill="#35862E"/>
<path d="M12.1777 0.150879C10.2396 0.150879 8.66821 1.72219 8.66821 3.66009C8.66821 5.59798 10.2396 7.1693 12.1777 7.1693C14.1157 7.1693 15.6871 5.59798 15.6871 3.66009C15.6853 1.72219 14.1157 0.150879 12.1777 0.150879ZM12.1777 5.7122C11.0447 5.7122 10.1254 4.79298 10.1254 3.66009C10.1254 2.52719 11.0447 1.60798 12.1777 1.60798C13.3106 1.60798 14.2299 2.52719 14.2299 3.66009C14.2299 4.79298 13.3106 5.7122 12.1777 5.7122Z" fill="#35862E"/>
<path d="M47.5133 55.0271C45.5753 55.0271 44.0039 56.5984 44.0039 58.5363C44.0039 60.4742 45.5753 62.0455 47.5133 62.0455C49.4514 62.0455 51.0228 60.4742 51.0228 58.5363C51.0209 56.5984 49.4495 55.0271 47.5133 55.0271ZM47.5133 60.5884C46.3804 60.5884 45.4611 59.6692 45.4611 58.5363C45.4611 57.4034 46.3804 56.4842 47.5133 56.4842C48.6463 56.4842 49.5656 57.4034 49.5656 58.5363C49.5656 59.6692 48.6463 60.5884 47.5133 60.5884Z" fill="#35862E"/>
</svg>
