<svg width="64" height="69" viewBox="0 0 64 69" fill="none" xmlns="http://www.w3.org/2000/svg">
<path d="M34.2546 50.0098C34.6624 51.7598 35.3101 53.4412 36.1798 55.009C37.0494 56.5786 38.1337 58.0183 39.4003 59.2902L39.422 59.3118L39.4165 62.0902C39.4165 62.4564 39.7125 62.7541 40.0787 62.7559L52.03 62.7775C52.3963 62.7775 52.6939 62.4817 52.6957 62.1154L52.7012 59.2595C54.4296 56.6074 55.3678 53.4971 55.3733 50.2948L55.3823 45.1242C55.3841 43.6592 54.1951 42.4667 52.7318 42.4631C52.1852 42.4613 51.6764 42.6273 51.2542 42.9105C50.8933 41.875 49.9082 41.1299 48.7517 41.1281C48.205 41.1262 47.6962 41.2922 47.274 41.5755C46.9132 40.5399 45.9281 39.7948 44.7715 39.793C44.297 39.793 43.8424 39.9157 43.4436 40.1466L43.4544 35.5461C43.4562 34.0793 42.2709 32.8886 40.804 32.885C39.339 32.8832 38.1464 34.0721 38.1428 35.5353L38.1247 43.6286L36.3078 44.8355C34.6209 45.9577 33.7945 48.036 34.2546 50.0098ZM37.0422 45.9433L38.1211 45.227L38.1121 49.7409C38.1121 50.1072 38.408 50.4049 38.7743 50.4067C39.1405 50.4067 39.4382 50.1108 39.44 49.7445C39.44 49.261 39.4689 35.943 39.4689 35.5425C39.4707 34.81 40.0679 34.2165 40.7986 34.2165C41.5329 34.2183 42.1247 34.8136 42.1247 35.5461L42.1013 47.0925C42.1013 47.4587 42.3972 47.7564 42.7634 47.7582C43.1297 47.7582 43.4274 47.4623 43.4292 47.0961L43.4382 42.4487C43.44 41.7144 44.0354 41.1226 44.7679 41.1226C45.5005 41.1244 46.094 41.7216 46.094 42.4523L46.085 47.0997C46.085 47.4659 46.3809 47.7636 46.7472 47.7654C47.1134 47.7654 47.4111 47.4696 47.413 47.1033L47.4183 43.7837C47.4202 43.0512 48.0174 42.4577 48.7481 42.4577C49.4788 42.4577 50.0742 43.0567 50.0742 43.7873L50.0688 47.1069C50.0688 47.4732 50.3647 47.7708 50.731 47.7726C51.0972 47.7726 51.3949 47.4768 51.3967 47.1105L51.4003 45.1188C51.4021 44.3863 51.9993 43.7927 52.73 43.7927C53.4608 43.7927 54.0562 44.3917 54.0562 45.1224L54.0471 50.293C54.0417 53.2662 53.1613 56.1907 51.4869 58.6912C51.4147 58.7994 51.3751 58.9275 51.3751 59.0592L51.3714 61.4497L40.7481 61.4299L40.7517 59.0394C40.7517 58.8626 40.6831 58.6948 40.5586 58.5703C40.4179 58.4098 38.7616 56.925 37.3435 54.3649C36.5334 52.9036 35.9308 51.3376 35.5501 49.7085C35.2145 48.2724 35.8135 46.7587 37.0422 45.9433Z" fill="#35862E"/>
<path d="M49.4625 58.1354C49.7675 58.3393 50.1788 58.2581 50.3827 57.9532C51.4869 56.3024 52.2104 54.4767 52.5334 52.5246C52.5929 52.1638 52.3475 51.821 51.9867 51.7615C51.624 51.7019 51.283 51.9473 51.2235 52.3081C50.933 54.0725 50.2781 55.7233 49.2803 57.2135C49.0764 57.5184 49.1576 57.9298 49.4625 58.1354Z" fill="#35862E"/>
<path d="M36.1489 36.1974C36.5152 36.1974 36.8129 35.9015 36.8147 35.5352C36.8183 33.3378 38.6099 31.5553 40.8057 31.559C43.0032 31.5626 44.7858 33.3523 44.7822 35.5497C44.7822 35.9159 45.0781 36.2136 45.4444 36.2154C45.8106 36.2154 46.1083 35.9195 46.1101 35.5533C46.1155 32.6252 43.7376 30.2383 40.8093 30.2329C37.881 30.2275 35.494 32.6053 35.4886 35.5334C35.4849 35.8997 35.7827 36.1974 36.1489 36.1974Z" fill="#35862E"/>
<path d="M5.89195 37.2997C5.26949 37.2997 4.76611 37.8048 4.76611 38.4255L4.76792 42.9303C4.76792 43.5528 5.2731 44.0561 5.89376 44.0561C6.51622 44.0561 7.01959 43.551 7.01959 42.9303L7.01779 38.4255C7.01779 37.803 6.51441 37.2997 5.89195 37.2997Z" fill="#35862E"/>
<path d="M10.3968 39.5513C9.77438 39.5513 9.271 40.0564 9.271 40.677L9.2728 45.1819C9.2728 45.8044 9.77799 46.3077 10.3986 46.3077C11.0211 46.3077 11.5245 45.8026 11.5245 45.1819L11.5227 40.677C11.5227 40.0546 11.0193 39.5513 10.3968 39.5513Z" fill="#35862E"/>
<path d="M35.3676 53.0227L27.2954 57.8452L27.2936 54.1882C27.2936 53.5658 26.7884 53.0624 26.1678 53.0624C25.5453 53.0624 25.0419 53.5676 25.0419 54.1882V57.8452L2.51416 44.5415L2.50696 17.8766L8.32744 21.3134L8.32925 30.8067C8.32925 31.2055 8.53853 31.5753 8.88314 31.7774L16.9553 36.5439C17.1285 36.6467 17.327 36.7008 17.5291 36.7008C18.1515 36.7008 18.6549 36.1957 18.6549 35.575L18.6531 27.4114L25.0365 31.182L25.0401 49.6833C25.0401 50.3057 25.5453 50.8091 26.166 50.8091C26.7884 50.8091 27.2918 50.3039 27.2918 49.6833L27.2882 31.1802L47.6977 19.1142C48.2336 18.7967 48.4104 18.1075 48.0947 17.5717C47.7771 17.0359 47.0879 16.8591 46.5521 17.1748L26.1623 29.2299L19.7411 25.4377L42.3013 12.0998L49.8105 16.5343L49.8159 39.4521C50.5899 39.6217 51.3405 39.858 52.0694 40.1485L52.064 15.8921C52.064 15.4933 51.8529 15.1253 51.5101 14.9232L26.7289 0.288184C26.3752 0.078906 25.935 0.078906 25.5832 0.288184L0.809166 14.9341C0.785711 14.9467 0.769477 14.9683 0.746022 14.9828C0.724371 14.999 0.702721 15.0171 0.679266 15.0351C0.581837 15.1127 0.497037 15.2047 0.43028 15.3093C0.43028 15.3165 0.417655 15.3219 0.412242 15.3292V15.3364C0.349094 15.45 0.305779 15.5763 0.285932 15.7044C0.285932 15.7387 0.275116 15.7694 0.273312 15.8037C0.269704 15.8379 0.25708 15.8686 0.25708 15.9011L0.264282 45.182C0.264282 45.5807 0.47539 45.9488 0.818196 46.1508L25.5994 60.7859C25.6283 60.8003 25.659 60.8129 25.6914 60.8238C25.7221 60.8382 25.7546 60.8526 25.7853 60.8635C26.0324 60.9663 26.3121 60.9663 26.5593 60.8635C26.5917 60.8526 26.6242 60.8382 26.6549 60.8238C26.6838 60.8111 26.7162 60.8021 26.7451 60.7859L36.1145 55.065C35.9251 54.2802 35.4488 53.822 35.3676 53.0227ZM16.4014 33.6013L10.5827 30.1645L10.5809 22.6449L16.3996 26.0817L16.4014 33.6013ZM26.1551 2.56499L32.0117 6.02349L23.3297 11.1562C22.7938 11.4738 22.617 12.1647 22.9328 12.7006C23.2503 13.2364 23.9413 13.4132 24.4772 13.0975L34.2273 7.3369L40.0839 10.7954L17.5236 24.1297L11.6671 20.6712L21.0996 15.0946C21.6355 14.7771 21.8123 14.0861 21.4966 13.5503C21.1808 13.0145 20.488 12.8377 19.9521 13.1534L9.45148 19.3632L3.59312 15.9047L26.1551 2.56499Z" fill="#35862E"/>
<path d="M60.2519 32.7172C58.269 32.7172 56.6597 34.3246 56.6597 36.3092C56.6597 38.2919 58.2672 39.9012 60.2519 39.9012C62.2348 39.9012 63.8442 38.2937 63.8442 36.3092C63.8442 34.3264 62.2348 32.7172 60.2519 32.7172ZM60.2519 38.411C59.0918 38.411 58.1518 37.471 58.1518 36.311C58.1518 35.1509 59.0918 34.211 60.2519 34.211C61.412 34.211 62.3521 35.1509 62.3521 36.311C62.3521 37.4692 61.412 38.411 60.2519 38.411Z" fill="#35862E"/>
<path d="M29.5273 61.8159C27.5445 61.8159 25.9351 63.4234 25.9351 65.4079C25.9351 67.3907 27.5427 68.9999 29.5273 68.9999C31.512 68.9999 33.1196 67.3925 33.1196 65.4079C33.1196 63.4252 31.5102 61.8159 29.5273 61.8159ZM29.5273 67.5097C28.3672 67.5097 27.4272 66.5698 27.4272 65.4097C27.4272 64.2497 28.3672 63.3097 29.5273 63.3097C30.6875 63.3097 31.6275 64.2497 31.6275 65.4097C31.6275 66.568 30.6875 67.5097 29.5273 67.5097Z" fill="#35862E"/>
</svg>
