<svg width="27" height="25" viewBox="0 0 63 75" fill="none" xmlns="http://www.w3.org/2000/svg">
<path d="M33.7023 27.516C33.2395 27.9755 32.4918 27.9725 32.0327 27.5096C29.488 24.945 26.0972 23.5327 22.4853 23.5327C15.0688 23.5327 9.03477 29.5666 9.03477 36.9831C9.03477 44.3998 15.0686 50.4336 22.4853 50.4336C26.0972 50.4336 29.488 49.0212 32.0328 46.4564C32.492 45.9936 33.2395 45.9906 33.7025 46.45C34.1653 46.9093 34.1684 47.6568 33.7089 48.1197C30.7172 51.1346 26.7312 52.795 22.4851 52.795C13.7665 52.795 6.67323 45.7018 6.67323 36.9831C6.67323 28.2646 13.7665 21.1714 22.4851 21.1714C26.7314 21.1714 30.7172 22.8318 33.7087 25.8464C34.1682 26.309 34.1652 27.0568 33.7023 27.516ZM58.6467 69.2563C58.6467 72.4232 56.0699 75 52.9026 75C51.082 75 49.4059 74.1278 48.3393 72.7361C47.273 74.1278 45.5969 75 43.7761 75C40.609 75 38.0321 72.4234 38.0321 69.2563V46.32C38.0321 45.7718 38.4092 45.2958 38.9427 45.1707C40.4575 44.8149 41.5571 43.43 41.5571 41.8774C41.5571 40.3315 40.4671 38.9515 38.9623 38.5883C38.8093 38.5553 38.6673 38.4925 38.5426 38.4065C38.5421 38.406 38.5416 38.4057 38.5411 38.4053C38.5413 38.4053 38.5409 38.4053 38.5411 38.4053C38.4672 38.3541 38.3994 38.2948 38.3396 38.2289C38.152 38.0228 38.0361 37.7499 38.0322 37.4503C38.0322 37.4503 38.0322 37.4485 38.0321 37.4476V37.4387C38.0321 37.437 38.0321 37.435 38.0321 37.434V29.5812C38.0321 26.5528 39.9279 23.9588 42.5954 22.9237V17.224C42.5954 16.5719 43.124 16.0433 43.7761 16.0433H52.9025C53.5545 16.0433 54.0831 16.5719 54.0831 17.224V22.9235C56.7503 23.9586 58.6465 26.5528 58.6465 29.5812V37.434C58.6465 37.982 58.2695 38.458 57.736 38.5833C56.2214 38.9392 55.1218 40.3245 55.1218 41.8769C55.1218 43.4293 56.2214 44.8144 57.736 45.1703C58.2695 45.2956 58.6465 45.7716 58.6465 46.3196V49.1664C58.6465 49.8185 58.1179 50.3471 57.4658 50.3471C56.8137 50.3471 56.2851 49.8185 56.2851 49.1664V47.1711C54.1967 46.2845 52.7604 44.1904 52.7604 41.8769C52.7604 39.5632 54.1968 37.4687 56.2851 36.5822V29.5809C56.2851 26.9471 54.1423 24.8045 51.5086 24.8045H45.1703C42.5364 24.8045 40.3936 26.9471 40.3936 29.5809V36.2529H49.5286C50.1806 36.2529 50.7093 36.7816 50.7093 37.4336C50.7093 38.0857 50.1806 38.6143 49.5286 38.6143H42.8847C43.5383 39.554 43.9186 40.6862 43.9186 41.8767C43.9186 44.1907 42.4821 46.2851 40.3936 47.1712V53.0001H52.2323C52.8844 53.0001 53.413 53.5287 53.413 54.1808C53.413 54.8329 52.8844 55.3615 52.2323 55.3615H40.3936V69.2561C40.3936 71.1213 41.911 72.6385 43.7763 72.6385C45.2838 72.6385 46.6232 71.6217 47.0334 70.1659C47.1768 69.6569 47.6412 69.3054 48.1698 69.3054H48.5091C49.0379 69.3054 49.5023 69.6569 49.6455 70.1659C50.0558 71.6217 51.3951 72.6385 52.9028 72.6385C54.7681 72.6385 56.2855 71.1213 56.2855 69.2561C56.2855 68.6041 56.8141 68.0754 57.4662 68.0754C58.1182 68.0754 58.6467 68.6042 58.6467 69.2563ZM44.957 22.4467C45.0278 22.4445 45.0991 22.4435 45.1705 22.4435H51.5088C51.5801 22.4435 51.6513 22.4445 51.7221 22.4467V18.4049H49.5203V19.2543C49.5203 19.9064 48.9917 20.435 48.3396 20.435C47.6875 20.435 47.1589 19.9064 47.1589 19.2543V18.4049H44.957V22.4467ZM34.9608 66.8091C34.9608 67.4612 34.4322 67.9898 33.7801 67.9898H1.18069C0.52861 67.9898 0 67.4612 0 66.8091V7.15698C0 6.5049 0.52861 5.97629 1.18069 5.97629H8.52168V1.18069C8.52168 0.52861 9.05029 0 9.70237 0H18.2242C18.8763 0 19.4049 0.52861 19.4049 1.18069V5.97629H43.7893C44.4413 5.97629 44.9699 6.5049 44.9699 7.15698V11.681C44.9699 12.3331 44.4413 12.8617 43.7893 12.8617C43.1372 12.8617 42.6086 12.3331 42.6086 11.681V8.33766H2.36137V65.6284H33.7801C34.4322 65.6284 34.9608 66.157 34.9608 66.8091ZM10.8831 5.97629H17.0435V2.36137H15.144V3.07636C15.144 3.72844 14.6154 4.25705 13.9633 4.25705C13.3112 4.25705 12.7826 3.72844 12.7826 3.07636V2.36137H10.8831V5.97629ZM22.6464 35.8024H22.3239C21.6718 35.8024 21.1432 36.331 21.1432 36.9831C21.1432 37.6352 21.6718 38.1638 22.3239 38.1638H22.6464C23.2985 38.1638 23.8271 37.6352 23.8271 36.9831C23.8271 36.331 23.2985 35.8024 22.6464 35.8024ZM52.3791 35.0087C53.0312 35.0087 53.5598 34.4801 53.5598 33.828V30.6582C53.5598 28.681 51.9513 27.0726 49.9744 27.0726C49.3223 27.0726 48.7937 27.6012 48.7937 28.2533C48.7937 28.9054 49.3223 29.434 49.9744 29.434C50.6492 29.434 51.1984 29.9832 51.1984 30.6582V33.828C51.1984 34.4801 51.727 35.0087 52.3791 35.0087ZM62.3118 62.785C61.3761 64.6135 59.5192 65.7493 57.466 65.7493C55.4993 65.7493 53.6795 64.6827 52.7169 62.9656C50.9231 59.7649 53.056 57.2875 54.9375 55.1017C55.4786 54.4731 56.038 53.8232 56.5019 53.1671C56.7233 52.8544 57.0826 52.6682 57.466 52.6682C57.8494 52.6682 58.2086 52.8544 58.4301 53.1671C58.8938 53.8229 59.4526 54.4716 59.993 55.099C61.8315 57.2336 63.9151 59.6528 62.3118 62.785ZM58.2037 56.6403C57.9592 56.3563 57.7111 56.0684 57.4662 55.7737C57.2207 56.0691 56.9721 56.3578 56.727 56.6424C54.8521 58.8204 53.8371 60.1343 54.7767 61.8111C55.3219 62.7838 56.3524 63.3881 57.4658 63.3881C58.6285 63.3881 59.6798 62.7448 60.2097 61.7092C61.0487 60.0704 60.0468 58.7799 58.2037 56.6403ZM31.9362 31.6103C32.8411 33.196 33.3587 35.0303 33.3587 36.9831C33.3587 38.936 32.8413 40.7701 31.9364 42.3559C31.9256 42.3775 31.9139 42.3989 31.9018 42.42C31.8888 42.4426 31.8753 42.4645 31.861 42.4858C29.969 45.6969 26.4745 47.8567 22.4853 47.8567C18.4964 47.8567 15.0023 45.6974 13.1102 42.4868C13.0958 42.4652 13.082 42.4429 13.0687 42.42C13.0562 42.3984 13.0445 42.3768 13.0336 42.3547C12.129 40.7694 11.6117 38.9356 11.6117 36.9831C11.6117 35.0306 12.129 33.197 13.0336 31.6113C13.0445 31.5894 13.0562 31.5676 13.0687 31.5462C13.0818 31.5233 13.0957 31.501 13.1102 31.4794C15.0023 28.2688 18.4966 26.1095 22.4853 26.1095C26.4748 26.1095 29.9692 28.2688 31.8611 31.4804C31.8753 31.5017 31.8888 31.5238 31.9018 31.5462C31.9139 31.5673 31.9254 31.5887 31.9362 31.6103ZM30.9972 36.9831C30.9972 35.8547 30.7764 34.7769 30.376 33.7905L26.4335 36.0667C25.8692 36.3926 25.1467 36.1995 24.8207 35.6344C24.4947 35.0697 24.6881 34.3477 25.2528 34.0214L29.1921 31.7471C27.8623 30.0474 25.9019 28.864 23.6658 28.5525V33.1057C23.6658 33.7578 23.1372 34.2864 22.4851 34.2864C21.8331 34.2864 21.3045 33.7578 21.3045 33.1057V28.5525C19.0684 28.8642 17.108 30.0476 15.778 31.7473L19.7173 34.0214C20.282 34.3477 20.4754 35.0697 20.1494 35.6344C19.8232 36.1993 19.1011 36.3921 18.5366 36.0667L14.5941 33.7905C14.1935 34.7769 13.9729 35.8545 13.9729 36.9831C13.9729 38.1117 14.1937 39.1893 14.5941 40.1757L18.5366 37.8995C19.1013 37.574 19.8235 37.7669 20.1494 38.3318C20.4754 38.8965 20.282 39.6186 19.7173 39.9448L15.778 42.2189C17.1078 43.9188 19.0684 45.1022 21.3045 45.4137V40.8605C21.3045 40.2084 21.8331 39.6798 22.4851 39.6798C23.1372 39.6798 23.6658 40.2084 23.6658 40.8605V45.4137C25.9019 45.102 27.8623 43.9188 29.1921 42.2191L25.2528 39.9448C24.6881 39.6186 24.4947 38.8965 24.8207 38.3318C25.1467 37.7668 25.8688 37.574 26.4335 37.8995L30.376 40.1757C30.7766 39.1893 30.9972 38.1115 30.9972 36.9831Z" fill="#35862E"/>
</svg>
