<svg width="27" height="25" viewBox="0 0 70 75" fill="none" xmlns="http://www.w3.org/2000/svg">
<path d="M35.9939 41.5052L37.3496 47.0351C37.51 47.6959 38.1805 48.1041 38.8414 47.9389C39.5023 47.7786 39.9104 47.108 39.7452 46.4471L38.9532 43.2157L42.1263 45.0476C42.7191 45.3878 43.4723 45.1837 43.8124 44.5957C44.1526 44.0029 43.9485 43.2497 43.3605 42.9096L40.1874 41.0776L43.3848 40.1447C44.0408 39.9551 44.415 39.27 44.2255 38.614C44.0359 37.958 43.3508 37.5838 42.6948 37.7733L37.2281 39.3672L32.1891 36.4565L37.2281 33.5458L42.6948 35.1396C43.3508 35.3291 44.0359 34.955 44.2255 34.299C44.415 33.643 44.0408 32.9578 43.3848 32.7683L40.1874 31.8353L43.3605 30.0034C43.9533 29.6632 44.1526 28.9052 43.8124 28.3172C43.4723 27.7244 42.7191 27.5252 42.1263 27.8653L38.9532 29.6973L39.7452 26.4658C39.9056 25.805 39.5023 25.1344 38.8414 24.9741C38.1805 24.8137 37.51 25.217 37.3496 25.8779L35.9939 31.4077L30.9548 34.3184V28.5019L35.0658 24.5659C35.5565 24.0945 35.576 23.3122 35.1046 22.8214C34.6333 22.3306 33.8509 22.3112 33.3602 22.7825L30.9548 25.0858V21.4219C30.9548 20.7416 30.4009 20.1877 29.7206 20.1877C29.0403 20.1877 28.4863 20.7416 28.4863 21.4219V25.0858L26.081 22.7825C25.5902 22.3112 24.8079 22.3258 24.3365 22.8214C23.8652 23.3122 23.8797 24.0945 24.3754 24.5659L28.4863 28.5019V34.3233L23.4473 31.4126L22.0915 25.8827C21.9312 25.2219 21.2606 24.8137 20.5997 24.9789C19.9389 25.1393 19.5307 25.8098 19.6959 26.4707L20.488 29.7021L17.3149 27.8702C16.7269 27.53 15.9689 27.7293 15.6287 28.3221C15.2886 28.9149 15.4878 29.6681 16.0806 30.0082L19.2537 31.8402L16.0563 32.7732C15.4003 32.9627 15.0262 33.6478 15.2157 34.3038C15.4052 34.9598 16.0903 35.334 16.7463 35.1445L22.213 33.5506L27.2521 36.4613L22.213 39.372L16.7463 37.7782C16.0903 37.5887 15.4052 37.9629 15.2157 38.6189C15.0262 39.2748 15.4003 39.96 16.0563 40.1495L19.2537 41.0825L16.0806 42.9144C15.4878 43.2546 15.2886 44.0126 15.6287 44.6006C15.9689 45.1934 16.7269 45.3927 17.3149 45.0525L20.488 43.2206L19.6959 46.4568C19.5356 47.1177 19.9389 47.7883 20.5997 47.9486C21.2606 48.109 21.9312 47.7057 22.0915 47.0448L23.4473 41.515L28.4863 38.6043V44.4257L24.3754 48.3617C23.8846 48.833 23.8652 49.6154 24.3365 50.1061C24.8079 50.5969 25.5902 50.6164 26.081 50.145L28.4863 47.8417V51.5056C28.4863 52.1859 29.0403 52.7399 29.7206 52.7399C30.4009 52.7399 30.9548 52.1859 30.9548 51.5056V47.8417L33.3602 50.145C33.8509 50.6164 34.6333 50.6018 35.1046 50.1061C35.576 49.6154 35.5614 48.833 35.0658 48.3617L30.9548 44.4257V38.5994L35.9939 41.5052Z" fill="#35862E"/>
<path d="M58.0744 5.54175C57.9869 3.63206 57.9141 1.97991 56.7478 0.935174C55.8975 0.172271 54.6972 -0.0949886 52.7292 0.0313521C49.5415 0.235441 43.8611 0.969189 38.8512 1.61061C37.1942 1.82442 35.576 2.03337 34.1766 2.20344C34.162 2.20344 34.1474 2.2083 34.1377 2.2083C32.126 2.45612 30.571 2.6262 30.0219 2.6262H29.4145C28.4815 2.6262 24.6524 2.13055 20.5901 1.61061C15.6191 0.974048 9.97747 0.245159 6.77521 0.0362113C5.28828 -0.0609738 3.77219 -0.0220998 2.71287 0.920596C1.7313 1.80012 1.47376 3.14614 1.39601 4.89547C1.34742 6.00338 0.17634 32.0782 0.17634 36.4515C0.17634 36.9569 0.156903 37.9627 0.132607 39.3573C0.00626613 46.3838 -0.256134 61.0053 0.676844 67.4293C1.2308 71.2924 2.79062 72.8862 6.14351 72.8862C6.42049 72.8862 6.7169 72.8765 7.01818 72.8522C9.55471 72.6724 13.4761 72.1962 17.3781 71.7006C17.3878 71.7006 17.4024 71.6957 17.4121 71.6957C18.4812 71.5596 19.5502 71.4236 20.5901 71.2875C21.9653 71.1126 43.6813 71.8026 45.4889 71.686C45.5424 71.6811 56.8159 71.5742 56.8693 71.5645C56.8402 70.2379 56.8693 71.5645 56.9422 68.7316C50.9362 69.3681 21.6931 68.0172 17.0088 69.2612C13.1554 69.752 9.31175 70.2136 6.84324 70.3886C4.19981 70.5781 3.53895 69.9901 3.11619 67.0745C2.21237 60.8498 2.48449 45.8201 2.60111 39.4011C2.62541 37.9967 2.64484 36.9763 2.64484 36.4515C2.64484 32.1268 3.81593 6.11028 3.86452 5.00237C3.89853 4.19574 3.99086 3.08783 4.36016 2.7574C4.57883 2.56303 5.06961 2.46584 5.82766 2.46584C6.06576 2.46584 6.32816 2.47556 6.61486 2.495C9.74422 2.70394 15.3421 3.42311 20.284 4.05968C22.7233 4.37553 24.7156 4.62821 26.2317 4.808C24.0402 5.66809 22.1353 6.5136 20.6095 7.1939C19.1809 7.83046 17.7037 8.48646 17.2907 8.53991C16.6201 8.55449 16.0807 9.09873 16.0807 9.77417C16.0807 10.4545 16.6347 11.0084 17.3149 11.0084C18.0779 11.0084 19.1226 10.5565 21.6105 9.4486C24.6573 8.09286 29.2493 6.05197 34.5459 4.64765C35.8433 4.48729 37.3837 4.28806 39.1719 4.05968C44.1429 3.41825 49.7797 2.69423 52.8944 2.49014C54.3571 2.39781 54.9062 2.59218 55.1054 2.76711C55.499 3.12184 55.5573 4.40468 55.6108 5.6438C55.8489 10.9598 56.1404 17.306 56.3931 23.6716C57.1852 23.3169 58.0355 23.3898 58.8665 23.1663C58.5458 15.2214 58.1473 7.13559 58.0744 5.54175Z" fill="#35862E"/>
<path d="M56.8207 28.7642C56.4271 28.7642 56.0869 29.1481 56.0772 29.6049L55.7954 43.3274C55.7857 43.7987 55.3969 44.1778 54.9256 44.1778C54.9207 44.1778 54.9159 44.1778 54.9061 44.1778C54.4251 44.168 54.0461 43.7696 54.0558 43.2934L54.3376 29.5708C54.3668 28.1714 55.4795 27.0294 56.8207 27.0294H57.8509C58.3319 27.0294 58.7207 27.4182 58.7207 27.8993C58.7207 28.3803 58.3319 28.7691 57.8509 28.7691L56.8207 28.7642ZM61.228 60.3251C61.7091 60.3251 62.0979 59.9363 62.0979 59.4553V48.6726C62.0979 47.1419 60.8539 45.8979 59.3232 45.8979C57.7925 45.8979 56.5486 47.1419 56.5486 48.6726V59.4553C56.5486 59.9363 56.9373 60.3251 57.4184 60.3251C57.8994 60.3251 58.2882 59.9363 58.2882 59.4553V48.6726C58.2882 48.0992 58.7547 47.6376 59.3232 47.6376C59.8966 47.6376 60.3582 48.104 60.3582 48.6726V59.4553C60.3631 59.9363 60.7518 60.3251 61.228 60.3251ZM69.5034 55.3686C69.4839 54.8876 69.0806 54.5183 68.5995 54.5377C68.1185 54.5571 67.7492 54.9605 67.7686 55.4415L67.8609 57.6671C67.8949 58.4446 67.5985 59.2026 67.0349 59.7906C66.4275 60.4223 65.5771 60.7867 64.7024 60.7867H63.682C63.2106 60.7867 62.8267 61.1609 62.8122 61.6322C62.783 62.7839 62.1902 63.5516 61.816 63.5516H56.8304C56.4562 63.5516 55.8634 62.7839 55.8343 61.6322C55.8197 61.1609 55.4358 60.7867 54.9645 60.7867H53.944C53.0693 60.7867 52.2238 60.4223 51.6116 59.7906C51.0479 59.2026 50.7515 58.4494 50.7855 57.6671L52.01 28.1033C52.0829 26.3151 53.4727 24.9108 55.1685 24.9108H63.4779C65.1738 24.9108 66.5586 26.3151 66.6364 28.1033L67.7686 55.4415C67.788 55.9226 68.1914 56.2919 68.6724 56.2725C69.1535 56.253 69.5228 55.8497 69.5034 55.3686L68.3712 28.0305C68.2594 25.3044 66.1116 23.1712 63.4779 23.1712H55.1685C52.5397 23.1712 50.387 25.3044 50.2753 28.0305L49.0507 57.5942C48.9973 58.8527 49.4638 60.0578 50.3579 60.9908C51.2909 61.9627 52.598 62.5215 53.944 62.5215H54.1918C54.5077 64.125 55.567 65.2864 56.8304 65.2864H61.816C63.0794 65.2864 64.1436 64.125 64.4546 62.5215H64.7024C66.0436 62.5215 67.3507 61.9627 68.2885 60.9908C69.1826 60.0578 69.6491 58.8527 69.5957 57.5942L69.5034 55.3686ZM61.228 63.8383C60.747 63.8383 60.3582 64.2271 60.3582 64.7081V72.2254C60.3582 72.7988 59.8917 73.2604 59.3232 73.2604C58.7498 73.2604 58.2882 72.7939 58.2882 72.2254V64.7081C58.2882 64.2271 57.8994 63.8383 57.4184 63.8383C56.9373 63.8383 56.5486 64.2271 56.5486 64.7081V72.2254C56.5486 73.7561 57.7925 75 59.3232 75C60.8539 75 62.0979 73.7561 62.0979 72.2254V64.7081C62.0979 64.2271 61.7091 63.8383 61.228 63.8383Z" fill="#35862E"/>
</svg>
