<svg width="27" height="25" viewBox="0 0 87 75" fill="none" xmlns="http://www.w3.org/2000/svg">
<path d="M19.7387 68.1492C18.2375 68.3016 16.6488 68.3794 15.0115 68.3794C11.9476 68.3794 9.01015 68.1038 6.73411 67.6013C4.31216 67.0663 3.43352 66.4568 3.26168 66.2234V58.4226C3.76098 58.6009 4.3154 58.7662 4.93143 58.9186C7.63869 59.5962 11.2181 59.9691 15.0148 59.9691C15.6243 59.9691 16.2436 59.9594 16.8531 59.9399C17.4853 59.9205 17.9846 59.3887 17.9619 58.7565C17.9425 58.1372 17.4335 57.6477 16.8174 57.6477C16.8045 57.6477 16.7915 57.6477 16.7785 57.6477C16.1949 57.6671 15.5984 57.6768 15.0115 57.6768C11.6753 57.6768 8.48167 57.3721 6.01757 56.8209C4.68502 56.5226 3.81934 56.2146 3.26168 55.952V53.5398C3.76098 53.7181 4.3154 53.8834 4.93143 54.0358C7.63869 54.7134 11.2181 55.0863 15.0148 55.0863C15.6308 55.0863 16.25 55.0766 16.8531 55.0571C17.4853 55.0377 17.9814 54.5059 17.9619 53.8737C17.9425 53.2415 17.4108 52.7389 16.7785 52.7649C16.1982 52.7843 15.6048 52.794 15.0148 52.794C11.6785 52.794 8.48491 52.4893 6.01757 51.9381C4.68826 51.6398 3.81934 51.3318 3.26168 51.0692V48.657C3.76098 48.8353 4.3154 49.0006 4.93143 49.153C7.63869 49.8307 11.2181 50.2035 15.0148 50.2035C15.6308 50.2035 16.25 50.1938 16.8531 50.1743C17.4853 50.1549 17.9814 49.6231 17.9619 48.9909C17.9425 48.3587 17.4108 47.8626 16.7785 47.8821C16.1982 47.9015 15.6048 47.9113 15.0148 47.9113C11.6785 47.9113 8.48491 47.6065 6.01757 47.0553C4.68826 46.757 3.81934 46.449 3.26168 46.1864V33.9081C3.76098 34.0864 4.3154 34.2518 4.93143 34.4041C7.63869 35.0818 11.2181 35.4546 15.0148 35.4546C16.5224 35.4546 18.0073 35.3963 19.4307 35.2795C20.0629 35.2277 20.533 34.6732 20.4811 34.041C20.4293 33.4088 19.8749 32.9419 19.2459 32.9905C17.8841 33.1008 16.4608 33.1591 15.0148 33.1591C11.6785 33.1591 8.48491 32.8544 6.01757 32.3032C3.34274 31.7034 2.54839 31.0582 2.34413 30.8377C2.54839 30.6172 3.34598 29.972 6.01757 29.3754C8.48167 28.8243 11.6753 28.5195 15.0115 28.5195C16.4575 28.5195 17.8809 28.5746 19.2426 28.6881C19.8748 28.74 20.4293 28.2698 20.4779 27.6376C20.5298 27.0054 20.0597 26.451 19.4274 26.3991C18.0041 26.2824 16.5191 26.224 15.0115 26.224C11.2181 26.224 7.63544 26.5969 4.92818 27.2745C1.61139 28.0948 0 29.2587 0 30.828C0 31.525 0.32098 32.1443 0.966184 32.689V44.4486C0.418247 44.5361 0 45.0095 0 45.5833C0 46.2804 0.32098 46.8997 0.966184 47.4444V49.3346C0.418247 49.4189 0 49.8955 0 50.4661C0 51.1632 0.32098 51.7825 0.966184 52.3272V54.2174C0.418247 54.3049 0 54.7815 0 55.3522C0 56.0492 0.32098 56.6685 0.966184 57.2132V66.2979C0.966184 70.5485 13.5752 70.6684 15.0115 70.6684C16.7266 70.6684 18.3932 70.5874 19.9689 70.4285C20.5979 70.3637 21.0583 69.8028 20.9934 69.1705C20.9318 68.5448 20.3709 68.0844 19.7387 68.1492Z" fill="#35862E"/>
<path d="M74.5842 0.367182C74.0946 -0.122394 73.297 -0.122394 72.8074 0.367182L66.9066 6.26803H24.3199L18.4191 0.367182C17.9295 -0.122394 17.1319 -0.122394 16.6423 0.367182C16.1528 0.856758 16.1528 1.65435 16.6423 2.14392L22.5432 8.04478V68.6031C22.5432 69.2969 23.1073 69.8611 23.8012 69.8611H44.1105C44.8043 69.8611 45.3685 69.2969 45.3685 68.6031C45.3685 67.9092 44.8043 67.3451 44.1105 67.3451H25.0559V8.78076H66.1674V41.5013C66.1674 42.1951 66.7315 42.7593 67.4253 42.7593C68.1192 42.7593 68.6833 42.1951 68.6833 41.5013V8.04478L74.5842 2.14392C75.077 1.6511 75.077 0.856758 74.5842 0.367182Z" fill="#35862E"/>
<path d="M68.4043 69.1639C75.1579 69.1639 80.6502 63.6716 80.6502 56.918C80.6502 56.2242 80.086 55.66 79.3922 55.66C78.6984 55.66 78.1342 56.2242 78.1342 56.918C78.1342 62.2839 73.7669 66.6512 68.4011 66.6512C67.7072 66.6512 67.1431 67.2153 67.1431 67.9092C67.1431 68.603 67.7105 69.1639 68.4043 69.1639Z" fill="#35862E"/>
<path d="M85.666 46.0177H47.1257C46.4318 46.0177 45.8677 46.5818 45.8677 47.2757V57.4498C45.8677 67.1278 53.7398 75 63.4179 75H69.3738C79.0486 75 86.924 67.1278 86.924 57.4498V47.2757C86.924 46.5786 86.3598 46.0177 85.666 46.0177ZM84.408 57.4498C84.408 65.7402 77.6642 72.484 69.3738 72.484H63.4179C55.1275 72.484 48.3836 65.7402 48.3836 57.4498V48.5304H84.4113V57.4498H84.408Z" fill="#35862E"/>
<path d="M54.1224 25.663L54.2975 20.0864C54.3105 19.6682 53.983 19.318 53.5647 19.305C53.1465 19.2921 52.7963 19.6195 52.7834 20.0378L52.6342 24.7941C52.1576 24.7325 51.6713 24.7747 51.2109 24.9173L51.2628 23.2314C51.3017 22.0253 50.6727 20.8937 49.6611 20.2745L49.901 12.7071C49.914 12.2889 49.5865 11.9387 49.1683 11.9257C48.75 11.9128 48.3999 12.2402 48.3869 12.6585L48.147 20.2258C47.0965 20.7802 46.3994 21.8696 46.3605 23.0757L46.3086 24.7617C45.8612 24.5931 45.3781 24.5185 44.8983 24.551L45.0474 19.7979C45.0604 19.3796 44.7329 19.0294 44.3147 19.0165C43.8964 19.0035 43.5463 19.331 43.5333 19.7492L43.3582 25.3258C42.82 26.5579 43.0632 28.0007 43.9904 28.9604L44.3471 29.33C44.1169 29.3721 43.8867 29.4402 43.6662 29.5343C43.5009 29.6056 43.3647 29.732 43.2836 29.8941C42.6611 31.1424 42.8816 32.663 43.8348 33.6778L45.5013 35.4546C46.0136 36.0025 46.7982 36.3494 47.6444 36.4953C47.6347 36.5407 47.6282 36.5861 47.6282 36.6315C47.5861 37.7987 47.6347 38.9756 47.7676 40.1299C47.8033 40.4476 48.0367 40.6972 48.3285 40.7751C48.4161 40.7978 48.5101 40.8042 48.6074 40.7945C49.0224 40.7459 49.3207 40.3698 49.272 39.9548C49.1456 38.8751 49.1034 37.776 49.1423 36.6834C49.1423 36.6769 49.1423 36.6704 49.1423 36.6639C49.1423 36.6218 49.1391 36.5829 49.1326 36.544C49.9886 36.4532 50.7926 36.1549 51.3373 35.6394L53.1141 33.9696C54.1289 33.0164 54.4434 31.512 53.9019 30.2281C53.8306 30.0627 53.7042 29.9266 53.542 29.8455C53.3281 29.7385 53.1011 29.6575 52.8741 29.5991L53.2535 29.2522C54.2488 28.3508 54.5828 26.9275 54.1224 25.663ZM49.6416 25.9257L48.7014 26.8075L47.8195 25.8673C47.8065 25.7668 47.8001 25.663 47.8033 25.5593L47.8811 23.1244C47.9006 22.4597 48.2896 21.8632 48.87 21.5616C49.4309 21.8988 49.7778 22.5213 49.7551 23.1827L49.6773 25.6176C49.6741 25.7214 49.6611 25.8252 49.6416 25.9257ZM52.2419 28.1304L49.8265 30.3383C49.807 30.3578 49.7843 30.374 49.7649 30.3934L48.5523 31.5347L47.4142 30.3221C47.411 30.3189 47.411 30.3189 47.4078 30.3156C47.3883 30.2962 47.3721 30.2767 47.3526 30.2605L45.0798 27.9034C44.6259 27.4301 44.4768 26.7395 44.6778 26.1072C45.3133 25.9516 45.9974 26.1429 46.4545 26.626L48.1113 28.393C48.2475 28.5389 48.4388 28.6264 48.6398 28.6329C48.8408 28.6394 49.0354 28.5648 49.1813 28.4287L50.8251 26.8854C50.8283 26.8821 50.9483 26.7719 50.9483 26.7719C51.4314 26.318 52.1284 26.1656 52.7542 26.3634C52.9163 27.0053 52.7282 27.6894 52.2419 28.1304ZM52.605 31.0905C52.7607 31.726 52.5694 32.4101 52.083 32.864L50.3063 34.5338C49.5055 35.286 47.3591 35.2179 46.6069 34.4171L44.9404 32.6403C44.4865 32.1572 44.3374 31.4601 44.5319 30.8376C45.1512 30.6852 45.8158 30.8636 46.2697 31.3207L46.3086 31.3596L47.9654 33.1234C48.1016 33.2693 48.2929 33.3568 48.4939 33.3633C48.6949 33.3698 48.8895 33.2952 49.0354 33.1591L50.8413 31.4666C51.3244 31.0387 51.9987 30.9025 52.605 31.0905Z" fill="#35862E"/>
<path d="M32.5485 31.58L36.7958 37.7111C36.2835 38.781 36.3678 40.0714 37.0584 41.0635L38.0181 42.448C37.5577 42.5776 37.1265 42.8078 36.7569 43.1191L34.0496 39.209C33.8129 38.8653 33.3396 38.781 32.9959 39.0177C32.6522 39.2544 32.5679 39.7277 32.8046 40.0714L35.982 44.6592C36.2803 45.9528 37.3307 46.9611 38.6406 47.2011L39.1205 47.2886C38.981 47.4475 38.8546 47.6193 38.7476 47.8041C38.6568 47.9597 38.6212 48.1445 38.6536 48.3196C38.8805 49.6133 39.8532 50.654 41.1047 50.9815C41.1858 51.0009 41.2636 51.0204 41.3479 51.0334C41.7596 51.1079 42.1519 50.8356 42.2265 50.4238C42.3011 50.0121 42.0287 49.6198 41.617 49.5452C40.9653 49.4252 40.4303 48.9551 40.2163 48.3391C40.5243 47.9695 40.9653 47.7295 41.4484 47.6809C42.2589 47.7036 43.1732 47.3988 44.0195 46.8152C44.7295 46.3224 45.271 45.7161 45.5822 45.0806C45.6308 45.019 45.673 44.951 45.7022 44.8731C45.9291 44.2733 46.4641 43.8291 47.1028 43.7157C47.5146 43.6443 47.7902 43.2488 47.7156 42.8403C47.6443 42.4285 47.252 42.1529 46.837 42.2275C46.6132 42.2664 46.3928 42.328 46.1853 42.4123L46.276 41.9162C46.5127 40.6096 45.9421 39.2803 44.8462 38.5443L41.8666 33.8398C41.6429 33.4864 41.176 33.3827 40.8226 33.6064C40.4692 33.8301 40.3655 34.297 40.5892 34.6504L43.1538 38.7032C42.7193 38.9399 42.34 39.2706 42.0482 39.6661L41.0885 38.2817C40.4011 37.2896 39.2242 36.7546 38.0408 36.8584L33.7935 30.7273C33.5568 30.3836 33.0834 30.2993 32.7398 30.536C32.3961 30.763 32.3118 31.2363 32.5485 31.58ZM37.5091 44.5035C37.9273 44.001 38.592 43.7481 39.2437 43.8648L39.3863 43.8907C39.396 43.894 39.4025 43.894 39.4123 43.894L41.6267 44.296C42.0385 44.3706 42.4308 44.0982 42.5053 43.6865L42.9398 41.3034C43.0598 40.6518 43.5299 40.1168 44.1459 39.9028C44.6485 40.3211 44.9013 40.9857 44.7846 41.6374L44.3502 44.0366C44.2594 44.5327 43.8022 45.1195 43.157 45.5637C42.5118 46.0112 41.8018 46.2316 41.3057 46.1409L38.9065 45.7064C38.258 45.5929 37.7231 45.1228 37.5091 44.5035ZM38.1672 38.3595C38.8189 38.2979 39.4674 38.5897 39.8467 39.1376L41.2344 41.1413C41.2927 41.2256 41.3446 41.3164 41.3868 41.4072L41.1566 42.6749L39.8889 42.4447C39.8175 42.3701 39.7527 42.2923 39.6911 42.208L38.3034 40.2043C37.9241 39.6564 37.8787 38.9463 38.1672 38.3595Z" fill="#35862E"/>
</svg>
