<svg width="27" height="25" viewBox="0 0 84 75" fill="none" xmlns="http://www.w3.org/2000/svg">
<path d="M30.8572 21.5643L23.669 1.09487C23.4386 0.439029 22.8193 0 22.124 0H8.82574C8.13043 0 7.51111 0.439028 7.28071 1.09503L0.0924993 21.5645C-0.083374 22.0656 -0.0055902 22.6207 0.301451 23.054C0.608493 23.4873 1.10647 23.7445 1.63753 23.7445H2.29583V28.9847C2.29583 29.8891 3.02896 30.6223 3.93338 30.6223C4.8378 30.6223 5.57094 29.8891 5.57094 28.9847V23.7445H10.5622V71.7249H7.16215C6.25773 71.7249 5.52459 72.458 5.52459 73.3624C5.52459 74.2669 6.25773 75 7.16215 75H23.7833C24.6877 75 25.4209 74.2669 25.4209 73.3624C25.4209 72.458 24.6877 71.7249 23.7833 71.7249H20.3875V23.7445H29.3122C29.8433 23.7445 30.3412 23.4871 30.6483 23.0538C30.9553 22.6205 31.0333 22.0654 30.8572 21.5643ZM17.1124 71.7249H13.8373V23.7445H17.1124V71.7249ZM3.94812 20.4694L9.98628 3.27511H20.9635L27.0016 20.4694H3.94812Z" fill="#35862E"/>
<path d="M76.9651 36.7341C76.0009 36.7341 75.0827 36.9344 74.249 37.2943C73.3148 30.6638 67.6066 25.5457 60.7227 25.5457H48.0929C41.2089 25.5457 35.5007 30.6638 34.5665 37.2943C33.7328 36.9345 32.8146 36.7341 31.8504 36.7341C28.058 36.7341 24.9727 39.8194 24.9727 43.6118V43.76C24.9727 46.1926 26.29 48.3221 28.2478 49.4762V53.7013C28.2478 60.2116 32.4914 65.7488 38.3573 67.694L36.2858 72.7403C36.0784 73.2453 36.1364 73.8206 36.4405 74.274C36.7444 74.7277 37.2547 74.9996 37.8007 74.9996H45.0059C45.5309 74.9996 46.024 74.748 46.332 74.3228L50.5947 68.4391H58.2205L62.4832 74.3228C62.7912 74.748 63.2844 74.9996 63.8093 74.9996H71.0145C71.5605 74.9996 72.0706 74.7275 72.3747 74.274C72.6788 73.8206 72.7367 73.2453 72.5294 72.7403L70.4579 67.694C76.3241 65.7488 80.5677 60.2117 80.5677 53.7013V49.4762C82.5255 48.3221 83.8428 46.1924 83.8428 43.76V43.6118C83.8428 39.8194 80.7575 36.7341 76.9651 36.7341ZM44.1703 71.7247H40.2431L41.618 68.3752C42.0685 68.4168 42.5245 68.4393 42.9858 68.4393H46.5504L44.1703 71.7247ZM64.6451 71.7247L62.2649 68.4393H65.8297C66.291 68.4393 66.7469 68.4168 67.1975 68.3752L68.5723 71.7247H64.6451ZM80.5677 43.76C80.5677 45.6111 79.0618 47.117 77.2107 47.117C76.3063 47.117 75.5731 47.8501 75.5731 48.7546C75.5731 49.659 76.3063 50.3921 77.2107 50.3921C77.2382 50.3921 77.2652 50.3903 77.2926 50.39V53.7013C77.2926 60.0219 72.1503 65.1642 65.8297 65.1642H42.9858C36.6652 65.1642 31.5229 60.0219 31.5229 53.7013V50.39C31.5503 50.3903 31.5773 50.3921 31.6048 50.3921C32.5092 50.3921 33.2424 49.659 33.2424 48.7546C33.2424 47.8501 32.5092 47.117 31.6048 47.117C29.7537 47.117 28.2478 45.6111 28.2478 43.76V43.6118C28.2478 41.6253 29.8639 40.0092 31.8504 40.0092C33.837 40.0092 35.4531 41.6253 35.4531 43.6118V53.0463C35.4531 57.561 39.1261 61.234 43.6408 61.234H46.6325C47.5369 61.234 48.27 60.5009 48.27 59.5965C48.27 58.6921 47.5369 57.9589 46.6325 57.9589H43.6408C40.932 57.9589 38.7282 55.7551 38.7282 53.0463V43.6118C38.7282 42.2908 38.353 41.0561 37.7047 40.0071V39.2088C37.7047 33.4806 42.3649 28.8206 48.0929 28.8206H60.7227C66.4507 28.8206 71.1108 33.4808 71.1108 39.2088V40.0071C70.4625 41.0561 70.0873 42.2906 70.0873 43.6118V53.0463C70.0873 55.7551 67.8835 57.9589 65.1747 57.9589H59.9345C59.0301 57.9589 58.2969 58.6921 58.2969 59.5965C58.2969 60.5009 59.0301 61.234 59.9345 61.234H65.1747C69.6894 61.234 73.3624 57.561 73.3624 53.0463V43.6118C73.3624 41.6253 74.9785 40.0092 76.9651 40.0092C78.9516 40.0092 80.5677 41.6253 80.5677 43.6118V43.76Z" fill="#35862E"/>
<path d="M63.3406 43.0265C63.036 42.722 62.6135 42.5467 62.1828 42.5467C61.7521 42.5467 61.3296 42.722 61.0251 43.0265C60.7205 43.3311 60.5452 43.7536 60.5452 44.1843C60.5452 44.615 60.7205 45.0375 61.0251 45.342C61.3296 45.6466 61.7521 45.8218 62.1828 45.8218C62.6135 45.8218 63.036 45.6466 63.3406 45.342C63.6451 45.0375 63.8204 44.615 63.8204 44.1843C63.8204 43.7536 63.6451 43.3311 63.3406 43.0265Z" fill="#35862E"/>
<path d="M47.7904 43.0265C47.4858 42.722 47.0633 42.5467 46.6326 42.5467C46.202 42.5467 45.7795 42.722 45.4749 43.0265C45.1703 43.3311 44.9951 43.7536 44.9951 44.1843C44.9951 44.615 45.1703 45.0375 45.4749 45.342C45.7795 45.6466 46.202 45.8218 46.6326 45.8218C47.0633 45.8218 47.4858 45.6466 47.7904 45.342C48.095 45.0375 48.2702 44.615 48.2702 44.1843C48.2702 43.7536 48.095 43.3311 47.7904 43.0265Z" fill="#35862E"/>
<path d="M5.09116 33.8859C4.78658 33.5813 4.36409 33.4061 3.93341 33.4061C3.50273 33.4061 3.08024 33.5813 2.77566 33.8859C2.47107 34.1905 2.29586 34.613 2.29586 35.0436C2.29586 35.4743 2.47107 35.8968 2.77566 36.2014C3.08024 36.506 3.50273 36.6812 3.93341 36.6812C4.36409 36.6812 4.78658 36.506 5.09116 36.2014C5.39575 35.8968 5.57096 35.4743 5.57096 35.0436C5.57096 34.613 5.39575 34.1905 5.09116 33.8859Z" fill="#35862E"/>
<path d="M54.7172 58.4392C54.4126 58.1347 53.9901 57.9594 53.5594 57.9594C53.1287 57.9594 52.7063 58.1347 52.4017 58.4392C52.0971 58.7438 51.9219 59.1663 51.9219 59.597C51.9219 60.0277 52.0971 60.4502 52.4017 60.7547C52.7063 61.0593 53.1287 61.2345 53.5594 61.2345C53.9901 61.2345 54.4126 61.0593 54.7172 60.7547C55.0218 60.4502 55.197 60.0277 55.197 59.597C55.197 59.1663 55.0218 58.7438 54.7172 58.4392Z" fill="#35862E"/>
</svg>
