<svg width="27" height="25" viewBox="0 0 27 25" fill="none" xmlns="http://www.w3.org/2000/svg">
<path d="M24.2366 10.1195C23.7671 9.98112 23.411 9.63476 23.2597 9.1692C23.1084 8.70364 23.193 8.21409 23.4915 7.82617C24.1793 6.9327 24.1954 5.76595 23.5326 4.85378C22.8699 3.94161 21.7553 3.59638 20.693 3.97439C20.2318 4.13852 19.7402 4.06758 19.3441 3.77982C18.9481 3.49205 18.7287 3.04641 18.7422 2.55707C18.7734 1.43 18.1007 0.47657 17.0283 0.128186C15.9561 -0.220199 14.8514 0.155676 14.2141 1.08584C13.9375 1.48971 13.498 1.72127 13.0085 1.72127C12.519 1.72127 12.0796 1.48966 11.8029 1.08578C11.1656 0.155625 10.061 -0.220199 8.98868 0.128135C7.91639 0.47657 7.24361 1.42995 7.27481 2.55707C7.28837 3.04636 7.06901 3.49205 6.67296 3.77977C6.27691 4.06753 5.78528 4.13841 5.32404 3.97433C4.26176 3.59643 3.14714 3.94156 2.48442 4.85373C1.8217 5.7659 1.83786 6.93265 2.52553 7.82612C2.82412 8.21409 2.90862 8.70359 2.75735 9.16915C2.60607 9.63471 2.25001 9.98106 1.78044 10.1194C0.698852 10.4381 0 11.3725 0 12.5C0 13.6275 0.698801 14.5619 1.78039 14.8806C2.24996 15.019 2.60602 15.3653 2.7573 15.8309C2.90857 16.2965 2.82412 16.7859 2.52553 17.1739C1.83781 18.0673 1.82165 19.2341 2.48437 20.1462C3.14714 21.0584 4.26171 21.4035 5.32404 21.0256C5.78528 20.8616 6.27691 20.9325 6.67291 21.2202C7.06896 21.5079 7.28832 21.9536 7.27481 22.443C7.24361 23.57 7.91639 24.5234 8.98868 24.8718C9.25434 24.9582 9.52192 25 9.78392 25C10.5796 25 11.3235 24.6139 11.8029 23.9142C12.0796 23.5104 12.519 23.2788 13.0085 23.2788C13.4981 23.2788 13.9375 23.5104 14.2142 23.9142C14.8514 24.8444 15.9561 25.2202 17.0284 24.8718C18.1007 24.5234 18.7735 23.57 18.7423 22.443C18.7287 21.9536 18.9481 21.5079 19.3442 21.2202C19.7402 20.9325 20.2317 20.8615 20.6931 21.0256C21.7555 21.4036 22.87 21.0584 23.5327 20.1462C24.1954 19.2341 24.1793 18.0673 23.4915 17.1739C23.193 16.7859 23.1085 16.2964 23.2598 15.8308C23.411 15.3653 23.7671 15.0189 24.2367 14.8805C25.3182 14.5619 26.017 13.6276 26.017 12.5C26.017 11.3725 25.3182 10.4381 24.2366 10.1195ZM23.9483 13.9019C23.1626 14.1334 22.5425 14.7366 22.2894 15.5156C22.0363 16.2945 22.1834 17.1471 22.683 17.7962C23.1746 18.4348 23.0178 19.1191 22.7072 19.5466C22.3967 19.9741 21.7942 20.3346 21.035 20.0644C20.2633 19.7899 19.4071 19.9133 18.7444 20.3948C18.0818 20.8762 17.6998 21.6524 17.7224 22.4712C17.7447 23.2767 17.2156 23.7382 16.7131 23.9015C16.2105 24.0649 15.5113 24.0024 15.0559 23.3376C14.593 22.6619 13.8276 22.2585 13.0086 22.2585C12.1895 22.2585 11.4242 22.6619 10.9612 23.3376C10.5058 24.0024 9.80664 24.0649 9.30398 23.9015C8.80148 23.7383 8.2724 23.2768 8.2947 22.4712C8.31737 21.6524 7.93529 20.8762 7.27267 20.3948C6.84268 20.0824 6.33113 19.9207 5.81409 19.9207C5.53436 19.9207 5.253 19.968 4.98206 20.0644C4.22284 20.3346 3.62043 19.974 3.30985 19.5466C2.99927 19.1191 2.84251 18.4348 3.33409 17.7962C3.83365 17.1471 3.98081 16.2946 3.7277 15.5156C3.47459 14.7366 2.85445 14.1334 2.06876 13.902C1.29572 13.6742 1.0203 13.0285 1.0203 12.5001C1.0203 11.9717 1.29572 11.326 2.06871 11.0982C2.8544 10.8668 3.47454 10.2635 3.72765 9.48461C3.98076 8.70567 3.8336 7.85306 3.33404 7.204C2.84251 6.56542 2.99922 5.8811 3.30985 5.45359C3.62038 5.02609 4.22284 4.66567 4.98206 4.93574C5.75367 5.2103 6.61 5.08682 7.27267 4.60535C7.93529 4.12388 8.31737 3.34769 8.2947 2.52897C8.2724 1.72341 8.80148 1.26191 9.30398 1.09864C9.80643 0.935425 10.5057 0.997774 10.9612 1.66258C11.4242 2.33826 12.1895 2.74168 13.0086 2.74168C13.8276 2.74168 14.593 2.33826 15.0559 1.66258C15.5113 0.997774 16.2105 0.935374 16.7131 1.09864C17.2156 1.26191 17.7447 1.7234 17.7224 2.52902C17.6997 3.34774 18.0818 4.12398 18.7444 4.6054C19.4071 5.08682 20.2633 5.21035 21.035 4.93574C21.7943 4.66561 22.3966 5.02614 22.7072 5.45365C23.0178 5.8811 23.1746 6.56542 22.683 7.20405C22.1835 7.85311 22.0363 8.70567 22.2894 9.48461C22.5425 10.2636 23.1627 10.8668 23.9484 11.0983C24.7214 11.326 24.9968 11.9717 24.9968 12.5001C24.9968 13.0286 24.7213 13.6742 23.9483 13.9019Z" fill="#35862E"/>
<path d="M13.0085 4.44422C11.2348 4.44422 9.55226 5.00953 8.14287 6.07907C6.77947 7.1137 5.76313 8.58295 5.28115 10.2161C5.20137 10.4864 5.3558 10.7701 5.62603 10.8498C5.67425 10.864 5.72283 10.8708 5.77065 10.8708C5.99093 10.8708 6.19419 10.727 6.25969 10.5049C6.68053 9.07901 7.56836 7.79584 8.75966 6.8918C9.99013 5.95803 11.4593 5.46447 13.0085 5.46447C13.2903 5.46447 13.5186 5.23606 13.5186 4.95434C13.5186 4.67258 13.2902 4.44422 13.0085 4.44422Z" fill="#35862E"/>
<path d="M19.2124 16.8265C18.9928 16.65 18.6716 16.6849 18.4952 16.9045C17.1511 18.5766 15.1513 19.5356 13.0085 19.5356C12.7267 19.5356 12.4984 19.764 12.4984 20.0457C12.4984 20.3275 12.7268 20.5559 13.0085 20.5559C15.4619 20.5559 17.7516 19.458 19.2904 17.5437C19.4669 17.3242 19.432 17.003 19.2124 16.8265Z" fill="#35862E"/>
<path d="M19.8959 16.19C20.1823 16.19 20.4145 15.9578 20.4145 15.6714C20.4145 15.385 20.1823 15.1528 19.8959 15.1528C19.6095 15.1528 19.3773 15.385 19.3773 15.6714C19.3773 15.9578 19.6095 16.19 19.8959 16.19Z" fill="#35862E"/>
<path d="M12.0132 16.4794L8.55676 13.0229C8.40792 12.8741 8.16858 12.9857 7.99841 13.1559C7.82294 13.3313 7.71659 13.5653 7.86547 13.7142L10.0032 15.8519L6.9934 14.8947C6.51478 14.7458 6.36055 14.7937 6.11065 15.0436C5.93518 15.2191 5.83411 15.4584 5.983 15.6073L9.43422 19.0585C9.57777 19.202 9.82239 19.1063 9.99785 18.9308C10.1681 18.7606 10.2691 18.5107 10.1255 18.3671L7.98784 16.2294L11.2688 17.2238C11.5241 17.2983 11.7208 17.2078 11.8856 17.0431C12.0558 16.8729 12.1568 16.623 12.0132 16.4794Z" fill="#35862E"/>
<path d="M14.9859 13.3471C14.821 13.1823 14.5977 13.1185 14.4595 13.2567L12.9546 14.7616L11.8857 13.6928L12.694 12.8845C12.8429 12.7356 12.7685 12.5229 12.6462 12.4006C12.5026 12.257 12.2899 12.2038 12.1516 12.3421L11.3434 13.1504L10.2797 12.0868L11.7846 10.5819C11.9229 10.4436 11.859 10.2203 11.6942 10.0555C11.5506 9.91191 11.3273 9.82679 11.1784 9.97568L9.28528 11.8688C9.13111 12.023 9.05667 12.2463 9.20022 12.3899L12.6514 15.8411C12.795 15.9847 13.0184 15.9102 13.1725 15.756L15.0656 13.8629C15.2145 13.714 15.1295 13.4907 14.9859 13.3471Z" fill="#35862E"/>
<path d="M18.751 9.77364L16.459 5.376C16.4484 5.35471 16.4271 5.32285 16.4058 5.30156C16.2516 5.14734 15.8847 5.26965 15.6879 5.4664C15.5816 5.57275 15.5231 5.70569 15.5976 5.83333L17.6395 9.5557L15.337 8.15713C15.1722 8.05611 14.9595 8.15184 14.8106 8.30073C14.6564 8.45495 14.5607 8.66761 14.6617 8.8325L16.0602 11.1351L12.3378 9.09303C12.2102 9.01859 12.0773 9.07707 11.9709 9.18343C11.7741 9.38018 11.6518 9.74711 11.806 9.90134C11.8273 9.92263 11.8592 9.94387 11.8805 9.95449L16.2782 12.2464C16.4856 12.3581 16.7621 12.2305 16.9642 12.0284C17.161 11.8316 17.2939 11.5498 17.1716 11.3531L16.0815 9.5716L17.8575 10.6671C18.0543 10.7893 18.3362 10.6564 18.5329 10.4596C18.735 10.2575 18.8573 9.98635 18.751 9.77364Z" fill="#35862E"/>
</svg>
