<svg width="27" height="25" viewBox="0 0 86 75" fill="none" xmlns="http://www.w3.org/2000/svg">
<path d="M7.51042 24.5315C7.59351 24.5315 7.67791 24.523 7.76295 24.5055L11.3237 23.7732C11.9989 23.6343 12.4332 22.9741 12.2943 22.2995C12.1554 21.6244 11.4958 21.1901 10.8206 21.329L7.25983 22.0619C6.58468 22.2009 6.15037 22.8604 6.2893 23.535C6.41069 24.1251 6.93004 24.5315 7.51042 24.5315Z" fill="#35862E"/>
<path d="M15.6741 29.009C15.7572 29.009 15.8423 29.0006 15.9273 28.9831L19.4881 28.2501C20.1626 28.1112 20.5969 27.4516 20.4587 26.7765C20.3197 26.102 19.6595 25.6664 18.985 25.8066L15.4242 26.5395C14.7491 26.6785 14.3147 27.338 14.4537 28.0125C14.5751 28.6027 15.0944 29.009 15.6741 29.009Z" fill="#35862E"/>
<path d="M83.4797 31.8673V29.4108C83.4797 27.9514 82.9525 26.5401 81.9943 25.4384L78.0421 20.8915C77.4786 20.2436 77.1689 19.4146 77.1689 18.5564V13.1895C78.342 13.1357 79.2814 12.1671 79.2814 10.9804V2.21438C79.2814 0.993257 78.2881 0 77.067 0H62.9063C61.6858 0 60.6919 0.993257 60.6919 2.21438V10.9804C60.6919 12.1093 61.5417 13.0415 62.6343 13.1766V18.5564C62.6343 19.4146 62.324 20.2436 61.7611 20.8915L57.988 25.2313C57.975 25.2106 57.9627 25.1885 57.9491 25.1677L56.3203 22.7021C57.0746 22.3418 57.5985 21.5732 57.5985 20.6825V16.0414C57.5985 14.8073 56.5942 13.803 55.3601 13.803H38.3034C37.6139 13.803 37.0556 14.3613 37.0556 15.0508C37.0556 15.7396 37.6139 16.2979 38.3034 16.2979H55.103V20.426H27.4055V16.2979H32.5366C33.2254 16.2979 33.7837 15.7396 33.7837 15.0508C33.7837 14.3613 33.2254 13.803 32.5366 13.803H27.149C25.9143 13.803 24.91 14.8073 24.91 16.0414V20.6825C24.91 21.5732 25.4339 22.3418 26.1889 22.7021L24.5594 25.1677C24.5334 25.2067 24.5114 25.2476 24.4867 25.2872C24.1985 23.4558 23.8369 21.8874 23.4896 20.6318C22.397 16.6783 19.0718 13.8368 15.0177 13.3934C14.3444 13.32 13.7063 13.2993 13.137 13.3077L14.9949 9.88778C15.3241 9.28209 15.0995 8.52513 14.4944 8.19599C13.8887 7.86686 13.1318 8.09083 12.802 8.69652L11.4601 11.1667L10.5142 6.57043C10.3753 5.89527 9.71574 5.46032 9.04059 5.59989C8.36543 5.73882 7.93113 6.39839 8.07005 7.0729L9.01592 11.6698L6.80738 9.93062C6.26596 9.50411 5.48174 9.59694 5.05522 10.139C4.62871 10.6804 4.72219 11.4647 5.26361 11.8912L8.32129 14.299C7.7948 14.5158 7.21702 14.7865 6.62756 15.1202C3.07845 17.1288 1.14517 21.0532 1.70282 25.1164C1.94432 26.8725 2.38706 29.1712 3.19206 31.8121H2.07935C0.932882 31.8121 0 32.745 0 33.8915V40.3464C0 41.4928 0.932882 42.4257 2.07935 42.4257H5.06431L6.01927 47.925C6.13677 48.604 6.78206 49.0585 7.46176 48.941C8.14081 48.8228 8.59524 48.1769 8.47774 47.4978L7.59679 42.4257H77.4935L73.1342 67.5324C72.6337 70.4135 70.148 72.5045 67.2234 72.5045H17.8663C14.9417 72.5045 12.456 70.4135 11.9561 67.5324L9.46775 53.2016C9.35025 52.5225 8.70431 52.0674 8.02526 52.1856C7.34621 52.3038 6.89178 52.9497 7.00928 53.6287L9.49761 67.9589C10.2059 72.0384 13.7258 75 17.8663 75H67.224C71.3645 75 74.8844 72.0384 75.5927 67.9589L80.026 42.4257H83.011C84.1574 42.4257 85.0903 41.4928 85.0903 40.3464V33.8915C85.0903 32.9067 84.4009 32.0809 83.4797 31.8673ZM63.1874 2.49548H76.7859V10.6999H63.1874V2.49548ZM58.8183 29.4108C58.8183 28.5526 59.128 27.7236 59.6915 27.0757L63.6444 22.5288C64.602 21.4271 65.1297 20.0164 65.1297 18.5564V13.1947H74.6735V18.5564C74.6735 20.0158 75.2012 21.4264 76.1588 22.5288L80.1117 27.0757C80.6745 27.7236 80.9849 28.5526 80.9849 29.4108V31.8121H58.8183V29.4108ZM26.1856 28.0585C26.1856 27.5178 26.3434 26.9939 26.6414 26.5433L29.0343 22.9215H53.4742L55.8671 26.5433C56.1651 26.9939 56.3229 27.5178 56.3229 28.0579V31.8115H52.999V28.9252C52.999 27.7787 52.0661 26.8459 50.9197 26.8459H31.5888C30.4424 26.8459 29.5095 27.7787 29.5095 28.9252V31.8115H26.1856V28.0585ZM50.5042 29.3413V31.8121H32.0043V29.3413H50.5042ZM7.85647 17.2924C9.5528 16.3323 11.1641 15.9869 11.1758 15.9843C11.1881 15.9817 12.1028 15.8012 13.3785 15.8012C13.8017 15.8012 14.2639 15.8214 14.7463 15.8739C17.778 16.2057 20.2657 18.3337 21.0843 21.2966C21.6348 23.289 22.4632 27.0478 22.545 31.8121H5.81477C4.84359 28.8071 4.38526 26.3083 4.17557 24.7775C3.7575 21.7322 5.20259 18.7946 7.85647 17.2924ZM82.5948 39.9302H2.49548V34.3076H24.5698C24.686 34.3433 24.81 34.3628 24.9379 34.3628H57.2661C57.3635 34.3868 57.4654 34.4018 57.5706 34.4018H82.2326C82.3585 34.4018 82.4799 34.3823 82.5948 34.3479V39.9302Z" fill="#35862E"/>
<path d="M21.5037 67.126C21.5816 67.126 21.6602 67.1189 21.7394 67.1033C22.4158 66.9741 22.8599 66.321 22.7307 65.6439L19.525 48.8423C19.3952 48.1652 18.7414 47.7212 18.0656 47.851C17.3885 47.9795 16.9445 48.6333 17.0737 49.3097L20.28 66.112C20.3936 66.7099 20.9168 67.126 21.5037 67.126Z" fill="#35862E"/>
<path d="M35.3302 67.1255C35.3646 67.1255 35.3996 67.1242 35.4353 67.1216C36.1215 67.0645 36.6318 66.4607 36.5747 65.7745L35.1718 48.9729C35.1146 48.2861 34.5122 47.7745 33.8247 47.8336C33.1379 47.8907 32.6283 48.4938 32.6854 49.1806L34.0876 65.9823C34.1422 66.6334 34.6881 67.1255 35.3302 67.1255Z" fill="#35862E"/>
<path d="M63.5866 67.126C64.1735 67.126 64.6961 66.7099 64.8103 66.112L68.0167 49.3097C68.1459 48.6333 67.7018 47.9795 67.0247 47.851C66.3483 47.7211 65.6945 48.1658 65.5654 48.8423L62.3597 65.6439C62.2305 66.321 62.6745 66.9741 63.351 67.1033C63.4302 67.1189 63.5087 67.126 63.5866 67.126Z" fill="#35862E"/>
<path d="M49.7602 67.1255C50.4023 67.1255 50.9483 66.6334 51.0028 65.9817L52.405 49.18C52.4628 48.4932 51.9525 47.8901 51.2657 47.833C50.5789 47.7739 49.9758 48.2861 49.9186 48.9729L48.5157 65.7746C48.4586 66.4608 48.9689 67.0639 49.6551 67.1216C49.6908 67.1242 49.7258 67.1255 49.7602 67.1255Z" fill="#35862E"/>
</svg>
