<svg width="28" height="25" viewBox="0 0 28 25" fill="none" xmlns="http://www.w3.org/2000/svg">
<path d="M26.0984 4.33914H25.0053L25.0064 2.38509C25.007 1.07321 23.9404 0.00533194 22.6283 0.00469211L14.3327 0H14.3316C13.8594 0 13.4154 0.183846 13.0814 0.517839L0.696779 12.9025C0.247402 13.3518 0 13.9492 0 14.5848C0 15.2204 0.247402 15.8177 0.696779 16.2671L8.73394 24.3043C9.19782 24.7682 9.80715 25 10.4163 25C11.0256 25 11.6349 24.7682 12.0988 24.3043L19.8963 16.5068C20.1095 16.2936 20.1095 15.9478 19.8963 15.7348C19.683 15.5215 19.3373 15.5215 19.124 15.7348L11.3265 23.5322C10.8247 24.0341 10.0081 24.0341 9.50622 23.5322L1.46906 15.4951C1.22592 15.2519 1.09198 14.9286 1.09198 14.5848C1.09198 14.241 1.22592 13.9177 1.46906 13.6745L13.8535 1.29012C13.9812 1.16236 14.151 1.09198 14.3316 1.09198L22.6277 1.09667C23.3375 1.09689 23.9148 1.67487 23.9144 2.38466L23.9119 6.9599H21.4525C21.2408 6.9599 21.049 6.8733 20.9104 6.73382C21.1388 6.63593 21.3529 6.49452 21.5391 6.30833C22.3238 5.52347 22.3238 4.24679 21.5391 3.46214C20.7543 2.67728 19.4776 2.67728 18.6927 3.46214C17.9081 4.24679 17.9081 5.52347 18.6927 6.30833C18.9836 6.59924 19.3424 6.78202 19.7184 6.85731C19.9856 7.55494 20.6619 8.05188 21.4525 8.05188H23.9112L23.9097 10.6692C23.9097 10.8499 23.8393 11.0194 23.7116 11.147L22.2127 12.6461C21.9994 12.8594 21.9994 13.2051 22.2127 13.4184C22.4257 13.6314 22.7715 13.6314 22.9847 13.4184L24.4839 11.9192C24.8174 11.5855 25.0015 11.1418 25.0017 10.6699L25.0032 8.05188H26.0984C27.1219 8.05188 27.9548 7.21924 27.9548 6.19551C27.9548 5.17199 27.1219 4.33914 26.0984 4.33914ZM19.465 4.2342C19.6446 4.05462 19.8803 3.96505 20.1161 3.96505C20.3518 3.96505 20.5875 4.05484 20.7671 4.2342C20.8238 4.29115 20.8707 4.35407 20.9095 4.4204C20.3102 4.60403 19.8393 5.08369 19.6672 5.68812C19.5949 5.64781 19.5264 5.59769 19.465 5.53627C19.1061 5.17711 19.1061 4.59315 19.465 4.2342ZM26.0984 6.9599H25.0038L25.0047 5.43112H26.0984C26.5198 5.43112 26.8628 5.77407 26.8628 6.19551C26.8628 6.61694 26.5198 6.9599 26.0984 6.9599Z" fill="#35862E"/>
<path d="M8.81307 13.7756C8.88025 14.0173 9.09971 14.1753 9.33858 14.1753C9.38721 14.1753 9.43648 14.1689 9.48532 14.1552L15.0903 12.5951C15.3807 12.5143 15.5507 12.2131 15.4699 11.9227C15.3891 11.6324 15.0881 11.4624 14.7974 11.5432L9.19249 13.1031C8.90222 13.1842 8.73223 13.4851 8.81307 13.7756Z" fill="#35862E"/>
<path d="M11.2803 14.4961C10.9761 14.8002 10.8087 15.2044 10.8087 15.6345C10.8087 16.0645 10.9761 16.4687 11.2803 16.7728C11.5942 17.0865 12.0063 17.2435 12.4185 17.2435C12.8308 17.2435 13.2431 17.0865 13.557 16.7728C14.1847 16.1451 14.1847 15.1237 13.557 14.4961C12.9293 13.8684 11.9079 13.8684 11.2803 14.4961ZM12.7847 16.0005C12.5828 16.2025 12.2543 16.2025 12.0523 16.0005C11.9544 15.9028 11.9007 15.7727 11.9007 15.6343C11.9007 15.4961 11.9546 15.366 12.0523 15.2681C12.1534 15.1673 12.2861 15.1167 12.4185 15.1167C12.5512 15.1167 12.6838 15.1673 12.7847 15.2681C12.9867 15.4701 12.9867 15.7988 12.7847 16.0005Z" fill="#35862E"/>
<path d="M13.8274 11.2453C14.4551 10.6174 14.4551 9.59622 13.8274 8.96855C13.5233 8.66441 13.1189 8.49699 12.689 8.49699C12.259 8.49699 11.8546 8.66441 11.5507 8.96855C10.923 9.59622 10.923 10.6174 11.5507 11.2453C11.8646 11.559 12.2767 11.716 12.689 11.716C13.1012 11.716 13.5135 11.559 13.8274 11.2453ZM12.3228 9.74061C12.4207 9.64272 12.5508 9.58897 12.689 9.58897C12.8274 9.58897 12.9575 9.64272 13.0552 9.74061C13.2571 9.94258 13.2571 10.271 13.0552 10.473C12.8534 10.675 12.5247 10.675 12.3228 10.473C12.121 10.271 12.121 9.94258 12.3228 9.74061Z" fill="#35862E"/>
<path d="M5.43048 12.6474C5.2172 12.4341 4.87148 12.4341 4.6582 12.6474L3.10682 14.1988C3.00444 14.3011 2.94686 14.44 2.94686 14.5848C2.94686 14.7296 3.00444 14.8685 3.10682 14.9708L10.0305 21.8945C10.1369 22.0009 10.2768 22.0542 10.4165 22.0542C10.5562 22.0542 10.6959 22.0009 10.8025 21.8945L21.1542 11.5426C21.3675 11.3293 21.3675 10.9836 21.1542 10.7703L14.2307 3.84689C14.1284 3.74452 13.9895 3.68693 13.8447 3.68693C13.6999 3.68693 13.5611 3.74452 13.4587 3.84689L7.74689 9.55869C7.53361 9.77196 7.53361 10.1177 7.74689 10.331C7.95995 10.544 8.30568 10.544 8.51896 10.331L13.8447 5.0052L19.9961 11.1566L10.4165 20.7362L4.26513 14.5848L5.43048 13.4194C5.64354 13.2062 5.64376 12.8607 5.43048 12.6474Z" fill="#35862E"/>
<path d="M21.0546 14.0305C20.9108 14.0305 20.7701 14.0889 20.6685 14.1904C20.567 14.292 20.5086 14.4329 20.5086 14.5765C20.5086 14.72 20.567 14.861 20.6685 14.9625C20.7701 15.064 20.9108 15.1225 21.0546 15.1225C21.1981 15.1225 21.3389 15.064 21.4406 14.9625C21.5421 14.861 21.6006 14.72 21.6006 14.5765C21.6006 14.4329 21.5421 14.292 21.4406 14.1904C21.3389 14.0889 21.1981 14.0305 21.0546 14.0305Z" fill="#35862E"/>
<path d="M6.9744 11.8749C7.07656 11.7734 7.13457 11.633 7.13457 11.4888C7.13457 11.3453 7.07656 11.205 6.9744 11.1028C6.87288 11.0013 6.73254 10.9429 6.58858 10.9429C6.44483 10.9429 6.30407 11.0013 6.20255 11.1028C6.10081 11.2043 6.04259 11.3453 6.04259 11.4888C6.04259 11.633 6.10081 11.7734 6.20255 11.8749C6.30449 11.977 6.44483 12.0348 6.58858 12.0348C6.73254 12.0348 6.87288 11.977 6.9744 11.8749Z" fill="#35862E"/>
</svg>
