<svg width="27" height="25" viewBox="0 0 72 75" fill="none" xmlns="http://www.w3.org/2000/svg">
<path d="M41.4029 16.3464C41.4029 17.021 40.856 17.5679 40.1814 17.5679H39.8147C39.1401 17.5679 38.5932 17.021 38.5932 16.3464C38.5932 15.6717 39.1401 15.1248 39.8147 15.1248H40.1814C40.8558 15.1248 41.4029 15.6717 41.4029 16.3464ZM44.6514 72.0203C44.6514 72.6949 44.1045 73.2419 43.4298 73.2419H38.7988C35.6819 73.2419 33.0092 71.3029 31.9234 68.5679H23.6863C23.0117 68.5679 22.4648 68.021 22.4648 67.3463C22.4648 66.6717 23.0117 66.1248 23.6863 66.1248H31.4102C31.4067 66.0328 31.4051 65.9407 31.4051 65.8478V42.6091H31.0871C30.4125 42.6091 29.8656 42.0622 29.8656 41.3876V35.2575C29.8656 34.5829 30.4125 34.036 31.0871 34.036H64.799C65.4737 34.036 66.0206 34.5829 66.0206 35.2575V41.3876C66.0206 42.0622 65.4737 42.6091 64.799 42.6091H64.4811V50.5015C64.4811 51.1762 63.9342 51.7231 63.2595 51.7231C62.5849 51.7231 62.038 51.1762 62.038 50.5015V42.6091H33.8482V65.8478C33.8688 66.6202 34.0405 67.1111 34.0513 67.2531C34.6584 69.3008 36.5569 70.7988 38.7989 70.7988H43.43C44.1045 70.7988 44.6514 71.3457 44.6514 72.0203ZM63.5775 40.166V36.479H32.3087V40.166H63.5775ZM40.1814 20.7529H39.8147C39.1401 20.7529 38.5932 21.2998 38.5932 21.9744C38.5932 22.649 39.1401 23.196 39.8147 23.196H40.1814C40.856 23.196 41.4029 22.649 41.4029 21.9744C41.4029 21.2998 40.8558 20.7529 40.1814 20.7529ZM6.10442 44.472C6.11628 44.4723 6.12832 44.4725 6.14019 44.4725C6.79843 44.4725 7.3415 43.9485 7.36052 43.286L8.29744 10.7088H39.6039C40.2786 10.7088 40.8255 10.1619 40.8255 9.48723C40.8255 8.81259 40.2786 8.26568 39.6039 8.26568H8.36777L8.51941 2.99488C8.52814 2.68548 8.75552 2.44309 9.037 2.44309H43.6593C43.9404 2.44309 44.1678 2.68583 44.1769 2.99488L44.9194 28.8091C44.9388 29.4834 45.4995 30.0104 46.1755 29.9951C46.8498 29.9757 47.3808 29.4133 47.3615 28.739L46.6189 2.92421C46.5709 1.28437 45.271 0 43.6591 0H9.037C7.42439 0 6.12449 1.28472 6.07737 2.92473L4.91847 43.2159C4.8991 43.8902 5.43012 44.4524 6.10442 44.472ZM19.9227 56.2974V65.0376C19.9227 70.5302 15.4543 74.9986 9.96154 74.9986C4.46842 74.9986 0 70.5302 0 65.0376V56.2974C0 50.8047 4.46859 46.3362 9.96119 46.3362C15.4536 46.3362 19.9227 50.8048 19.9227 56.2974ZM6.60368 71.7634C4.90381 67.737 5.82835 62.8817 9.21447 59.8064C11.6979 56.9874 10.9086 53.509 8.69252 48.8863C5.14899 49.491 2.44292 52.5839 2.44292 56.2974V65.0376C2.44309 67.9772 4.13895 70.5281 6.60368 71.7634ZM17.4796 56.2974C17.4796 52.6459 14.8626 49.5939 11.4058 48.9186C13.2892 53.0961 14.4453 57.6303 10.9927 61.4836C10.9629 61.5167 10.9313 61.5483 10.8981 61.5782C7.74251 64.4053 7.32544 69.2289 9.86556 72.5548C9.89732 72.5553 9.92943 72.5555 9.96136 72.5555C14.1073 72.5555 17.4798 69.183 17.4798 65.0376L17.4796 56.2974ZM66.5083 70.1772C63.3881 73.2977 59.1984 75 54.8731 75C53.8159 75 52.7511 74.8983 51.6915 74.6909C51.6604 74.6852 51.6297 74.678 51.599 74.6698C51.4571 74.6316 51.3271 74.5695 51.2128 74.4885C46.6606 71.4191 43.9441 66.3157 43.9441 60.8306C43.9441 55.3362 46.6702 50.2244 51.2367 47.1568C51.6487 46.8798 52.1871 46.8802 52.5991 47.1568C55.783 49.2959 58.0723 52.4283 59.1668 55.9912C62.4746 54.2464 66.357 53.6619 70.0566 54.3881C70.5434 54.484 70.9242 54.8644 71.0198 55.3514C72.0801 60.7494 70.3937 66.2919 66.5083 70.1772ZM57.449 60.8306C57.449 56.4314 55.3963 52.3201 51.9178 49.6721C48.4397 52.3199 46.3872 56.4313 46.3872 60.8306C46.3872 64.6872 47.9644 68.3223 50.6964 70.9441V62.1387C50.6964 61.464 51.2434 60.9171 51.918 60.9171C52.5926 60.9171 53.1395 61.464 53.1395 62.1387V70.9438C55.8716 68.3216 57.449 64.6865 57.449 60.8306ZM68.7598 56.6491C65.6377 56.2309 62.4222 56.8806 59.724 58.4777C59.8352 59.2508 59.8921 60.0366 59.8921 60.8306C59.8921 65.2859 58.0992 69.4898 54.986 72.5562C58.6293 72.5264 62.1511 71.0794 64.7807 68.4499C67.8915 65.3391 69.347 60.9805 68.7598 56.6491ZM33.5958 15.1248C32.9212 15.1248 32.3743 15.6717 32.3743 16.3464C32.3743 17.021 32.9212 17.5679 33.5958 17.5679H33.9625C34.6371 17.5679 35.184 17.021 35.184 16.3464C35.184 15.6717 34.6371 15.1248 33.9625 15.1248H33.5958Z" fill="#35862E"/>
</svg>
