<svg width="72" height="75" viewBox="0 0 72 75" fill="none" xmlns="http://www.w3.org/2000/svg">
<path d="M9.76486 0H5.49556C2.4653 0 0 2.46513 0 5.49538V69.5361C0 70.2134 0.549013 70.7624 1.22626 70.7624H7.16292C7.49646 70.7624 7.81564 70.6266 8.04688 70.3863C8.27794 70.1458 8.40126 69.8215 8.3883 69.4883L6.72059 26.7946C6.69484 26.1364 6.15388 25.6162 5.49521 25.6162H2.45251V5.49538C2.45251 3.81751 3.81769 2.45251 5.49556 2.45251H9.76486C10.4421 2.45251 10.9911 1.9035 10.9911 1.22626C10.9911 0.549013 10.4423 0 9.76486 0ZM4.31608 28.0689L5.88796 68.3101H2.45269V28.0689H4.31608ZM23.4157 9.69934L25.699 52.3932C25.7351 53.0694 25.2162 53.647 24.54 53.6833C24.5176 53.6845 24.4955 53.685 24.4735 53.685C23.8262 53.685 23.285 53.1782 23.25 52.5243L20.9667 9.83038C20.9306 9.15419 21.4495 8.57662 22.1257 8.54036C22.7975 8.50322 23.3795 9.02298 23.4157 9.69934ZM28.4952 69.5361C28.4952 70.2134 27.9462 70.7624 27.269 70.7624H19.3276C18.6503 70.7624 18.1013 70.2134 18.1013 69.5361V63.6322L14.7675 1.29177C14.7494 0.955605 14.8705 0.626968 15.1021 0.382767C15.3335 0.138392 15.6553 0 15.992 0H44.01C44.3467 0 44.6685 0.138392 44.8999 0.382767C45.1315 0.627143 45.2526 0.95578 45.2345 1.29177L43.7926 28.2535C43.7564 28.9297 43.1851 29.4512 42.5026 29.4125C41.8264 29.3762 41.3075 28.7987 41.3436 28.1225L42.7165 2.45251H17.2857L20.4901 62.3734H27.0668C27.7441 62.3734 28.2931 62.9224 28.2931 63.5997C28.2931 64.2769 27.7441 64.8259 27.0668 64.8259H20.5538V68.3101H27.269C27.9462 68.3099 28.4952 68.8589 28.4952 69.5361ZM10.9911 5.6795C10.9911 6.35674 10.4421 6.90576 9.76486 6.90576H5.49556C4.81832 6.90576 4.2693 6.35674 4.2693 5.6795C4.2693 5.00225 4.81832 4.45324 5.49556 4.45324H9.76486C10.4423 4.45324 10.9911 5.00225 10.9911 5.6795ZM10.9911 9.97911C10.9911 10.6564 10.4421 11.2054 9.76486 11.2054H5.49556C4.81832 11.2054 4.2693 10.6564 4.2693 9.97911C4.2693 9.30186 4.81832 8.75285 5.49556 8.75285H9.76486C10.4423 8.75285 10.9911 9.30186 10.9911 9.97911ZM10.9911 14.3441C10.9911 15.0213 10.4421 15.5703 9.76486 15.5703H5.49556C4.81832 15.5703 4.2693 15.0213 4.2693 14.3441C4.2693 13.6668 4.81832 13.1178 5.49556 13.1178H9.76486C10.4423 13.1178 10.9911 13.6668 10.9911 14.3441ZM43.7492 55.1952C43.7492 55.8725 43.2002 56.4215 42.5229 56.4215H42.168C41.4908 56.4215 40.9417 55.8725 40.9417 55.1952C40.9417 54.518 41.4908 53.969 42.168 53.969H42.5229C43.2003 53.969 43.7492 54.518 43.7492 55.1952ZM38.9375 65.26C38.9375 65.9373 38.3885 66.4863 37.7113 66.4863H37.3562C36.6789 66.4863 36.1299 65.9373 36.1299 65.26C36.1299 64.5828 36.6789 64.0338 37.3562 64.0338H37.7113C38.3885 64.0338 38.9375 64.5828 38.9375 65.26ZM54.6588 42.1563C54.6588 42.8335 54.1098 43.3825 53.4326 43.3825H42.5816C41.9044 43.3825 41.3553 42.8335 41.3553 42.1563C41.3553 41.479 41.9044 40.93 42.5816 40.93H53.4326C54.1098 40.93 54.6588 41.4789 54.6588 42.1563ZM70.3744 33.0254H56.9528C56.8572 33.0254 56.7643 33.0364 56.675 33.0571C56.4232 33.0362 56.1685 33.0254 55.9117 33.0254H40.103C35.0682 33.0254 30.9719 37.1216 30.9719 42.1563V65.8693C30.9719 70.9039 35.0682 75 40.103 75H55.9117C60.5305 75 64.3594 71.5525 64.9603 67.0955H70.3744C71.0516 67.0955 71.6006 66.5465 71.6006 65.8693V34.2516C71.6006 33.5744 71.0516 33.0254 70.3744 33.0254ZM62.5896 65.8695C62.5896 69.5519 59.5936 72.5477 55.9115 72.5477H40.1028C36.4204 72.5477 33.4243 69.5517 33.4243 65.8695V48.3767C35.0923 50.1662 37.4692 51.2868 40.1028 51.2868H55.9115C58.545 51.2868 60.9217 50.1662 62.5896 48.3767V65.8695ZM55.9115 48.8343H40.1028C36.4204 48.8343 33.4243 45.8385 33.4243 42.1563C33.4243 38.474 36.4204 35.4781 40.1028 35.4781H55.9115C59.5938 35.4781 62.5896 38.474 62.5896 42.1564C62.5896 45.8385 59.5938 48.8343 55.9115 48.8343ZM69.1481 64.6432H65.0423V42.1563C65.0423 39.5228 63.9216 37.1458 62.1322 35.4779H69.1483L69.1481 64.6432ZM38.9375 58.5503C38.9375 59.2275 38.3885 59.7765 37.7113 59.7765H37.3562C36.6789 59.7765 36.1299 59.2275 36.1299 58.5503C36.1299 57.873 36.6789 57.324 37.3562 57.324H37.7113C38.3885 57.324 38.9375 57.873 38.9375 58.5503ZM43.7492 61.905C43.7492 62.5822 43.2002 63.1312 42.5229 63.1312H42.168C41.4908 63.1312 40.9417 62.5822 40.9417 61.905C40.9417 61.2277 41.4908 60.6787 42.168 60.6787H42.5229C43.2003 60.6787 43.7492 61.2277 43.7492 61.905ZM43.7492 68.6154C43.7492 69.2926 43.2002 69.8417 42.5229 69.8417H42.168C41.4908 69.8417 40.9417 69.2926 40.9417 68.6154C40.9417 67.9382 41.4908 67.3891 42.168 67.3891H42.5229C43.2003 67.3891 43.7492 67.938 43.7492 68.6154Z" fill="#35862E"/>
</svg>
