<svg width="63" height="77" viewBox="0 0 63 77" fill="none" xmlns="http://www.w3.org/2000/svg">
<mask id="path-1-outside-1" maskUnits="userSpaceOnUse" x="0" y="0" width="63" height="77" fill="black">
<rect fill="white" width="63" height="77"/>
<path d="M13.2227 20.654C15.9263 20.654 18.4995 19.4727 20.2824 17.4125C20.7233 16.9023 20.6678 16.1342 20.1576 15.6933C19.6474 15.2524 18.8793 15.3079 18.4385 15.8181C17.1214 17.3432 15.222 18.2166 13.2255 18.2166C11.2291 18.2166 9.32966 17.3432 8.01255 15.8181C7.57167 15.3079 6.80082 15.2524 6.29339 15.6933C5.78318 16.1342 5.72773 16.9051 6.16861 17.4125C7.94323 19.4727 10.5164 20.654 13.2227 20.654Z"/>
<path d="M13.2227 46.5246C15.9263 46.5246 18.4995 45.3434 20.2824 43.2832C20.7233 42.773 20.6678 42.0049 20.1576 41.564C19.6474 41.1231 18.8793 41.1786 18.4385 41.6888C17.1214 43.2139 15.222 44.0873 13.2255 44.0873C11.2291 44.0873 9.32966 43.2139 8.01255 41.6888C7.57167 41.1786 6.80082 41.1231 6.29339 41.564C5.78318 42.0049 5.72773 42.7757 6.16861 43.2832C7.94323 45.3434 10.5164 46.5246 13.2227 46.5246Z"/>
<path d="M15.7765 56.5124C15.7765 56.5068 15.7765 56.4985 15.7765 56.493C14.9723 56.8174 14.1072 56.9921 13.2227 56.9921C11.2262 56.9921 9.32681 56.1186 8.00971 54.5936C7.56882 54.0834 6.79797 54.0279 6.29054 54.4688C5.78034 54.9097 5.72488 55.6805 6.16576 56.188C7.94593 58.2482 10.5191 59.4294 13.2254 59.4294C14.2486 59.4294 15.2496 59.2547 16.1979 58.9331C15.9595 58.1622 15.8125 57.3498 15.7765 56.5124Z"/>
<path d="M20.2824 30.3478C20.7233 29.8376 20.6678 29.0695 20.1576 28.6286C19.6474 28.1878 18.8793 28.2432 18.4385 28.7534C17.1214 30.2785 15.2192 31.1519 13.2255 31.1519C11.2291 31.1519 9.32966 30.2785 8.01255 28.7534C7.57167 28.2432 6.80082 28.1878 6.29339 28.6286C5.78318 29.0695 5.72773 29.8404 6.16861 30.3478C7.94878 32.408 10.522 33.5893 13.2283 33.5893C15.9346 33.5893 18.4995 32.408 20.2824 30.3478Z"/>
<path d="M18.4163 71.1503C17.7702 71.2834 13.8882 71.4137 13.2227 71.4137C7.82952 71.4137 3.44011 67.0243 3.44011 61.6311V13.2227C3.44011 7.82675 7.82675 3.44011 13.2227 3.44011C18.6159 3.44011 23.0053 7.82952 23.0053 13.2227V40.6573C23.0053 41.3311 23.5516 41.8773 24.2254 41.8773C24.8992 41.8773 25.4454 41.3311 25.4454 40.6573V13.2227C25.4427 6.48192 19.9607 1 13.2227 1C6.48469 1 1 6.48192 1 13.2227V61.6339C1 68.3719 6.48192 73.8566 13.2227 73.8566C14.0518 73.8566 18.1029 73.7096 18.9126 73.5405C19.5725 73.4046 19.9968 72.7585 19.8581 72.0986C19.7195 71.4387 19.0762 71.0144 18.4163 71.1503Z"/>
<path d="M23.8426 57.0559C24.2752 57.0559 24.6245 56.7065 24.6245 56.2739V55.0234C24.6245 54.5908 24.2752 54.2414 23.8426 54.2414C23.41 54.2414 23.0607 54.5908 23.0607 55.0234V56.2739C23.0579 56.7065 23.41 57.0559 23.8426 57.0559Z"/>
<path d="M27.7691 59.7788C27.7691 60.2114 28.1185 60.5608 28.551 60.5608C28.9836 60.5608 29.333 60.2114 29.333 59.7788V59.5459C29.333 59.1134 28.9836 58.764 28.551 58.764C28.1185 58.764 27.7691 59.1134 27.7691 59.5459V59.7788Z"/>
<path d="M29.3357 52.4946C28.9031 52.4946 28.5537 52.1452 28.5537 51.7126V50.4621C28.5537 50.0295 28.9031 49.6801 29.3357 49.6801C29.7682 49.6801 30.1176 50.0295 30.1176 50.4621V51.7126C30.1176 52.1452 29.7682 52.4946 29.3357 52.4946Z"/>
<path d="M50.0349 64.1377L48.4488 64.3928C47.2149 64.5924 46.1113 65.33 45.3737 66.3255C44.4254 64.0323 42.3735 62.1246 39.8613 62.1246H32.1722C29.3522 62.1246 27.4833 63.8659 26.6265 66.1036C25.9499 65.208 24.9739 64.573 23.8537 64.3928L22.2676 64.1377C22.0485 64.1016 21.8267 64.1654 21.6604 64.3068C21.4912 64.451 21.3969 64.659 21.3969 64.8808V65.5407C21.3969 65.6433 21.4163 65.7432 21.4579 65.8374C21.896 66.8606 22.1262 67.9753 22.1262 69.0623C22.1262 70.1492 21.896 71.2639 21.4579 72.2871C21.4191 72.3814 21.3969 72.4812 21.3969 72.5838V73.2437C21.3969 73.4655 21.494 73.6735 21.6604 73.8177C21.8295 73.9619 22.0513 74.0229 22.2676 73.9868L23.8537 73.7317C25.0183 73.5432 26.0276 72.8666 26.7042 71.9128C27.6719 74.156 29.6988 75.9999 32.1694 75.9999H39.8586C42.3708 75.9999 44.4227 74.0922 45.371 71.7991C46.1086 72.7973 47.2121 73.5349 48.4461 73.7317L50.0321 73.9868C50.2484 74.0229 50.473 73.9591 50.6394 73.8177C50.8085 73.6735 50.9028 73.4655 50.9028 73.2437V72.5838C50.9028 72.4812 50.8834 72.3814 50.8418 72.2871C50.4037 71.2639 50.1735 70.1492 50.1735 69.0623C50.1735 67.9753 50.4037 66.8578 50.8418 65.8374C50.8806 65.7432 50.9028 65.6433 50.9028 65.5407V64.8808C50.9028 64.659 50.8058 64.451 50.6394 64.3068C50.4758 64.1654 50.254 64.1016 50.0349 64.1377ZM25.9777 69.8137H26.0248C25.7503 71.0615 24.8048 72.0514 23.618 72.2427L23.0579 72.3315C23.435 71.2778 23.6318 70.1575 23.6318 69.0595C23.6318 67.9614 23.435 66.8412 23.0579 65.7875L23.618 65.8763C24.8048 66.0676 25.7503 67.0575 26.0248 68.3053H25.9777C25.5617 68.3053 25.2235 68.6436 25.2235 69.0595C25.2235 69.4782 25.5617 69.8137 25.9777 69.8137ZM41.5167 67.8755C42.4345 68.0224 43.3302 68.4439 44.0955 69.0761C43.3995 69.7056 42.4955 70.3211 41.5167 70.4792C41.1063 70.5457 40.8263 70.9312 40.8928 71.3415C40.9594 71.7519 41.3448 72.032 41.7552 71.9654C42.6037 71.8296 43.3828 71.4608 44.0622 71.0088C43.8265 71.641 43.4827 72.2483 43.0529 72.7779C42.1517 73.8842 41.0176 74.4943 39.8613 74.4943H32.1722C31.0159 74.4943 29.8818 73.8842 28.9807 72.7779C28.5287 72.2233 28.1738 71.5828 27.9353 70.9145C28.7866 71.4525 29.7099 71.8323 30.5501 71.9654C30.9605 72.032 31.3459 71.7519 31.4125 71.3415C31.479 70.9312 31.1989 70.5457 30.7886 70.4792C29.9096 70.3378 28.8254 69.7887 27.963 69.0761C28.7422 68.4883 29.782 68.0391 30.7886 67.8783C31.1989 67.8117 31.479 67.4263 31.4125 67.0159C31.3459 66.6055 30.9577 66.3255 30.5501 66.392C29.5962 66.5445 28.6368 66.8994 27.7994 67.3847C28.293 65.3716 29.7044 63.6358 32.1722 63.6358H39.8613C41.0176 63.6358 42.1517 64.2458 43.0529 65.3522C43.5132 65.9178 43.8736 66.575 44.1121 67.2571C43.3745 66.8218 42.5732 66.5251 41.7552 66.3948C41.3448 66.3282 40.9594 66.6083 40.8928 67.0187C40.829 67.4207 41.1063 67.8089 41.5167 67.8755ZM49.2474 72.3342L48.6873 72.2455C47.4534 72.0458 46.3775 71.0116 46.0448 69.8165H46.3276C46.7435 69.8165 47.0818 69.4782 47.0818 69.0623C47.0818 68.6463 46.7435 68.308 46.3276 68.308H46.0448C46.3775 67.1129 47.4534 66.0787 48.6873 65.879L49.2474 65.7903C48.8703 66.844 48.6734 67.9642 48.6734 69.0623C48.6734 70.1603 48.8703 71.2778 49.2474 72.3342Z"/>
<path d="M18.7073 55.5835C18.7073 50.0045 23.2465 45.4654 28.8255 45.4654C30.0178 45.4654 31.1852 45.6706 32.2971 46.0754C32.688 46.2168 33.1206 46.0172 33.262 45.6262C33.4034 45.2352 33.2038 44.8027 32.8128 44.6612C31.5373 44.1954 30.1953 43.9597 28.8255 43.9597C22.4146 43.9597 17.2017 49.1754 17.2017 55.5835C17.2017 58.226 18.0668 60.716 19.7 62.7846C19.8498 62.9731 20.0688 63.0702 20.2906 63.0702C20.4542 63.0702 20.6178 63.0175 20.7565 62.9066C21.0837 62.6487 21.1391 62.1746 20.8813 61.8474C19.4588 60.0506 18.7073 57.885 18.7073 55.5835Z"/>
<path d="M53.0907 54.6962C53.0907 55.1122 53.429 55.4504 53.8449 55.4504H57.3747C57.7907 55.4504 58.129 55.1122 58.129 54.6962V48.388C58.129 47.9721 57.7907 47.6338 57.3747 47.6338H53.8449C53.429 47.6338 53.0907 47.9721 53.0907 48.388V54.6962ZM54.5991 49.1394H56.6233V53.942H54.5991V49.1394Z"/>
<path d="M61.2623 32.347H35.8381C35.4222 32.347 35.0839 32.6853 35.0839 33.1012V59.9978C35.0839 60.4138 35.4222 60.7521 35.8381 60.7521C36.254 60.7521 36.5923 60.4138 36.5923 59.9978V33.8554H60.5109V69.2287H53.637C53.2211 69.2287 52.8828 69.5669 52.8828 69.9829C52.8828 70.3988 53.2211 70.7371 53.637 70.7371H61.2623C61.6783 70.7371 62.0166 70.3988 62.0166 69.9829V33.1012C62.0166 32.6853 61.6783 32.347 61.2623 32.347Z"/>
<path d="M53.8449 45.1327H57.3747C57.7907 45.1327 58.129 44.7944 58.129 44.3784V38.0702C58.129 37.6543 57.7907 37.316 57.3747 37.316H53.8449C53.429 37.316 53.0907 37.6543 53.0907 38.0702V44.3784C53.0907 44.7971 53.429 45.1327 53.8449 45.1327ZM54.5991 38.8244H56.6233V43.627H54.5991V38.8244Z"/>
<path d="M50.3178 57.9487H46.788C46.3721 57.9487 46.0338 58.287 46.0338 58.703V62.6515C46.0338 63.0674 46.3721 63.4057 46.788 63.4057C47.2039 63.4057 47.5422 63.0674 47.5422 62.6515V59.4544H49.5664V61.5507C49.5664 61.9666 49.9047 62.3049 50.3206 62.3049C50.7365 62.3049 51.0748 61.9666 51.0748 61.5507V58.703C51.0693 58.287 50.7337 57.9487 50.3178 57.9487Z"/>
<path d="M53.0907 65.0112C53.0907 65.4271 53.429 65.7654 53.8449 65.7654H57.3747C57.7907 65.7654 58.129 65.4271 58.129 65.0112V58.703C58.129 58.287 57.7907 57.9487 57.3747 57.9487H53.8449C53.429 57.9487 53.0907 58.287 53.0907 58.703V65.0112ZM54.5991 59.4544H56.6233V64.257H54.5991V59.4544Z"/>
<path d="M39.7257 45.1327H43.2555C43.6714 45.1327 44.0097 44.7944 44.0097 44.3784V38.0702C44.0097 37.6543 43.6714 37.316 43.2555 37.316H39.7257C39.3097 37.316 38.9715 37.6543 38.9715 38.0702V44.3784C38.9742 44.7971 39.3097 45.1327 39.7257 45.1327ZM40.4799 38.8244H42.5041V43.627H40.4799V38.8244Z"/>
<path d="M38.9741 54.6962C38.9741 55.1122 39.3124 55.4504 39.7283 55.4504H43.2581C43.674 55.4504 44.0123 55.1122 44.0123 54.6962V48.388C44.0123 47.9721 43.674 47.6338 43.2581 47.6338H39.7283C39.3124 47.6338 38.9741 47.9721 38.9741 48.388V54.6962ZM40.4797 49.1394H42.5039V53.942H40.4797V49.1394Z"/>
<path d="M46.7853 45.1327H50.3151C50.731 45.1327 51.0693 44.7944 51.0693 44.3784V38.0702C51.0693 37.6543 50.731 37.316 50.3151 37.316H46.7853C46.3693 37.316 46.031 37.6543 46.031 38.0702V44.3784C46.031 44.7971 46.3693 45.1327 46.7853 45.1327ZM47.5395 38.8244H49.5637V43.627H47.5395V38.8244Z"/>
<path d="M38.9741 59.9979C38.9741 60.4138 39.3124 60.7521 39.7283 60.7521C40.1442 60.7521 40.4825 60.4138 40.4825 59.9979V59.4544H42.5067V61.0959C42.5067 61.5118 42.845 61.8501 43.2609 61.8501C43.6768 61.8501 44.0151 61.5118 44.0151 61.0959V58.7002C44.0151 58.2842 43.6768 57.946 43.2609 57.946H39.731C39.3151 57.946 38.9768 58.2842 38.9768 58.7002V59.9979H38.9741Z"/>
<path d="M46.031 54.6962C46.031 55.1122 46.3693 55.4504 46.7853 55.4504H50.3151C50.731 55.4504 51.0693 55.1122 51.0693 54.6962V48.388C51.0693 47.9721 50.731 47.6338 50.3151 47.6338H46.7853C46.3693 47.6338 46.031 47.9721 46.031 48.388V54.6962ZM47.5395 49.1394H49.5637V53.942H47.5395V49.1394Z"/>
</mask>
<path d="M13.2227 20.654C15.9263 20.654 18.4995 19.4727 20.2824 17.4125C20.7233 16.9023 20.6678 16.1342 20.1576 15.6933C19.6474 15.2524 18.8793 15.3079 18.4385 15.8181C17.1214 17.3432 15.222 18.2166 13.2255 18.2166C11.2291 18.2166 9.32966 17.3432 8.01255 15.8181C7.57167 15.3079 6.80082 15.2524 6.29339 15.6933C5.78318 16.1342 5.72773 16.9051 6.16861 17.4125C7.94323 19.4727 10.5164 20.654 13.2227 20.654Z" fill="#35862E"/>
<path d="M13.2227 46.5246C15.9263 46.5246 18.4995 45.3434 20.2824 43.2832C20.7233 42.773 20.6678 42.0049 20.1576 41.564C19.6474 41.1231 18.8793 41.1786 18.4385 41.6888C17.1214 43.2139 15.222 44.0873 13.2255 44.0873C11.2291 44.0873 9.32966 43.2139 8.01255 41.6888C7.57167 41.1786 6.80082 41.1231 6.29339 41.564C5.78318 42.0049 5.72773 42.7757 6.16861 43.2832C7.94323 45.3434 10.5164 46.5246 13.2227 46.5246Z" fill="#35862E"/>
<path d="M15.7765 56.5124C15.7765 56.5068 15.7765 56.4985 15.7765 56.493C14.9723 56.8174 14.1072 56.9921 13.2227 56.9921C11.2262 56.9921 9.32681 56.1186 8.00971 54.5936C7.56882 54.0834 6.79797 54.0279 6.29054 54.4688C5.78034 54.9097 5.72488 55.6805 6.16576 56.188C7.94593 58.2482 10.5191 59.4294 13.2254 59.4294C14.2486 59.4294 15.2496 59.2547 16.1979 58.9331C15.9595 58.1622 15.8125 57.3498 15.7765 56.5124Z" fill="#35862E"/>
<path d="M20.2824 30.3478C20.7233 29.8376 20.6678 29.0695 20.1576 28.6286C19.6474 28.1878 18.8793 28.2432 18.4385 28.7534C17.1214 30.2785 15.2192 31.1519 13.2255 31.1519C11.2291 31.1519 9.32966 30.2785 8.01255 28.7534C7.57167 28.2432 6.80082 28.1878 6.29339 28.6286C5.78318 29.0695 5.72773 29.8404 6.16861 30.3478C7.94878 32.408 10.522 33.5893 13.2283 33.5893C15.9346 33.5893 18.4995 32.408 20.2824 30.3478Z" fill="#35862E"/>
<path d="M18.4163 71.1503C17.7702 71.2834 13.8882 71.4137 13.2227 71.4137C7.82952 71.4137 3.44011 67.0243 3.44011 61.6311V13.2227C3.44011 7.82675 7.82675 3.44011 13.2227 3.44011C18.6159 3.44011 23.0053 7.82952 23.0053 13.2227V40.6573C23.0053 41.3311 23.5516 41.8773 24.2254 41.8773C24.8992 41.8773 25.4454 41.3311 25.4454 40.6573V13.2227C25.4427 6.48192 19.9607 1 13.2227 1C6.48469 1 1 6.48192 1 13.2227V61.6339C1 68.3719 6.48192 73.8566 13.2227 73.8566C14.0518 73.8566 18.1029 73.7096 18.9126 73.5405C19.5725 73.4046 19.9968 72.7585 19.8581 72.0986C19.7195 71.4387 19.0762 71.0144 18.4163 71.1503Z" fill="#35862E"/>
<path d="M23.8426 57.0559C24.2752 57.0559 24.6245 56.7065 24.6245 56.2739V55.0234C24.6245 54.5908 24.2752 54.2414 23.8426 54.2414C23.41 54.2414 23.0607 54.5908 23.0607 55.0234V56.2739C23.0579 56.7065 23.41 57.0559 23.8426 57.0559Z" fill="#35862E"/>
<path d="M27.7691 59.7788C27.7691 60.2114 28.1185 60.5608 28.551 60.5608C28.9836 60.5608 29.333 60.2114 29.333 59.7788V59.5459C29.333 59.1134 28.9836 58.764 28.551 58.764C28.1185 58.764 27.7691 59.1134 27.7691 59.5459V59.7788Z" fill="#35862E"/>
<path d="M29.3357 52.4946C28.9031 52.4946 28.5537 52.1452 28.5537 51.7126V50.4621C28.5537 50.0295 28.9031 49.6801 29.3357 49.6801C29.7682 49.6801 30.1176 50.0295 30.1176 50.4621V51.7126C30.1176 52.1452 29.7682 52.4946 29.3357 52.4946Z" fill="#35862E"/>
<path d="M50.0349 64.1377L48.4488 64.3928C47.2149 64.5924 46.1113 65.33 45.3737 66.3255C44.4254 64.0323 42.3735 62.1246 39.8613 62.1246H32.1722C29.3522 62.1246 27.4833 63.8659 26.6265 66.1036C25.9499 65.208 24.9739 64.573 23.8537 64.3928L22.2676 64.1377C22.0485 64.1016 21.8267 64.1654 21.6604 64.3068C21.4912 64.451 21.3969 64.659 21.3969 64.8808V65.5407C21.3969 65.6433 21.4163 65.7432 21.4579 65.8374C21.896 66.8606 22.1262 67.9753 22.1262 69.0623C22.1262 70.1492 21.896 71.2639 21.4579 72.2871C21.4191 72.3814 21.3969 72.4812 21.3969 72.5838V73.2437C21.3969 73.4655 21.494 73.6735 21.6604 73.8177C21.8295 73.9619 22.0513 74.0229 22.2676 73.9868L23.8537 73.7317C25.0183 73.5432 26.0276 72.8666 26.7042 71.9128C27.6719 74.156 29.6988 75.9999 32.1694 75.9999H39.8586C42.3708 75.9999 44.4227 74.0922 45.371 71.7991C46.1086 72.7973 47.2121 73.5349 48.4461 73.7317L50.0321 73.9868C50.2484 74.0229 50.473 73.9591 50.6394 73.8177C50.8085 73.6735 50.9028 73.4655 50.9028 73.2437V72.5838C50.9028 72.4812 50.8834 72.3814 50.8418 72.2871C50.4037 71.2639 50.1735 70.1492 50.1735 69.0623C50.1735 67.9753 50.4037 66.8578 50.8418 65.8374C50.8806 65.7432 50.9028 65.6433 50.9028 65.5407V64.8808C50.9028 64.659 50.8058 64.451 50.6394 64.3068C50.4758 64.1654 50.254 64.1016 50.0349 64.1377ZM25.9777 69.8137H26.0248C25.7503 71.0615 24.8048 72.0514 23.618 72.2427L23.0579 72.3315C23.435 71.2778 23.6318 70.1575 23.6318 69.0595C23.6318 67.9614 23.435 66.8412 23.0579 65.7875L23.618 65.8763C24.8048 66.0676 25.7503 67.0575 26.0248 68.3053H25.9777C25.5617 68.3053 25.2235 68.6436 25.2235 69.0595C25.2235 69.4782 25.5617 69.8137 25.9777 69.8137ZM41.5167 67.8755C42.4345 68.0224 43.3302 68.4439 44.0955 69.0761C43.3995 69.7056 42.4955 70.3211 41.5167 70.4792C41.1063 70.5457 40.8263 70.9312 40.8928 71.3415C40.9594 71.7519 41.3448 72.032 41.7552 71.9654C42.6037 71.8296 43.3828 71.4608 44.0622 71.0088C43.8265 71.641 43.4827 72.2483 43.0529 72.7779C42.1517 73.8842 41.0176 74.4943 39.8613 74.4943H32.1722C31.0159 74.4943 29.8818 73.8842 28.9807 72.7779C28.5287 72.2233 28.1738 71.5828 27.9353 70.9145C28.7866 71.4525 29.7099 71.8323 30.5501 71.9654C30.9605 72.032 31.3459 71.7519 31.4125 71.3415C31.479 70.9312 31.1989 70.5457 30.7886 70.4792C29.9096 70.3378 28.8254 69.7887 27.963 69.0761C28.7422 68.4883 29.782 68.0391 30.7886 67.8783C31.1989 67.8117 31.479 67.4263 31.4125 67.0159C31.3459 66.6055 30.9577 66.3255 30.5501 66.392C29.5962 66.5445 28.6368 66.8994 27.7994 67.3847C28.293 65.3716 29.7044 63.6358 32.1722 63.6358H39.8613C41.0176 63.6358 42.1517 64.2458 43.0529 65.3522C43.5132 65.9178 43.8736 66.575 44.1121 67.2571C43.3745 66.8218 42.5732 66.5251 41.7552 66.3948C41.3448 66.3282 40.9594 66.6083 40.8928 67.0187C40.829 67.4207 41.1063 67.8089 41.5167 67.8755ZM49.2474 72.3342L48.6873 72.2455C47.4534 72.0458 46.3775 71.0116 46.0448 69.8165H46.3276C46.7435 69.8165 47.0818 69.4782 47.0818 69.0623C47.0818 68.6463 46.7435 68.308 46.3276 68.308H46.0448C46.3775 67.1129 47.4534 66.0787 48.6873 65.879L49.2474 65.7903C48.8703 66.844 48.6734 67.9642 48.6734 69.0623C48.6734 70.1603 48.8703 71.2778 49.2474 72.3342Z" fill="#35862E"/>
<path d="M18.7073 55.5835C18.7073 50.0045 23.2465 45.4654 28.8255 45.4654C30.0178 45.4654 31.1852 45.6706 32.2971 46.0754C32.688 46.2168 33.1206 46.0172 33.262 45.6262C33.4034 45.2352 33.2038 44.8027 32.8128 44.6612C31.5373 44.1954 30.1953 43.9597 28.8255 43.9597C22.4146 43.9597 17.2017 49.1754 17.2017 55.5835C17.2017 58.226 18.0668 60.716 19.7 62.7846C19.8498 62.9731 20.0688 63.0702 20.2906 63.0702C20.4542 63.0702 20.6178 63.0175 20.7565 62.9066C21.0837 62.6487 21.1391 62.1746 20.8813 61.8474C19.4588 60.0506 18.7073 57.885 18.7073 55.5835Z" fill="#35862E"/>
<path d="M53.0907 54.6962C53.0907 55.1122 53.429 55.4504 53.8449 55.4504H57.3747C57.7907 55.4504 58.129 55.1122 58.129 54.6962V48.388C58.129 47.9721 57.7907 47.6338 57.3747 47.6338H53.8449C53.429 47.6338 53.0907 47.9721 53.0907 48.388V54.6962ZM54.5991 49.1394H56.6233V53.942H54.5991V49.1394Z" fill="#35862E"/>
<path d="M61.2623 32.347H35.8381C35.4222 32.347 35.0839 32.6853 35.0839 33.1012V59.9978C35.0839 60.4138 35.4222 60.7521 35.8381 60.7521C36.254 60.7521 36.5923 60.4138 36.5923 59.9978V33.8554H60.5109V69.2287H53.637C53.2211 69.2287 52.8828 69.5669 52.8828 69.9829C52.8828 70.3988 53.2211 70.7371 53.637 70.7371H61.2623C61.6783 70.7371 62.0166 70.3988 62.0166 69.9829V33.1012C62.0166 32.6853 61.6783 32.347 61.2623 32.347Z" fill="#35862E"/>
<path d="M53.8449 45.1327H57.3747C57.7907 45.1327 58.129 44.7944 58.129 44.3784V38.0702C58.129 37.6543 57.7907 37.316 57.3747 37.316H53.8449C53.429 37.316 53.0907 37.6543 53.0907 38.0702V44.3784C53.0907 44.7971 53.429 45.1327 53.8449 45.1327ZM54.5991 38.8244H56.6233V43.627H54.5991V38.8244Z" fill="#35862E"/>
<path d="M50.3178 57.9487H46.788C46.3721 57.9487 46.0338 58.287 46.0338 58.703V62.6515C46.0338 63.0674 46.3721 63.4057 46.788 63.4057C47.2039 63.4057 47.5422 63.0674 47.5422 62.6515V59.4544H49.5664V61.5507C49.5664 61.9666 49.9047 62.3049 50.3206 62.3049C50.7365 62.3049 51.0748 61.9666 51.0748 61.5507V58.703C51.0693 58.287 50.7337 57.9487 50.3178 57.9487Z" fill="#35862E"/>
<path d="M53.0907 65.0112C53.0907 65.4271 53.429 65.7654 53.8449 65.7654H57.3747C57.7907 65.7654 58.129 65.4271 58.129 65.0112V58.703C58.129 58.287 57.7907 57.9487 57.3747 57.9487H53.8449C53.429 57.9487 53.0907 58.287 53.0907 58.703V65.0112ZM54.5991 59.4544H56.6233V64.257H54.5991V59.4544Z" fill="#35862E"/>
<path d="M39.7257 45.1327H43.2555C43.6714 45.1327 44.0097 44.7944 44.0097 44.3784V38.0702C44.0097 37.6543 43.6714 37.316 43.2555 37.316H39.7257C39.3097 37.316 38.9715 37.6543 38.9715 38.0702V44.3784C38.9742 44.7971 39.3097 45.1327 39.7257 45.1327ZM40.4799 38.8244H42.5041V43.627H40.4799V38.8244Z" fill="#35862E"/>
<path d="M38.9741 54.6962C38.9741 55.1122 39.3124 55.4504 39.7283 55.4504H43.2581C43.674 55.4504 44.0123 55.1122 44.0123 54.6962V48.388C44.0123 47.9721 43.674 47.6338 43.2581 47.6338H39.7283C39.3124 47.6338 38.9741 47.9721 38.9741 48.388V54.6962ZM40.4797 49.1394H42.5039V53.942H40.4797V49.1394Z" fill="#35862E"/>
<path d="M46.7853 45.1327H50.3151C50.731 45.1327 51.0693 44.7944 51.0693 44.3784V38.0702C51.0693 37.6543 50.731 37.316 50.3151 37.316H46.7853C46.3693 37.316 46.031 37.6543 46.031 38.0702V44.3784C46.031 44.7971 46.3693 45.1327 46.7853 45.1327ZM47.5395 38.8244H49.5637V43.627H47.5395V38.8244Z" fill="#35862E"/>
<path d="M38.9741 59.9979C38.9741 60.4138 39.3124 60.7521 39.7283 60.7521C40.1442 60.7521 40.4825 60.4138 40.4825 59.9979V59.4544H42.5067V61.0959C42.5067 61.5118 42.845 61.8501 43.2609 61.8501C43.6768 61.8501 44.0151 61.5118 44.0151 61.0959V58.7002C44.0151 58.2842 43.6768 57.946 43.2609 57.946H39.731C39.3151 57.946 38.9768 58.2842 38.9768 58.7002V59.9979H38.9741Z" fill="#35862E"/>
<path d="M46.031 54.6962C46.031 55.1122 46.3693 55.4504 46.7853 55.4504H50.3151C50.731 55.4504 51.0693 55.1122 51.0693 54.6962V48.388C51.0693 47.9721 50.731 47.6338 50.3151 47.6338H46.7853C46.3693 47.6338 46.031 47.9721 46.031 48.388V54.6962ZM47.5395 49.1394H49.5637V53.942H47.5395V49.1394Z" fill="#35862E"/>
<path d="M13.2227 20.654C15.9263 20.654 18.4995 19.4727 20.2824 17.4125C20.7233 16.9023 20.6678 16.1342 20.1576 15.6933C19.6474 15.2524 18.8793 15.3079 18.4385 15.8181C17.1214 17.3432 15.222 18.2166 13.2255 18.2166C11.2291 18.2166 9.32966 17.3432 8.01255 15.8181C7.57167 15.3079 6.80082 15.2524 6.29339 15.6933C5.78318 16.1342 5.72773 16.9051 6.16861 17.4125C7.94323 19.4727 10.5164 20.654 13.2227 20.654Z" stroke="#69EA5E" mask="url(#path-1-outside-1)"/>
<path d="M13.2227 46.5246C15.9263 46.5246 18.4995 45.3434 20.2824 43.2832C20.7233 42.773 20.6678 42.0049 20.1576 41.564C19.6474 41.1231 18.8793 41.1786 18.4385 41.6888C17.1214 43.2139 15.222 44.0873 13.2255 44.0873C11.2291 44.0873 9.32966 43.2139 8.01255 41.6888C7.57167 41.1786 6.80082 41.1231 6.29339 41.564C5.78318 42.0049 5.72773 42.7757 6.16861 43.2832C7.94323 45.3434 10.5164 46.5246 13.2227 46.5246Z" stroke="#69EA5E" mask="url(#path-1-outside-1)"/>
<path d="M15.7765 56.5124C15.7765 56.5068 15.7765 56.4985 15.7765 56.493C14.9723 56.8174 14.1072 56.9921 13.2227 56.9921C11.2262 56.9921 9.32681 56.1186 8.00971 54.5936C7.56882 54.0834 6.79797 54.0279 6.29054 54.4688C5.78034 54.9097 5.72488 55.6805 6.16576 56.188C7.94593 58.2482 10.5191 59.4294 13.2254 59.4294C14.2486 59.4294 15.2496 59.2547 16.1979 58.9331C15.9595 58.1622 15.8125 57.3498 15.7765 56.5124Z" stroke="#69EA5E" mask="url(#path-1-outside-1)"/>
<path d="M20.2824 30.3478C20.7233 29.8376 20.6678 29.0695 20.1576 28.6286C19.6474 28.1878 18.8793 28.2432 18.4385 28.7534C17.1214 30.2785 15.2192 31.1519 13.2255 31.1519C11.2291 31.1519 9.32966 30.2785 8.01255 28.7534C7.57167 28.2432 6.80082 28.1878 6.29339 28.6286C5.78318 29.0695 5.72773 29.8404 6.16861 30.3478C7.94878 32.408 10.522 33.5893 13.2283 33.5893C15.9346 33.5893 18.4995 32.408 20.2824 30.3478Z" stroke="#69EA5E" mask="url(#path-1-outside-1)"/>
<path d="M18.4163 71.1503C17.7702 71.2834 13.8882 71.4137 13.2227 71.4137C7.82952 71.4137 3.44011 67.0243 3.44011 61.6311V13.2227C3.44011 7.82675 7.82675 3.44011 13.2227 3.44011C18.6159 3.44011 23.0053 7.82952 23.0053 13.2227V40.6573C23.0053 41.3311 23.5516 41.8773 24.2254 41.8773C24.8992 41.8773 25.4454 41.3311 25.4454 40.6573V13.2227C25.4427 6.48192 19.9607 1 13.2227 1C6.48469 1 1 6.48192 1 13.2227V61.6339C1 68.3719 6.48192 73.8566 13.2227 73.8566C14.0518 73.8566 18.1029 73.7096 18.9126 73.5405C19.5725 73.4046 19.9968 72.7585 19.8581 72.0986C19.7195 71.4387 19.0762 71.0144 18.4163 71.1503Z" stroke="#69EA5E" mask="url(#path-1-outside-1)"/>
<path d="M23.8426 57.0559C24.2752 57.0559 24.6245 56.7065 24.6245 56.2739V55.0234C24.6245 54.5908 24.2752 54.2414 23.8426 54.2414C23.41 54.2414 23.0607 54.5908 23.0607 55.0234V56.2739C23.0579 56.7065 23.41 57.0559 23.8426 57.0559Z" stroke="#69EA5E" mask="url(#path-1-outside-1)"/>
<path d="M27.7691 59.7788C27.7691 60.2114 28.1185 60.5608 28.551 60.5608C28.9836 60.5608 29.333 60.2114 29.333 59.7788V59.5459C29.333 59.1134 28.9836 58.764 28.551 58.764C28.1185 58.764 27.7691 59.1134 27.7691 59.5459V59.7788Z" stroke="#69EA5E" mask="url(#path-1-outside-1)"/>
<path d="M29.3357 52.4946C28.9031 52.4946 28.5537 52.1452 28.5537 51.7126V50.4621C28.5537 50.0295 28.9031 49.6801 29.3357 49.6801C29.7682 49.6801 30.1176 50.0295 30.1176 50.4621V51.7126C30.1176 52.1452 29.7682 52.4946 29.3357 52.4946Z" stroke="#69EA5E" mask="url(#path-1-outside-1)"/>
<path d="M50.0349 64.1377L48.4488 64.3928C47.2149 64.5924 46.1113 65.33 45.3737 66.3255C44.4254 64.0323 42.3735 62.1246 39.8613 62.1246H32.1722C29.3522 62.1246 27.4833 63.8659 26.6265 66.1036C25.9499 65.208 24.9739 64.573 23.8537 64.3928L22.2676 64.1377C22.0485 64.1016 21.8267 64.1654 21.6604 64.3068C21.4912 64.451 21.3969 64.659 21.3969 64.8808V65.5407C21.3969 65.6433 21.4163 65.7432 21.4579 65.8374C21.896 66.8606 22.1262 67.9753 22.1262 69.0623C22.1262 70.1492 21.896 71.2639 21.4579 72.2871C21.4191 72.3814 21.3969 72.4812 21.3969 72.5838V73.2437C21.3969 73.4655 21.494 73.6735 21.6604 73.8177C21.8295 73.9619 22.0513 74.0229 22.2676 73.9868L23.8537 73.7317C25.0183 73.5432 26.0276 72.8666 26.7042 71.9128C27.6719 74.156 29.6988 75.9999 32.1694 75.9999H39.8586C42.3708 75.9999 44.4227 74.0922 45.371 71.7991C46.1086 72.7973 47.2121 73.5349 48.4461 73.7317L50.0321 73.9868C50.2484 74.0229 50.473 73.9591 50.6394 73.8177C50.8085 73.6735 50.9028 73.4655 50.9028 73.2437V72.5838C50.9028 72.4812 50.8834 72.3814 50.8418 72.2871C50.4037 71.2639 50.1735 70.1492 50.1735 69.0623C50.1735 67.9753 50.4037 66.8578 50.8418 65.8374C50.8806 65.7432 50.9028 65.6433 50.9028 65.5407V64.8808C50.9028 64.659 50.8058 64.451 50.6394 64.3068C50.4758 64.1654 50.254 64.1016 50.0349 64.1377ZM25.9777 69.8137H26.0248C25.7503 71.0615 24.8048 72.0514 23.618 72.2427L23.0579 72.3315C23.435 71.2778 23.6318 70.1575 23.6318 69.0595C23.6318 67.9614 23.435 66.8412 23.0579 65.7875L23.618 65.8763C24.8048 66.0676 25.7503 67.0575 26.0248 68.3053H25.9777C25.5617 68.3053 25.2235 68.6436 25.2235 69.0595C25.2235 69.4782 25.5617 69.8137 25.9777 69.8137ZM41.5167 67.8755C42.4345 68.0224 43.3302 68.4439 44.0955 69.0761C43.3995 69.7056 42.4955 70.3211 41.5167 70.4792C41.1063 70.5457 40.8263 70.9312 40.8928 71.3415C40.9594 71.7519 41.3448 72.032 41.7552 71.9654C42.6037 71.8296 43.3828 71.4608 44.0622 71.0088C43.8265 71.641 43.4827 72.2483 43.0529 72.7779C42.1517 73.8842 41.0176 74.4943 39.8613 74.4943H32.1722C31.0159 74.4943 29.8818 73.8842 28.9807 72.7779C28.5287 72.2233 28.1738 71.5828 27.9353 70.9145C28.7866 71.4525 29.7099 71.8323 30.5501 71.9654C30.9605 72.032 31.3459 71.7519 31.4125 71.3415C31.479 70.9312 31.1989 70.5457 30.7886 70.4792C29.9096 70.3378 28.8254 69.7887 27.963 69.0761C28.7422 68.4883 29.782 68.0391 30.7886 67.8783C31.1989 67.8117 31.479 67.4263 31.4125 67.0159C31.3459 66.6055 30.9577 66.3255 30.5501 66.392C29.5962 66.5445 28.6368 66.8994 27.7994 67.3847C28.293 65.3716 29.7044 63.6358 32.1722 63.6358H39.8613C41.0176 63.6358 42.1517 64.2458 43.0529 65.3522C43.5132 65.9178 43.8736 66.575 44.1121 67.2571C43.3745 66.8218 42.5732 66.5251 41.7552 66.3948C41.3448 66.3282 40.9594 66.6083 40.8928 67.0187C40.829 67.4207 41.1063 67.8089 41.5167 67.8755ZM49.2474 72.3342L48.6873 72.2455C47.4534 72.0458 46.3775 71.0116 46.0448 69.8165H46.3276C46.7435 69.8165 47.0818 69.4782 47.0818 69.0623C47.0818 68.6463 46.7435 68.308 46.3276 68.308H46.0448C46.3775 67.1129 47.4534 66.0787 48.6873 65.879L49.2474 65.7903C48.8703 66.844 48.6734 67.9642 48.6734 69.0623C48.6734 70.1603 48.8703 71.2778 49.2474 72.3342Z" stroke="#69EA5E" mask="url(#path-1-outside-1)"/>
<path d="M18.7073 55.5835C18.7073 50.0045 23.2465 45.4654 28.8255 45.4654C30.0178 45.4654 31.1852 45.6706 32.2971 46.0754C32.688 46.2168 33.1206 46.0172 33.262 45.6262C33.4034 45.2352 33.2038 44.8027 32.8128 44.6612C31.5373 44.1954 30.1953 43.9597 28.8255 43.9597C22.4146 43.9597 17.2017 49.1754 17.2017 55.5835C17.2017 58.226 18.0668 60.716 19.7 62.7846C19.8498 62.9731 20.0688 63.0702 20.2906 63.0702C20.4542 63.0702 20.6178 63.0175 20.7565 62.9066C21.0837 62.6487 21.1391 62.1746 20.8813 61.8474C19.4588 60.0506 18.7073 57.885 18.7073 55.5835Z" stroke="#69EA5E" mask="url(#path-1-outside-1)"/>
<path d="M53.0907 54.6962C53.0907 55.1122 53.429 55.4504 53.8449 55.4504H57.3747C57.7907 55.4504 58.129 55.1122 58.129 54.6962V48.388C58.129 47.9721 57.7907 47.6338 57.3747 47.6338H53.8449C53.429 47.6338 53.0907 47.9721 53.0907 48.388V54.6962ZM54.5991 49.1394H56.6233V53.942H54.5991V49.1394Z" stroke="#69EA5E" mask="url(#path-1-outside-1)"/>
<path d="M61.2623 32.347H35.8381C35.4222 32.347 35.0839 32.6853 35.0839 33.1012V59.9978C35.0839 60.4138 35.4222 60.7521 35.8381 60.7521C36.254 60.7521 36.5923 60.4138 36.5923 59.9978V33.8554H60.5109V69.2287H53.637C53.2211 69.2287 52.8828 69.5669 52.8828 69.9829C52.8828 70.3988 53.2211 70.7371 53.637 70.7371H61.2623C61.6783 70.7371 62.0166 70.3988 62.0166 69.9829V33.1012C62.0166 32.6853 61.6783 32.347 61.2623 32.347Z" stroke="#69EA5E" mask="url(#path-1-outside-1)"/>
<path d="M53.8449 45.1327H57.3747C57.7907 45.1327 58.129 44.7944 58.129 44.3784V38.0702C58.129 37.6543 57.7907 37.316 57.3747 37.316H53.8449C53.429 37.316 53.0907 37.6543 53.0907 38.0702V44.3784C53.0907 44.7971 53.429 45.1327 53.8449 45.1327ZM54.5991 38.8244H56.6233V43.627H54.5991V38.8244Z" stroke="#69EA5E" mask="url(#path-1-outside-1)"/>
<path d="M50.3178 57.9487H46.788C46.3721 57.9487 46.0338 58.287 46.0338 58.703V62.6515C46.0338 63.0674 46.3721 63.4057 46.788 63.4057C47.2039 63.4057 47.5422 63.0674 47.5422 62.6515V59.4544H49.5664V61.5507C49.5664 61.9666 49.9047 62.3049 50.3206 62.3049C50.7365 62.3049 51.0748 61.9666 51.0748 61.5507V58.703C51.0693 58.287 50.7337 57.9487 50.3178 57.9487Z" stroke="#69EA5E" mask="url(#path-1-outside-1)"/>
<path d="M53.0907 65.0112C53.0907 65.4271 53.429 65.7654 53.8449 65.7654H57.3747C57.7907 65.7654 58.129 65.4271 58.129 65.0112V58.703C58.129 58.287 57.7907 57.9487 57.3747 57.9487H53.8449C53.429 57.9487 53.0907 58.287 53.0907 58.703V65.0112ZM54.5991 59.4544H56.6233V64.257H54.5991V59.4544Z" stroke="#69EA5E" mask="url(#path-1-outside-1)"/>
<path d="M39.7257 45.1327H43.2555C43.6714 45.1327 44.0097 44.7944 44.0097 44.3784V38.0702C44.0097 37.6543 43.6714 37.316 43.2555 37.316H39.7257C39.3097 37.316 38.9715 37.6543 38.9715 38.0702V44.3784C38.9742 44.7971 39.3097 45.1327 39.7257 45.1327ZM40.4799 38.8244H42.5041V43.627H40.4799V38.8244Z" stroke="#69EA5E" mask="url(#path-1-outside-1)"/>
<path d="M38.9741 54.6962C38.9741 55.1122 39.3124 55.4504 39.7283 55.4504H43.2581C43.674 55.4504 44.0123 55.1122 44.0123 54.6962V48.388C44.0123 47.9721 43.674 47.6338 43.2581 47.6338H39.7283C39.3124 47.6338 38.9741 47.9721 38.9741 48.388V54.6962ZM40.4797 49.1394H42.5039V53.942H40.4797V49.1394Z" stroke="#69EA5E" mask="url(#path-1-outside-1)"/>
<path d="M46.7853 45.1327H50.3151C50.731 45.1327 51.0693 44.7944 51.0693 44.3784V38.0702C51.0693 37.6543 50.731 37.316 50.3151 37.316H46.7853C46.3693 37.316 46.031 37.6543 46.031 38.0702V44.3784C46.031 44.7971 46.3693 45.1327 46.7853 45.1327ZM47.5395 38.8244H49.5637V43.627H47.5395V38.8244Z" stroke="#69EA5E" mask="url(#path-1-outside-1)"/>
<path d="M38.9741 59.9979C38.9741 60.4138 39.3124 60.7521 39.7283 60.7521C40.1442 60.7521 40.4825 60.4138 40.4825 59.9979V59.4544H42.5067V61.0959C42.5067 61.5118 42.845 61.8501 43.2609 61.8501C43.6768 61.8501 44.0151 61.5118 44.0151 61.0959V58.7002C44.0151 58.2842 43.6768 57.946 43.2609 57.946H39.731C39.3151 57.946 38.9768 58.2842 38.9768 58.7002V59.9979H38.9741Z" stroke="#69EA5E" mask="url(#path-1-outside-1)"/>
<path d="M46.031 54.6962C46.031 55.1122 46.3693 55.4504 46.7853 55.4504H50.3151C50.731 55.4504 51.0693 55.1122 51.0693 54.6962V48.388C51.0693 47.9721 50.731 47.6338 50.3151 47.6338H46.7853C46.3693 47.6338 46.031 47.9721 46.031 48.388V54.6962ZM47.5395 49.1394H49.5637V53.942H47.5395V49.1394Z" stroke="#69EA5E" mask="url(#path-1-outside-1)"/>
</svg>
