<svg width="76" height="75" viewBox="0 0 76 75" fill="none" xmlns="http://www.w3.org/2000/svg">
<path d="M52.8805 69.3686C52.8805 72.2749 54.9965 74.6436 57.5928 74.6436H70.7862C73.3825 74.6436 75.4985 72.2749 75.4985 69.3686V44.8999C75.4985 42.7999 74.393 40.9811 72.8018 40.1311C73.3099 39.4124 73.617 38.4999 73.617 37.5124C73.617 35.9874 72.88 34.5999 71.7298 33.8562C71.7298 33.5624 71.7298 33.2937 71.7298 33.2937C71.7298 31.3374 70.5796 30.2812 69.5635 29.3499C68.3128 28.1999 67.0175 27.0062 67.0175 23.8437V23.8062C67.0175 22.0624 65.75 20.6437 64.1923 20.6437C62.6345 20.6437 61.3671 22.0624 61.3671 23.8062C61.3671 27.0124 60.0606 28.2249 58.7932 29.4062C57.7938 30.3374 56.6548 31.3937 56.6548 33.2999C56.6548 33.3062 56.6548 33.5749 56.6548 33.8624C55.5046 34.6062 54.7676 35.9937 54.7676 37.5187C54.7676 38.5062 55.0747 39.4124 55.5828 40.1374C53.9915 40.9812 52.886 42.7999 52.886 44.9062V52.6061C52.886 53.1874 53.3104 53.6624 53.8296 53.6624C54.3489 53.6624 54.7732 53.1874 54.7732 52.6061V44.8999C54.7732 43.1561 56.0406 41.7374 57.5984 41.7374H70.7918C72.3495 41.7374 73.617 43.1561 73.617 44.8999V46.5874H68.9046C68.3854 46.5874 67.961 47.0624 67.961 47.6437C67.961 48.2249 68.3854 48.6999 68.9046 48.6999H73.617V52.9187H68.9046C68.3854 52.9187 67.961 53.3937 67.961 53.9749C67.961 54.5562 68.3854 55.0312 68.9046 55.0312H73.617V59.2499H68.9046C68.3854 59.2499 67.961 59.7249 67.961 60.3061C67.961 60.8874 68.3854 61.3624 68.9046 61.3624H73.617V65.5811H68.9046C68.3854 65.5811 67.961 66.0561 67.961 66.6374C67.961 67.2187 68.3854 67.6936 68.9046 67.6936H73.617V69.3811C73.617 71.1249 72.3495 72.5436 70.7918 72.5436H57.5984C56.0406 72.5436 54.7732 71.1249 54.7732 69.3811V61.0374C54.7732 60.4562 54.3489 59.9811 53.8296 59.9811C53.3104 59.9811 52.886 60.4562 52.886 61.0374V69.3686H52.8805ZM59.988 31.0249C61.3615 29.7437 63.2431 27.9937 63.2431 23.8062C63.2431 23.2249 63.6675 22.7499 64.1867 22.7499C64.706 22.7499 65.1303 23.2249 65.1303 23.8062V23.8437C65.1303 28.0062 67.0007 29.7249 68.363 30.9812C69.3345 31.8749 69.837 32.3812 69.837 33.2999H58.5308C58.5308 32.4249 59.0333 31.9187 59.988 31.0249ZM58.5308 35.4062H69.837C70.8811 35.4062 71.7242 36.3562 71.7242 37.5187C71.7242 38.6812 70.8811 39.6311 69.837 39.6311H58.5308C57.4923 39.6311 56.6436 38.6874 56.6436 37.5187C56.6492 36.3499 57.4923 35.4062 58.5308 35.4062Z" fill="#35862E"/>
<path d="M53.489 55C52.4226 52.9313 50.8537 51.5875 48.8158 51.0063C48.33 50.8688 47.8387 50.7812 47.3529 50.7438C47.4143 49.9625 47.4478 49.175 47.4478 48.3875C47.4478 47.3875 47.3976 46.3875 47.2971 45.3937C50.9151 44.8375 53.7068 41.475 53.7068 37.4188C53.7068 32.975 50.3568 29.3625 46.2474 29.3625C45.8454 29.3625 45.4434 29.4 45.0526 29.4688C45.8957 27.1875 46.3647 24.7 46.3647 22.1C46.3647 20.4063 46.1693 18.7375 45.784 17.1187C48.7543 15.7125 50.7253 12.5375 50.7253 8.9375C50.7197 4.00625 47.0068 0 42.4396 0C39.6535 0 37.0796 1.51875 35.5609 3.9625C33.1377 2.7625 30.4745 2.13125 27.7889 2.13125C25.1033 2.13125 22.4401 2.7625 20.0169 3.9625C18.4927 1.51875 15.9187 0 13.1327 0C8.5655 0 4.85258 4.00625 4.85258 8.9375C4.85258 12.5375 6.82908 15.7125 9.79941 17.1187C9.41416 18.7375 9.21875 20.4063 9.21875 22.1C9.21875 24.7 9.68216 27.1875 10.5308 29.4688C10.14 29.4 9.74358 29.3625 9.336 29.3625C5.22108 29.3625 1.87108 32.975 1.87108 37.4188C1.87108 41.475 4.66275 44.8438 8.28075 45.3937C8.18025 46.3875 8.13 47.3875 8.13 48.3875C8.13 49.1938 8.1635 50.0062 8.2305 50.8125C8.18025 50.8125 8.13 50.8125 8.07975 50.8125C7.43766 50.8125 6.79 50.9063 6.14233 51.0938C4.10441 51.675 2.5355 53.025 1.46908 55.0875C-0.37342 58.6625 -0.278503 63.9563 0.637164 67.6063C1.72033 71.9563 5.39975 75 9.58166 75C9.75475 75 9.93341 74.9938 10.1065 74.9813C10.1121 74.9813 10.1232 74.9813 10.1288 74.9813C10.14 74.9813 10.1512 74.9813 10.1623 74.9813C10.1735 74.9813 10.1902 74.9813 10.2014 74.9813C13.6296 74.775 16.6446 72.5063 18.0739 69.2375C21.0219 71.2875 24.3496 72.3562 27.7833 72.3562C31.0607 72.3562 34.2544 71.3688 37.1131 69.4875C37.1578 69.5813 37.2024 69.6813 37.2527 69.775C38.4866 72.1688 40.5189 73.875 42.9756 74.5813C43.7573 74.8063 44.5613 74.9188 45.3708 74.9188C49.5527 74.9188 53.2322 71.875 54.3209 67.5188C55.2366 63.8688 55.3315 58.5812 53.489 55ZM7.47116 8.9375C7.47116 5.625 10.0116 2.93125 13.1327 2.93125C15.366 2.93125 17.3983 4.33125 18.3084 6.49375C18.4592 6.85625 18.7383 7.13125 19.0789 7.25625C19.4195 7.38125 19.788 7.35 20.1062 7.1625C22.4457 5.7875 25.1033 5.0625 27.7889 5.0625C30.4745 5.0625 33.1322 5.7875 35.4716 7.1625C35.7898 7.35 36.1583 7.38125 36.4989 7.25625C36.8395 7.13125 37.1131 6.85 37.2694 6.49375C38.1795 4.33125 40.2118 2.93125 42.4452 2.93125C45.5662 2.93125 48.1067 5.625 48.1067 8.9375C48.1067 11.2812 46.8337 13.3625 44.9074 14.3438C44.5948 13.55 44.2374 12.7812 43.8354 12.0375C43.4613 11.3438 42.6573 11.125 42.0376 11.5437C41.4178 11.9625 41.2224 12.8625 41.5965 13.5563C42.1325 14.5375 42.5736 15.5875 42.9142 16.6625C42.9198 16.6875 42.9309 16.7125 42.9421 16.7375C43.4781 18.4563 43.7461 20.2563 43.7461 22.0875C43.7461 31.0063 37.2862 38.35 29.101 39.0625V28.175C30.9937 27.45 32.3337 25.2437 32.3337 23.3C32.3337 22.2312 31.8927 19.75 27.7889 19.75C23.6852 19.75 23.2441 22.2312 23.2441 23.3C23.2441 25.2437 24.5841 27.45 26.4768 28.175V39.0688C18.2917 38.3563 11.8317 31.0125 11.8317 22.0938C11.8317 20.2375 12.1109 18.4062 12.6581 16.6625C12.7809 16.2688 12.753 15.8375 12.5743 15.475C12.3957 15.1125 12.0886 14.85 11.7312 14.75C9.22433 14.075 7.47116 11.6812 7.47116 8.9375ZM27.7889 50.4C27.0687 50.4 26.4824 51.0563 26.4824 51.8625V56.3063C22.0492 55.5938 18.6267 51.3125 18.6267 46.1562C18.6267 44.0687 19.1962 42.0375 20.2514 40.3313C22.5573 41.4375 25.1089 42.05 27.7889 42.05C30.4689 42.05 33.0261 41.4375 35.3264 40.3313C36.3761 42.0375 36.9512 44.0687 36.9512 46.1562C36.9512 51.3125 33.5342 55.5938 29.0954 56.3063V51.8625C29.0954 51.0563 28.5092 50.4 27.7889 50.4ZM25.8627 23.3C25.8627 23.1562 25.8627 23.1 26.0804 22.9813C26.2814 22.8688 26.7672 22.6875 27.7889 22.6875C28.8107 22.6875 29.2964 22.875 29.4974 22.9813C29.7152 23.1 29.7152 23.1625 29.7152 23.3C29.7152 24.125 28.8162 25.4938 27.7889 25.4938C26.7616 25.4875 25.8627 24.125 25.8627 23.3ZM15.4274 68.3875C14.5452 70.0938 13.088 71.3125 11.3237 71.8188C10.8937 71.9438 10.4582 72.0187 10.0227 72.05C10.0227 72.05 10.0227 72.05 10.0172 72.05C9.872 72.0625 9.72683 72.0625 9.58166 72.0625C6.57225 72.0625 3.92575 69.9 3.14966 66.8063C2.40708 63.8438 2.27308 59.3688 3.73033 56.5438C4.43941 55.1688 5.43883 54.3062 6.78441 53.9187C7.21991 53.7937 7.64983 53.7313 8.06858 53.7313C8.50966 53.7313 8.93958 53.8 9.35833 53.925C9.38066 53.9312 9.39741 53.9375 9.41975 53.9437C12.7921 55.025 15.2097 59.9375 16.0192 63.175C16.4659 64.9438 16.2537 66.7937 15.4274 68.3875ZM36.4096 62.3125C36.0522 63.75 35.9908 65.2313 36.2309 66.6625C33.6682 68.475 30.7648 69.425 27.7889 69.425C24.5897 69.425 21.4909 68.3312 18.7942 66.2562C18.9449 64.9812 18.8667 63.6688 18.5429 62.3937C17.5882 58.5812 14.9082 53.2562 10.9217 51.4437C10.8044 50.4375 10.743 49.4125 10.743 48.3875C10.743 47 10.8547 45.6125 11.0724 44.2563C11.145 43.8125 11.0277 43.3563 10.7597 43.0188C10.4917 42.6813 10.0953 42.5062 9.69333 42.5375C9.57608 42.55 9.45325 42.55 9.33041 42.55C6.66158 42.55 4.48408 40.25 4.48408 37.425C4.48408 34.6 6.656 32.3 9.33041 32.3C10.609 32.3 11.8094 32.8187 12.7195 33.7687C14.1153 35.85 15.8741 37.625 17.9008 39C16.6725 41.125 16.0081 43.6187 16.0081 46.175C16.0081 53.4437 21.2899 59.3625 27.7889 59.3625C34.2879 59.3625 39.5697 53.4437 39.5697 46.175C39.5697 43.6187 38.9053 41.1312 37.677 39C39.6982 37.6312 41.4569 35.85 42.8583 33.7687C43.7684 32.825 44.9688 32.3 46.2474 32.3C48.9163 32.3 51.0938 34.6 51.0938 37.425C51.0938 40.25 48.9218 42.55 46.2474 42.55C46.1302 42.55 46.0073 42.5437 45.8845 42.5375C45.4825 42.5062 45.0861 42.6813 44.8181 43.0188C44.5501 43.3563 44.4328 43.8125 44.5054 44.2563C44.7232 45.6125 44.8348 47 44.8348 48.3875C44.8348 49.2938 44.7846 50.2063 44.6953 51.1C40.3403 52.5938 37.4146 58.2937 36.4096 62.3125ZM51.8028 66.7312C51.0268 69.825 48.3858 71.9875 45.3708 71.9875C44.7846 71.9875 44.1983 71.9062 43.6288 71.7375C41.8589 71.2313 40.4017 70.0125 39.5251 68.3063C38.6988 66.7063 38.4922 64.8563 38.9333 63.1C39.7875 59.6938 42.4228 54.425 46.0799 53.7313C46.0967 53.7313 46.1078 53.725 46.1246 53.725C46.3758 53.6813 46.6271 53.6562 46.8839 53.6562C47.3027 53.6562 47.7382 53.7188 48.1681 53.8438C49.5137 54.2313 50.5131 55.0875 51.2222 56.4688C52.6794 59.2938 52.5398 63.7687 51.8028 66.7312Z" fill="#35862E"/>
<path d="M36.0186 16.5998C34.8126 16.5998 33.8244 17.656 33.8244 18.9498C33.8244 20.2435 34.807 21.2998 36.0186 21.2998C37.2246 21.2998 38.2129 20.2435 38.2129 18.9498C38.2129 17.656 37.2246 16.5998 36.0186 16.5998Z" fill="#35862E"/>
<path d="M19.5588 16.5998C18.3528 16.5998 17.3646 17.656 17.3646 18.9498C17.3646 20.2435 18.3473 21.2998 19.5588 21.2998C20.7648 21.2998 21.7531 20.2435 21.7531 18.9498C21.7531 17.656 20.7648 16.5998 19.5588 16.5998Z" fill="#35862E"/>
<path d="M41.1999 8.28726L41.172 8.25601C40.6528 7.69351 39.8209 7.70601 39.3184 8.28726C38.8159 8.86851 38.827 9.79351 39.3463 10.356L39.3519 10.3623C39.6087 10.6498 39.9381 10.7873 40.2731 10.7873C40.6081 10.7873 40.9431 10.6435 41.1999 10.356C41.708 9.78726 41.708 8.86226 41.1999 8.28726Z" fill="#35862E"/>
<path d="M27.7888 46.156C27.0685 46.156 26.4823 46.8122 26.4823 47.6185V47.656C26.4823 48.4622 27.0685 49.1185 27.7888 49.1185C28.509 49.1185 29.0953 48.4622 29.0953 47.656V47.6247C29.0953 46.8122 28.509 46.156 27.7888 46.156Z" fill="#35862E"/>
</svg>
