<svg width="76" height="75" viewBox="0 0 76 75" fill="none" xmlns="http://www.w3.org/2000/svg">
<path d="M71.8368 50.2434C69.9956 48.8498 67.3987 47.707 64.112 46.8487C57.7972 45.1995 50.6759 45.0211 47.9066 45.0211C40.7346 45.0211 34.8966 50.5713 34.8966 57.3897V62.6314C34.8966 69.4498 40.7346 75 47.9066 75C51.2136 75 53.6989 74.0163 56.3313 72.9699C59.05 71.8897 61.865 70.7758 65.8213 70.7758C71.0303 70.7758 75.2706 66.7446 75.2706 61.7923V56.5507C75.2706 54.0914 74.1142 51.9649 71.8368 50.2434ZM71.1723 63.0557C71.4716 63.3595 71.9687 63.3691 72.2882 63.0895C72.8208 62.6121 73.2925 62.0768 73.6932 61.503V61.7923C73.6932 65.92 70.163 69.2762 65.8213 69.2762C61.5505 69.2762 58.5884 70.448 55.7278 71.586C53.2475 72.5697 50.9042 73.5003 47.9116 73.5003C41.8555 73.5003 36.8848 68.9965 36.5044 63.3306C38.7209 67.1593 43.0018 69.7584 47.9116 69.7584C51.2186 69.7584 53.704 68.7747 56.3364 67.7283C59.0551 66.6481 61.8701 65.5342 65.8263 65.5342C66.1205 65.5342 66.4147 65.5198 66.7089 65.4957C67.14 65.4571 67.4595 65.0906 67.419 64.6807C67.3784 64.2709 66.9929 63.9671 66.5618 64.0056C66.3183 64.0249 66.0698 64.0394 65.8263 64.0394C61.5556 64.0394 58.5935 65.2112 55.7328 66.3492C53.2526 67.3329 50.9092 68.2635 47.9167 68.2635C41.6121 68.2635 36.4841 63.3884 36.4841 57.3946C36.4841 51.4007 41.6121 46.5256 47.9167 46.5256C50.6201 46.5256 57.574 46.6992 63.7062 48.3001C70.3405 50.0313 73.7033 52.8088 73.7033 56.5603C73.7033 58.6049 72.7954 60.5916 71.218 62.0045C70.8883 62.2793 70.8731 62.7567 71.1723 63.0557Z" fill="#35862E"/>
<path d="M70.5232 63.5331C70.3356 63.157 69.8689 62.9979 69.4733 63.1763C69.4682 63.1811 69.4581 63.1811 69.453 63.1859C69.0625 63.3692 68.9052 63.8225 69.098 64.1938C69.2349 64.4541 69.5139 64.6085 69.803 64.6085C69.9197 64.6085 70.0363 64.5843 70.1479 64.5313C70.5435 64.3481 70.7109 63.9044 70.5232 63.5331Z" fill="#35862E"/>
<path d="M53.6025 48.2327L53.562 48.2279C53.1258 48.1941 52.7453 48.5028 52.7149 48.9174C52.6794 49.3321 53.004 49.689 53.4402 49.7227L53.4808 49.7276C53.5011 49.7276 53.5214 49.7324 53.5467 49.7324C53.9525 49.7324 54.2974 49.4334 54.3329 49.0428C54.3583 48.6233 54.0337 48.2616 53.6025 48.2327Z" fill="#35862E"/>
<path d="M71.6238 54.5302C70.8427 53.0595 69.103 51.7913 66.4503 50.7545C64.3048 49.9155 61.9615 49.3899 60.3688 49.0909C59.4153 48.9125 58.416 48.7534 57.4016 48.6184C56.9705 48.5605 56.5698 48.845 56.514 49.2549C56.4531 49.6648 56.7524 50.0457 57.1835 50.0987C58.1726 50.2289 59.1414 50.3832 60.0645 50.5568C65.4815 51.5647 69.1791 53.2572 70.2138 55.2005C70.4319 55.6104 70.5384 56.0492 70.5384 56.541C70.5384 59.0148 68.4233 61.0256 65.8213 61.0256C63.1889 61.0256 60.6376 61.4355 58.0103 62.2745C56.8792 62.6362 55.7836 63.0701 54.7185 63.4897C54.0185 63.7645 53.2881 64.0538 52.5679 64.3142C50.747 64.97 49.3572 65.2497 47.9066 65.2497C43.3417 65.2497 39.6289 61.72 39.6289 57.3801C39.6289 53.0402 43.3417 49.5104 47.9066 49.5104C48.7993 49.5104 49.7021 49.5249 50.5948 49.5587C50.747 49.5635 50.8992 49.5683 51.0513 49.578C51.4875 49.5972 51.8527 49.2742 51.873 48.8643C51.8933 48.4496 51.5535 48.1024 51.1223 48.0831C50.9651 48.0783 50.8129 48.0686 50.6557 48.0638C49.7427 48.0301 48.8196 48.0156 47.9117 48.0156C42.4795 48.0156 38.0566 52.2205 38.0566 57.3849C38.0566 62.5494 42.4795 66.7542 47.9117 66.7542C49.5601 66.7542 51.1223 66.4456 53.1309 65.7223C53.8765 65.4522 54.612 65.1629 55.3271 64.8832C56.3618 64.4734 57.4371 64.049 58.5175 63.7067C60.9775 62.9207 63.3664 62.5349 65.8264 62.5349C69.2957 62.5349 72.1209 59.849 72.1209 56.5507C72.1158 55.8177 71.9535 55.1571 71.6238 54.5302Z" fill="#35862E"/>
<path d="M48.6674 51.0005C46.461 51.0005 44.6706 52.5484 44.6706 54.4483C44.6706 56.3482 46.4661 57.8961 48.6674 57.8961C50.8738 57.8961 52.6642 56.3482 52.6642 54.4483C52.6642 52.5484 50.8687 51.0005 48.6674 51.0005ZM48.6674 56.3964C47.3334 56.3964 46.248 55.5236 46.248 54.4483C46.248 53.373 47.3334 52.5002 48.6674 52.5002C50.0014 52.5002 51.0868 53.373 51.0868 54.4483C51.0868 55.5236 50.0014 56.3964 48.6674 56.3964Z" fill="#35862E"/>
<path d="M29.3996 49.1101C29.2728 49.3925 29.1258 49.6551 28.9685 49.885C28.5983 50.4169 28.5678 51.3362 28.8924 51.9337C29.07 52.2555 29.3134 52.4196 29.562 52.4196C29.775 52.4196 29.9829 52.3014 30.1554 52.0519C30.409 51.6842 30.6423 51.2639 30.8452 50.8108C31.4336 49.4975 31.743 47.9413 31.743 46.3194C31.743 45.5183 31.3423 44.8682 30.8503 44.8682C30.3583 44.8682 29.9576 45.5183 29.9576 46.3194C29.9525 47.3372 29.7598 48.2959 29.3996 49.1101Z" fill="#35862E"/>
<path d="M22.0298 38.282C24.4137 39.3654 27.3301 40.8232 28.7452 42.4911C28.9025 42.6749 29.0851 42.7669 29.2677 42.7669C29.5416 42.7669 29.8155 42.5567 29.993 42.1693C30.2821 41.5192 30.1959 40.6131 29.7952 40.1403C28.1569 38.2097 25.1897 36.6995 22.5065 35.4847C22.0298 35.268 21.5378 35.7211 21.4059 36.4893C21.2791 37.2642 21.5581 38.0653 22.0298 38.282Z" fill="#35862E"/>
<path d="M37.5302 63.9241C37.2411 63.576 36.9773 63.1624 36.7592 62.6699C36.1049 61.1924 35.9324 59.3472 36.2875 57.6203C36.4447 56.8586 36.1911 56.0377 35.7245 55.7817C35.2579 55.5256 34.7506 55.9392 34.5934 56.701C34.1268 58.9795 34.2637 61.3828 34.9586 63.4447H23.7746C16.912 63.4447 11.3276 54.3764 11.3276 43.2266C11.3276 40.8101 11.5812 38.4659 12.0884 36.2464C12.8898 38.085 13.7267 40.1797 14.589 42.3335C16.9627 48.2762 19.4176 54.429 22.0349 57.5152C23.5413 59.2947 25.2912 60.1483 27.0258 60.1483C29.6633 60.1483 32.2653 58.1718 33.929 54.4487C36.6882 48.2762 35.8411 39.6085 32.0371 35.1301C29.4148 32.0439 25.0578 30.1593 20.8429 28.3338C19.4227 27.7232 18.038 27.119 16.7852 26.5018C18.8343 24.2364 21.2639 23.015 23.7746 23.015H29.4655C29.5264 23.0216 29.5822 23.0216 29.643 23.015H42.8305C51.0727 23.015 57.8998 33.0354 58.9446 45.9714C59.5787 46.1815 60.1974 46.4376 60.796 46.7396C59.9591 31.8338 52.2241 20.1126 42.8305 20.1126H29.785C27.9033 18.3463 25.9049 16.3172 24.9615 14.4786L23.0949 10.8342C23.1101 10.8145 23.1254 10.7948 23.1406 10.7751C24.7332 8.62789 24.9462 4.77338 23.6275 2.19276C22.3037 -0.387861 19.935 -0.74245 18.3424 1.40478C17.5714 2.44885 17.0997 3.91317 17.0033 5.53509C16.9932 5.69925 16.9881 5.86341 16.9881 6.02757C15.9432 5.73208 14.8223 6.1589 13.9448 7.34743C12.3522 9.49466 12.1392 13.3492 13.4579 15.9298C14.7817 18.5104 17.1504 18.865 18.743 16.7178C18.7583 16.6981 18.7735 16.6784 18.7887 16.6521L20.6552 20.2965C20.706 20.395 20.7567 20.5066 20.8125 20.6182C18.5858 21.3865 16.5012 23.0084 14.7259 25.3789C13.8079 24.8077 13.0318 24.2101 12.479 23.5535L10.1154 20.7693C10.1255 20.743 10.1407 20.7167 10.1509 20.6905C10.7393 19.3706 10.9776 17.7618 10.8204 16.1531C10.6632 14.5443 10.1306 13.1325 9.31906 12.1738C8.50752 11.2151 7.51846 10.8342 6.52432 11.0903C5.53526 11.3464 4.66286 12.2132 4.07449 13.5265C3.48613 14.8463 3.24774 16.4551 3.40497 18.0639C3.42019 18.2281 3.44048 18.3857 3.46584 18.5432C3.3644 18.5564 3.26295 18.5761 3.16658 18.6023C2.17752 18.8584 1.30512 19.7252 0.716752 21.0385C0.128387 22.3584 -0.110003 23.9671 0.0472328 25.5759C0.204468 27.1847 0.737041 28.5965 1.54858 29.5486C2.36012 30.5073 3.34918 30.8882 4.34332 30.6387C5.33238 30.3826 6.20478 29.5158 6.79315 28.2025C6.80329 28.1762 6.81851 28.15 6.82865 28.1237L9.19226 30.9079C9.70961 31.5186 10.2574 32.4379 10.8356 33.5673C9.97336 36.601 9.53716 39.8448 9.53716 43.2266C9.53716 55.9786 15.923 66.3471 23.7695 66.3471H36.1556C36.2621 66.3471 36.3636 66.3143 36.4549 66.2617C36.7338 66.59 37.028 66.8724 37.3374 67.1088C37.3374 66.0319 37.3983 64.9681 37.5302 63.9241ZM19.4836 13.4608C19.2959 13.0997 19.0169 12.9027 18.7278 12.9421C18.4387 12.9815 18.18 13.2441 18.0279 13.6512C17.9011 13.9993 17.7641 14.2685 17.6018 14.4852C16.77 15.608 15.5273 15.4242 14.8324 14.0715C14.1376 12.7188 14.2542 10.7029 15.0861 9.57346C15.9179 8.4506 17.1606 8.63446 17.8554 9.98715C18.1699 10.6044 18.7329 10.6898 19.1133 10.1776C19.3263 9.88865 19.4329 9.47496 19.4329 9.06128C19.4329 8.73295 19.3669 8.40463 19.2249 8.13541C18.8901 7.47876 18.7329 6.65139 18.7786 5.80431C18.8242 4.95724 19.0727 4.18896 19.4785 3.64395C20.3103 2.52108 21.553 2.70494 22.2479 4.05763C22.9428 5.41032 22.8261 7.42623 21.9943 8.55566C21.837 8.77235 21.6443 8.94308 21.411 9.08098C21.1371 9.24514 20.9342 9.61286 20.8581 10.0659C20.782 10.519 20.848 11.005 21.0356 11.3727L23.5869 16.35C23.5971 16.3763 23.6123 16.396 23.6275 16.4223L24.931 18.4316C25.3672 19.0029 25.8542 19.5676 26.3715 20.1258H23.7695C23.6731 20.152 23.5717 20.1652 23.4652 20.1652C22.5826 20.152 19.4836 13.4608 19.4836 13.4608ZM10.2929 28.6228C10.2777 28.6031 10.2625 28.5834 10.2473 28.5637L7.02139 24.7617C6.86923 24.5778 6.68156 24.4859 6.49896 24.4859C6.40259 24.4859 6.30622 24.5122 6.20985 24.5647C5.93596 24.7157 5.72293 25.0769 5.64178 25.53C5.57077 25.9174 5.47947 26.2391 5.35774 26.5084C5.04834 27.1978 4.59185 27.6509 4.07449 27.7888C3.55714 27.9202 3.03471 27.7232 2.61372 27.2175C2.18767 26.7185 1.9087 25.9765 1.82755 25.136C1.74132 24.2889 1.86305 23.4418 2.17245 22.7523C2.48185 22.0629 2.93834 21.6098 3.45569 21.4719C3.97305 21.3406 4.49548 21.5376 4.91646 22.0432C5.31716 22.516 5.87509 22.3715 6.1642 21.7214C6.28086 21.4653 6.33666 21.1633 6.33666 20.8743C6.33666 20.4278 6.20985 19.9813 5.96639 19.6989C5.54033 19.1999 5.26137 18.4579 5.18021 17.6174C5.09906 16.7769 5.22079 15.9298 5.53019 15.2403C5.83959 14.5508 6.29608 14.0978 6.81344 13.9599C7.33079 13.8285 7.85322 14.0255 8.27421 14.5311C8.70026 15.0302 8.97923 15.7722 9.06038 16.6127C9.14154 17.4532 9.0198 18.3003 8.71041 18.9898C8.58868 19.259 8.43144 19.502 8.22856 19.7318C7.99017 20.001 7.84307 20.4344 7.84307 20.9072C7.838 21.38 7.97495 21.8265 8.21334 22.1023L11.4392 25.9043C11.4544 25.924 11.4696 25.9437 11.4899 25.9568L13.0623 27.3817C14.9846 28.8001 17.6272 29.9426 20.3915 31.1377C24.4492 32.891 28.6438 34.7033 30.9973 37.4744C34 41.0137 34.6695 47.8625 32.4885 52.7414C31.4335 55.1053 29.8713 56.6616 28.096 57.1146C26.3208 57.5743 24.5405 56.8783 23.0848 55.1644C20.7313 52.3934 18.3728 46.477 16.0853 40.751C14.8933 37.7633 13.7419 34.874 12.6261 32.5495C12.6058 32.5035 12.5855 32.4641 12.5652 32.4247C12.2457 31.7615 11.9312 31.1509 11.6167 30.5993L10.2929 28.6228Z" fill="#35862E"/>
<path d="M45.6201 28.1827C45.6911 27.3882 45.3513 26.6527 44.8644 26.5411C44.1948 26.3835 43.5101 26.3047 42.8304 26.3047C42.3384 26.3047 41.9378 26.9548 41.9378 27.7559C41.9378 28.557 42.3384 29.2071 42.8304 29.2071C43.4239 29.2071 44.0224 29.2793 44.6108 29.4106C44.6564 29.4238 44.697 29.4238 44.7376 29.4238C45.1738 29.4238 45.5592 28.905 45.6201 28.1827Z" fill="#35862E"/>
<path d="M48.1613 31.1572C50.743 33.1534 52.8479 36.568 54.0754 40.7639C54.2275 41.2892 54.5471 41.5913 54.8818 41.5913C55.0086 41.5913 55.1405 41.5453 55.2673 41.4468C55.7137 41.1054 55.9013 40.2386 55.6883 39.5163C54.2833 34.7162 51.8791 30.8157 48.9272 28.5372C48.4808 28.1957 47.9482 28.4978 47.7352 29.2266C47.5273 29.9424 47.72 30.8092 48.1613 31.1572Z" fill="#35862E"/>
</svg>
