<svg width="67" height="75" viewBox="0 0 67 75" fill="none" xmlns="http://www.w3.org/2000/svg">
<path d="M37.9049 18.7023C40.967 19.4441 45.0152 19.8529 49.304 19.8529C53.5927 19.8529 57.6408 19.4443 60.703 18.7023C61.7945 18.4377 62.7261 18.1397 63.5002 17.8064V20.6959C63.2363 20.9819 62.1154 21.6792 59.2479 22.2812C56.502 22.8579 52.9705 23.1754 49.3042 23.1754C44.5162 23.1754 39.9822 22.628 37.1762 21.7111C36.4168 21.4629 35.6005 21.8827 35.3543 22.6493C35.108 23.416 35.5244 24.2384 36.2846 24.4867C39.4088 25.5077 44.1543 26.0933 49.3043 26.0933C53.5929 26.0933 57.641 25.6846 60.7032 24.9424C61.0858 24.8496 61.4487 24.7528 61.7921 24.6518L60.0456 35.2739C59.9148 36.0686 60.4481 36.8201 61.2361 36.9518C61.3162 36.9651 61.3959 36.9714 61.4744 36.9714C62.1693 36.9714 62.7823 36.4652 62.8998 35.7511L64.9549 23.2522C65.9183 22.5676 66.3933 21.768 66.3933 20.8437V14.6035C66.3933 12.7734 64.5319 11.4325 60.703 10.5047C57.641 9.76271 53.5927 9.35387 49.304 9.35387C45.0152 9.35387 40.967 9.76253 37.9049 10.5047C34.0759 11.4325 32.2145 12.7732 32.2145 14.6035C32.2145 16.4338 34.0759 17.7743 37.9049 18.7023ZM39.3598 13.1658C42.106 12.5892 45.6374 12.2717 49.304 12.2717C52.9705 12.2717 56.5022 12.5892 59.2481 13.1658C61.7021 13.6811 62.8767 14.2661 63.3298 14.6035C62.8767 14.9408 61.7019 15.5257 59.2479 16.041C56.5018 16.6176 52.9703 16.9351 49.304 16.9351C45.6376 16.9351 42.1058 16.6176 39.3598 16.041C36.9059 15.5257 35.7311 14.9407 35.278 14.6035C35.7309 14.2661 36.9057 13.6811 39.3598 13.1658ZM60.164 39.593C60.0582 39.5529 59.9687 39.5175 59.8922 39.4874C59.3993 39.293 58.3729 38.888 57.5421 40.0512C57.484 40.1327 57.4291 40.2097 57.3263 40.3204C56.6575 41.0381 54.5623 41.7646 51.8523 41.7646C48.408 41.7646 46.4873 40.6521 46.2736 40.1887C46.3192 40.1058 46.4851 39.9037 46.8855 39.6645C47.4312 39.3386 47.7028 38.6921 47.5551 38.0701C47.4077 37.4479 46.8755 36.9953 46.2427 36.9536C44.5983 36.8453 42.9052 36.7902 41.2102 36.7902C28.5353 36.7902 15.7043 39.8979 15.7043 45.8377V65.9523C15.7043 71.8921 28.5353 75 41.2102 75C53.8851 75 66.7163 71.8921 66.7163 65.9523V45.8377C66.7163 42.5739 62.6112 40.5244 60.164 39.593ZM63.8231 65.9523C63.8231 66.9077 62.2435 68.5219 57.7911 69.9262C53.3828 71.3166 47.4945 72.0823 41.2104 72.0823C34.9264 72.0823 29.038 71.3166 24.6299 69.9262C20.1775 68.5219 18.5978 66.9077 18.5978 65.9523V50.2658C23.0969 53.3122 32.1935 54.8854 41.2106 54.8854C50.2278 54.8854 59.3244 53.3122 63.8235 50.2656L63.8231 65.9523ZM25.136 49.9666C25.7893 49.5315 27.329 48.9551 29.6383 48.9551C32.4081 48.9551 34.0706 49.7842 34.425 50.2044C34.1867 50.4768 33.2925 51.0459 31.5264 51.3173C29.1956 50.9856 27.0379 50.5317 25.136 49.9666ZM62.0469 47.9506C61.9995 47.188 61.3713 46.5844 60.6032 46.5844H60.2394C59.4405 46.5844 58.7928 47.2376 58.7928 48.0433C58.7928 48.5406 59.0393 48.9795 59.4159 49.2428C58.9228 49.4348 58.3822 49.625 57.7909 49.8114C53.3828 51.2018 47.4943 51.9675 41.2102 51.9675C39.7213 51.9675 38.2543 51.9247 36.8244 51.8404C37.175 51.3461 37.361 50.7961 37.361 50.2062C37.361 47.4692 33.4762 46.0374 29.6385 46.0374C26.4529 46.0374 23.2348 47.0241 22.2331 48.9248C19.5936 47.7703 18.5976 46.5963 18.5976 45.8377C18.5976 45.1444 19.4296 44.1042 21.5875 43.0491C21.6678 43.7778 22.281 44.3446 23.0251 44.3446H23.3889C24.1878 44.3446 24.8355 43.6914 24.8355 42.8857C24.8355 42.513 24.6968 42.1731 24.4689 41.9153C24.5221 41.8979 24.5758 41.881 24.6299 41.864C29.0381 40.4736 34.9264 39.7079 41.2104 39.7079C41.9452 39.7079 42.6794 39.7186 43.409 39.74C43.3815 39.9072 43.3719 40.058 43.3719 40.1865C43.3719 43.1381 47.6382 44.6821 51.8523 44.6821C55.1044 44.6821 57.9599 43.8121 59.3523 42.404C61.9556 43.4314 63.8233 44.8592 63.8233 45.8377C63.8231 46.382 63.3107 47.1397 62.0469 47.9506ZM38.4373 42.6168C38.4373 43.4224 37.7896 44.0756 36.9907 44.0756H36.6265C35.8277 44.0756 35.18 43.4224 35.18 42.6168C35.18 41.8111 35.8277 41.1579 36.6265 41.1579H36.9907C37.7896 41.1579 38.4373 41.8111 38.4373 42.6168ZM46.564 48.4468C46.564 49.2525 45.9163 49.9057 45.1174 49.9057H44.7534C43.9545 49.9057 43.3068 49.2525 43.3068 48.4468C43.3068 47.6412 43.9545 46.988 44.7534 46.988H45.1174C45.9163 46.988 46.564 47.6412 46.564 48.4468ZM23.6281 33.9053V27.8426C23.6281 25.4042 23.3077 23.5996 22.5219 21.6139C22.2258 20.8655 22.5873 20.0169 23.3294 19.7182C24.0715 19.4193 24.9129 19.7842 25.2092 20.5326C26.1291 22.8572 26.5215 25.0433 26.5215 27.8426V33.9053C26.5215 34.711 25.8738 35.3642 25.0749 35.3642C24.276 35.3642 23.6281 34.711 23.6281 33.9053ZM11.84 67.4352C8.58244 67.4352 5.93249 64.9138 5.93249 61.8147V27.328C5.93249 23.0926 6.95413 21.045 8.64717 17.6521C8.7403 17.4655 8.83577 17.2739 8.93359 17.0771H26.5791C26.677 17.2741 26.7724 17.4657 26.8657 17.6525C28.5582 21.045 29.5801 23.0928 29.5801 27.328V32.5333C29.5801 33.3389 30.2278 33.9921 31.0266 33.9921C31.8255 33.9921 32.4732 33.3389 32.4732 32.5333V27.328C32.4732 22.4002 31.2051 19.8588 29.4502 16.3411C29.2351 15.9097 29.0126 15.4642 28.7837 14.997C28.7763 14.9811 28.7685 14.9653 28.7606 14.9498C28.0845 13.5681 27.3505 11.9947 26.5672 10.0306L26.567 9.60096C27.2118 8.8792 27.6048 7.92421 27.6048 6.87841V4.07124C27.6049 1.82646 25.7938 0 23.5679 0H11.9443C9.71836 0 7.90743 1.82646 7.90743 4.07124V6.35797L4.09913 4.77787C3.36083 4.47169 2.51495 4.82674 2.21098 5.57184C1.90702 6.31694 2.25962 7.16945 2.99828 7.47598L7.22934 9.23151L0.683034 13.3363C0.0044083 13.7617 -0.203537 14.6613 0.218321 15.3455C0.639999 16.0297 1.53218 16.2398 2.21062 15.8141L8.0586 12.1474C7.60238 13.1846 7.16588 14.1038 6.75143 14.9512C6.74402 14.9658 6.73678 14.9806 6.72973 14.9956C6.50063 15.4629 6.27822 15.909 6.06286 16.3408C4.30762 19.8584 3.03951 22.4002 3.03951 27.328V61.8145C3.03951 66.5225 6.9874 70.3527 11.8401 70.3527C12.639 70.3527 13.2867 69.6995 13.2867 68.8939C13.2867 68.0882 12.6388 67.4352 11.84 67.4352ZM10.8006 4.07124C10.8006 3.43519 11.3138 2.91767 11.9443 2.91767H23.5677C24.1984 2.91767 24.7116 3.43519 24.7116 4.07124V6.87859C24.7116 7.23546 24.55 7.55513 24.2968 7.76702C24.2666 7.78817 24.2371 7.81042 24.2086 7.83376C24.0256 7.95922 23.8051 8.03235 23.5677 8.03235H11.9443C11.709 8.03235 11.4902 7.96032 11.3083 7.83723C11.2771 7.81133 11.2449 7.78726 11.212 7.76429C10.9606 7.55257 10.8006 7.23418 10.8006 6.87877V4.07124ZM11.7002 10.9427C11.781 10.9475 11.8622 10.95 11.9445 10.95H23.5679C23.65 10.95 23.7317 10.9475 23.8127 10.9425C24.284 12.1331 24.7436 13.1981 25.1814 14.1596H10.3312C10.7691 13.1981 11.2288 12.1333 11.7002 10.9427Z" fill="#35862E"/>
</svg>
