<svg width="82" height="77" viewBox="0 0 82 77" fill="none" xmlns="http://www.w3.org/2000/svg">
<mask id="path-1-outside-1" maskUnits="userSpaceOnUse" x="0" y="0" width="82" height="77" fill="black">
<rect fill="white" width="82" height="77"/>
<path d="M74.9869 60.0547L74.1106 59.8553C82.6029 52.9492 84.4126 37.6145 76.4137 29.6245C73.3358 26.5515 71.4972 21.6882 71.4972 16.6138C71.4972 9.2588 66.6231 3.27376 60.6306 3.27376C54.6399 3.27376 49.7639 9.2588 49.7639 16.6138C49.7639 18.2851 49.5648 19.9321 49.1863 21.4997C43.6037 15.1035 34.7384 14.3704 28.8105 18.459V3.45614C28.8105 2.80591 28.2789 2.27829 27.6245 2.27829C26.9695 2.27829 26.4379 2.80591 26.4379 3.45614V8.08094C22.8942 1.7348 16.4457 0.0372531 9.22424 1.48044C8.49484 1.62684 8.07883 2.39784 8.36026 3.08223C8.42663 3.24265 10.0249 7.06656 13.1127 10.4147C16.7671 14.3777 21.3026 16.3454 26.4379 14.934V18.459C19.469 13.6524 7.80046 15.378 3.00683 26.338C2.74629 26.9345 3.02281 27.6269 3.62378 27.8861C4.22536 28.1453 4.92281 27.8721 5.18397 27.2749C9.57081 17.247 20.0608 16.4369 25.6243 20.7866C26.7827 21.7541 28.4719 21.7492 29.6241 20.7866C35.9576 15.8349 46.9146 17.9899 50.6691 28.8248C52.6877 34.6604 52.284 40.7632 48.7801 47.0758C47.3865 49.5504 46.2411 51.6079 45.2948 53.3213C37.9467 51.75 36.8978 51.1754 34.3968 51.2291C33.7417 51.2419 33.2213 51.7787 33.2354 52.4289C33.2483 53.0809 33.7878 53.5988 34.446 53.583C34.8761 53.5738 35.3646 53.5958 35.8802 53.6586L35.1686 60.0023C35.0961 60.6483 35.5649 61.2308 36.2163 61.3028C36.8701 61.3747 37.4545 60.9069 37.527 60.2627L38.2152 54.1301C42.9548 55.2043 46.0395 55.9045 49.7148 56.7389L49.3756 59.7638C49.3031 60.4104 49.7719 60.9929 50.4233 61.0649C51.0771 61.1368 51.6615 60.669 51.734 60.0243L52.0431 57.2666C52.7762 57.4331 69.6169 61.2515 69.8276 61.2997L68.9114 69.4654C68.8389 70.112 69.3084 70.6945 69.9591 70.7664C70.6136 70.8384 71.1973 70.3706 71.2698 69.7264L72.1566 61.8279L74.459 62.3507C77.3133 62.9972 79.1986 65.6293 78.8729 68.5187C78.5503 71.3923 76.1089 73.5644 73.1969 73.5705L61.0521 73.5937L61.4835 69.7533C61.556 69.1067 61.0871 68.5242 60.4358 68.4522C59.7838 68.3809 59.1976 68.8457 59.1251 69.4922L58.6642 73.5985L47.0246 73.6205L47.4295 70.0101C47.502 69.3641 47.0332 68.7816 46.3818 68.7096C45.7323 68.637 45.1436 69.1031 45.0711 69.7496C44.9703 70.6493 44.6465 73.5296 44.6366 73.6254L39.0638 73.6358L39.7693 67.3512C39.8418 66.7053 39.3729 66.1227 38.7216 66.0508C38.0696 65.9782 37.4834 66.4442 37.4109 67.0908L36.6753 73.6406C36.6636 73.6406 36.655 73.6406 36.6483 73.6406H36.6391C36.6366 73.6406 36.6354 73.6406 36.6329 73.6406C36.5561 73.6406 36.1837 73.6412 34.6678 73.6443C30.0106 73.6443 26.0182 70.4907 24.8833 66.1331C23.7188 61.6822 25.7577 56.7121 30.3473 54.5473C30.9391 54.268 31.1916 53.5659 30.9102 52.9785C30.6287 52.3911 29.9215 52.1398 29.3297 52.4197C27.0168 53.5092 25.1506 55.2274 23.9087 57.3282C21.5073 56.1393 18.7605 54.2692 17.2956 51.5152C15.4023 47.945 9.94196 49.2857 9.92352 53.3164L6.20586 46.6073C3.65758 42.0112 2.72417 36.8527 3.83332 31.5288C3.96605 30.8914 3.55311 30.268 2.91097 30.1363C2.26883 30.0045 1.64205 30.4144 1.50932 31.0518C0.319669 36.7648 1.22297 42.5041 4.12582 47.7431L9.19474 56.8884L5.48015 56.4773C3.33067 56.24 1.39687 57.7735 1.15783 59.9084C0.919411 62.0365 2.46792 63.9616 4.61311 64.1989L10.7635 64.8784C9.23837 66.2338 8.01062 67.4622 8.16486 69.3995C8.43154 72.8239 12.7717 74.2506 15.0398 71.6216C16.9066 69.4532 19.8236 68.1137 22.7805 67.3909C24.388 72.3786 29.1085 76 34.6678 76C36.4756 75.9963 71.0167 75.9305 73.2 75.9262C77.6851 75.9177 81.2823 72.3097 81.2823 67.8825C81.2817 64.1141 78.6935 60.8947 74.9869 60.0547ZM11.2047 3.53483C19.0942 2.46555 24.0691 6.19796 25.7306 12.6838C19.3031 14.4015 14.2483 9.35761 11.2047 3.53483ZM71.0161 59.1532L47.7091 53.8672C48.3826 52.6424 49.1298 51.2907 49.9618 49.8036C52.1592 53.561 56.256 56.0924 60.9372 56.0924C66.9598 56.0924 72.1885 51.8433 73.3683 45.9888C73.4968 45.3514 73.0789 44.7311 72.4368 44.6042C71.7928 44.4767 71.1697 44.8896 71.0413 45.5271C70.0827 50.2836 65.8335 53.7373 60.9372 53.7373C56.6026 53.7373 52.8849 51.0662 51.3647 47.2954C53.336 43.5709 54.2804 39.6354 54.2485 35.7315C60.2017 30.6785 69.3803 33.8656 71.0081 41.3311C71.1476 41.9673 71.7768 42.3711 72.4196 42.2326C73.0599 42.0948 73.4666 41.4677 73.3272 40.8321C72.725 38.0665 71.1678 35.5522 68.9483 33.7528C64.7311 30.3363 58.7029 29.9508 54.0605 32.9397C53.6653 29.8441 52.6287 26.618 50.9726 23.9304C51.7334 21.6534 52.1371 19.1751 52.1371 16.6138C52.1371 11.1796 55.5469 5.62947 60.6306 5.62947C65.6602 5.62947 69.1241 11.1052 69.1241 16.6138C69.1241 22.3805 71.1678 27.7275 74.7307 31.2861C80.91 37.4541 80.3121 48.9057 74.9445 55.6514C73.7782 57.1165 72.4509 58.2944 71.0161 59.1532ZM22.2754 65.0718C18.8951 65.8879 15.4748 67.4921 13.2362 70.0906C12.6838 70.7317 11.7092 70.8067 11.064 70.259C10.417 69.7082 10.3414 68.7444 10.895 68.1039C11.928 66.9053 13.1656 65.8623 14.4824 65.023C15.4164 64.4234 15.0779 62.9857 13.9699 62.8643C12.9425 62.7502 5.65282 61.9432 4.87549 61.8572C4.03241 61.7645 3.42161 61.0063 3.51501 60.1694C3.60842 59.3417 4.35502 58.7262 5.21715 58.819C5.22207 58.8196 5.22698 58.8196 5.23128 58.8202C5.22883 58.8202 5.22452 58.8196 5.22452 58.8196C5.23005 58.8202 5.23927 58.8214 5.25279 58.8226H5.25033C5.26324 58.8238 5.27245 58.8244 5.27798 58.8257C5.27368 58.8251 5.26754 58.8244 5.26078 58.8232C5.5035 58.8501 6.92113 59.0068 13.4796 59.7327C13.8569 59.7089 15.0066 60.1938 15.5092 59.1703C15.7292 58.7213 15.6407 58.1858 15.2892 57.8296C14.1377 56.6639 13.1902 55.3891 12.4737 54.0417C12.0767 53.2957 12.3661 52.3691 13.1158 51.9751H13.1176C13.8759 51.5792 14.8001 51.8702 15.1977 52.6143C16.9459 55.9027 20.1523 58.09 22.9114 59.4515C22.2815 61.2149 22.0462 63.1741 22.2754 65.0718Z"/>
</mask>
<path d="M74.9869 60.0547L74.1106 59.8553C82.6029 52.9492 84.4126 37.6145 76.4137 29.6245C73.3358 26.5515 71.4972 21.6882 71.4972 16.6138C71.4972 9.2588 66.6231 3.27376 60.6306 3.27376C54.6399 3.27376 49.7639 9.2588 49.7639 16.6138C49.7639 18.2851 49.5648 19.9321 49.1863 21.4997C43.6037 15.1035 34.7384 14.3704 28.8105 18.459V3.45614C28.8105 2.80591 28.2789 2.27829 27.6245 2.27829C26.9695 2.27829 26.4379 2.80591 26.4379 3.45614V8.08094C22.8942 1.7348 16.4457 0.0372531 9.22424 1.48044C8.49484 1.62684 8.07883 2.39784 8.36026 3.08223C8.42663 3.24265 10.0249 7.06656 13.1127 10.4147C16.7671 14.3777 21.3026 16.3454 26.4379 14.934V18.459C19.469 13.6524 7.80046 15.378 3.00683 26.338C2.74629 26.9345 3.02281 27.6269 3.62378 27.8861C4.22536 28.1453 4.92281 27.8721 5.18397 27.2749C9.57081 17.247 20.0608 16.4369 25.6243 20.7866C26.7827 21.7541 28.4719 21.7492 29.6241 20.7866C35.9576 15.8349 46.9146 17.9899 50.6691 28.8248C52.6877 34.6604 52.284 40.7632 48.7801 47.0758C47.3865 49.5504 46.2411 51.6079 45.2948 53.3213C37.9467 51.75 36.8978 51.1754 34.3968 51.2291C33.7417 51.2419 33.2213 51.7787 33.2354 52.4289C33.2483 53.0809 33.7878 53.5988 34.446 53.583C34.8761 53.5738 35.3646 53.5958 35.8802 53.6586L35.1686 60.0023C35.0961 60.6483 35.5649 61.2308 36.2163 61.3028C36.8701 61.3747 37.4545 60.9069 37.527 60.2627L38.2152 54.1301C42.9548 55.2043 46.0395 55.9045 49.7148 56.7389L49.3756 59.7638C49.3031 60.4104 49.7719 60.9929 50.4233 61.0649C51.0771 61.1368 51.6615 60.669 51.734 60.0243L52.0431 57.2666C52.7762 57.4331 69.6169 61.2515 69.8276 61.2997L68.9114 69.4654C68.8389 70.112 69.3084 70.6945 69.9591 70.7664C70.6136 70.8384 71.1973 70.3706 71.2698 69.7264L72.1566 61.8279L74.459 62.3507C77.3133 62.9972 79.1986 65.6293 78.8729 68.5187C78.5503 71.3923 76.1089 73.5644 73.1969 73.5705L61.0521 73.5937L61.4835 69.7533C61.556 69.1067 61.0871 68.5242 60.4358 68.4522C59.7838 68.3809 59.1976 68.8457 59.1251 69.4922L58.6642 73.5985L47.0246 73.6205L47.4295 70.0101C47.502 69.3641 47.0332 68.7816 46.3818 68.7096C45.7323 68.637 45.1436 69.1031 45.0711 69.7496C44.9703 70.6493 44.6465 73.5296 44.6366 73.6254L39.0638 73.6358L39.7693 67.3512C39.8418 66.7053 39.3729 66.1227 38.7216 66.0508C38.0696 65.9782 37.4834 66.4442 37.4109 67.0908L36.6753 73.6406C36.6636 73.6406 36.655 73.6406 36.6483 73.6406H36.6391C36.6366 73.6406 36.6354 73.6406 36.6329 73.6406C36.5561 73.6406 36.1837 73.6412 34.6678 73.6443C30.0106 73.6443 26.0182 70.4907 24.8833 66.1331C23.7188 61.6822 25.7577 56.7121 30.3473 54.5473C30.9391 54.268 31.1916 53.5659 30.9102 52.9785C30.6287 52.3911 29.9215 52.1398 29.3297 52.4197C27.0168 53.5092 25.1506 55.2274 23.9087 57.3282C21.5073 56.1393 18.7605 54.2692 17.2956 51.5152C15.4023 47.945 9.94196 49.2857 9.92352 53.3164L6.20586 46.6073C3.65758 42.0112 2.72417 36.8527 3.83332 31.5288C3.96605 30.8914 3.55311 30.268 2.91097 30.1363C2.26883 30.0045 1.64205 30.4144 1.50932 31.0518C0.319669 36.7648 1.22297 42.5041 4.12582 47.7431L9.19474 56.8884L5.48015 56.4773C3.33067 56.24 1.39687 57.7735 1.15783 59.9084C0.919411 62.0365 2.46792 63.9616 4.61311 64.1989L10.7635 64.8784C9.23837 66.2338 8.01062 67.4622 8.16486 69.3995C8.43154 72.8239 12.7717 74.2506 15.0398 71.6216C16.9066 69.4532 19.8236 68.1137 22.7805 67.3909C24.388 72.3786 29.1085 76 34.6678 76C36.4756 75.9963 71.0167 75.9305 73.2 75.9262C77.6851 75.9177 81.2823 72.3097 81.2823 67.8825C81.2817 64.1141 78.6935 60.8947 74.9869 60.0547ZM11.2047 3.53483C19.0942 2.46555 24.0691 6.19796 25.7306 12.6838C19.3031 14.4015 14.2483 9.35761 11.2047 3.53483ZM71.0161 59.1532L47.7091 53.8672C48.3826 52.6424 49.1298 51.2907 49.9618 49.8036C52.1592 53.561 56.256 56.0924 60.9372 56.0924C66.9598 56.0924 72.1885 51.8433 73.3683 45.9888C73.4968 45.3514 73.0789 44.7311 72.4368 44.6042C71.7928 44.4767 71.1697 44.8896 71.0413 45.5271C70.0827 50.2836 65.8335 53.7373 60.9372 53.7373C56.6026 53.7373 52.8849 51.0662 51.3647 47.2954C53.336 43.5709 54.2804 39.6354 54.2485 35.7315C60.2017 30.6785 69.3803 33.8656 71.0081 41.3311C71.1476 41.9673 71.7768 42.3711 72.4196 42.2326C73.0599 42.0948 73.4666 41.4677 73.3272 40.8321C72.725 38.0665 71.1678 35.5522 68.9483 33.7528C64.7311 30.3363 58.7029 29.9508 54.0605 32.9397C53.6653 29.8441 52.6287 26.618 50.9726 23.9304C51.7334 21.6534 52.1371 19.1751 52.1371 16.6138C52.1371 11.1796 55.5469 5.62947 60.6306 5.62947C65.6602 5.62947 69.1241 11.1052 69.1241 16.6138C69.1241 22.3805 71.1678 27.7275 74.7307 31.2861C80.91 37.4541 80.3121 48.9057 74.9445 55.6514C73.7782 57.1165 72.4509 58.2944 71.0161 59.1532ZM22.2754 65.0718C18.8951 65.8879 15.4748 67.4921 13.2362 70.0906C12.6838 70.7317 11.7092 70.8067 11.064 70.259C10.417 69.7082 10.3414 68.7444 10.895 68.1039C11.928 66.9053 13.1656 65.8623 14.4824 65.023C15.4164 64.4234 15.0779 62.9857 13.9699 62.8643C12.9425 62.7502 5.65282 61.9432 4.87549 61.8572C4.03241 61.7645 3.42161 61.0063 3.51501 60.1694C3.60842 59.3417 4.35502 58.7262 5.21715 58.819C5.22207 58.8196 5.22698 58.8196 5.23128 58.8202C5.22883 58.8202 5.22452 58.8196 5.22452 58.8196C5.23005 58.8202 5.23927 58.8214 5.25279 58.8226H5.25033C5.26324 58.8238 5.27245 58.8244 5.27798 58.8257C5.27368 58.8251 5.26754 58.8244 5.26078 58.8232C5.5035 58.8501 6.92113 59.0068 13.4796 59.7327C13.8569 59.7089 15.0066 60.1938 15.5092 59.1703C15.7292 58.7213 15.6407 58.1858 15.2892 57.8296C14.1377 56.6639 13.1902 55.3891 12.4737 54.0417C12.0767 53.2957 12.3661 52.3691 13.1158 51.9751H13.1176C13.8759 51.5792 14.8001 51.8702 15.1977 52.6143C16.9459 55.9027 20.1523 58.09 22.9114 59.4515C22.2815 61.2149 22.0462 63.1741 22.2754 65.0718Z" fill="#35862E"/>
<path d="M74.9869 60.0547L74.1106 59.8553C82.6029 52.9492 84.4126 37.6145 76.4137 29.6245C73.3358 26.5515 71.4972 21.6882 71.4972 16.6138C71.4972 9.2588 66.6231 3.27376 60.6306 3.27376C54.6399 3.27376 49.7639 9.2588 49.7639 16.6138C49.7639 18.2851 49.5648 19.9321 49.1863 21.4997C43.6037 15.1035 34.7384 14.3704 28.8105 18.459V3.45614C28.8105 2.80591 28.2789 2.27829 27.6245 2.27829C26.9695 2.27829 26.4379 2.80591 26.4379 3.45614V8.08094C22.8942 1.7348 16.4457 0.0372531 9.22424 1.48044C8.49484 1.62684 8.07883 2.39784 8.36026 3.08223C8.42663 3.24265 10.0249 7.06656 13.1127 10.4147C16.7671 14.3777 21.3026 16.3454 26.4379 14.934V18.459C19.469 13.6524 7.80046 15.378 3.00683 26.338C2.74629 26.9345 3.02281 27.6269 3.62378 27.8861C4.22536 28.1453 4.92281 27.8721 5.18397 27.2749C9.57081 17.247 20.0608 16.4369 25.6243 20.7866C26.7827 21.7541 28.4719 21.7492 29.6241 20.7866C35.9576 15.8349 46.9146 17.9899 50.6691 28.8248C52.6877 34.6604 52.284 40.7632 48.7801 47.0758C47.3865 49.5504 46.2411 51.6079 45.2948 53.3213C37.9467 51.75 36.8978 51.1754 34.3968 51.2291C33.7417 51.2419 33.2213 51.7787 33.2354 52.4289C33.2483 53.0809 33.7878 53.5988 34.446 53.583C34.8761 53.5738 35.3646 53.5958 35.8802 53.6586L35.1686 60.0023C35.0961 60.6483 35.5649 61.2308 36.2163 61.3028C36.8701 61.3747 37.4545 60.9069 37.527 60.2627L38.2152 54.1301C42.9548 55.2043 46.0395 55.9045 49.7148 56.7389L49.3756 59.7638C49.3031 60.4104 49.7719 60.9929 50.4233 61.0649C51.0771 61.1368 51.6615 60.669 51.734 60.0243L52.0431 57.2666C52.7762 57.4331 69.6169 61.2515 69.8276 61.2997L68.9114 69.4654C68.8389 70.112 69.3084 70.6945 69.9591 70.7664C70.6136 70.8384 71.1973 70.3706 71.2698 69.7264L72.1566 61.8279L74.459 62.3507C77.3133 62.9972 79.1986 65.6293 78.8729 68.5187C78.5503 71.3923 76.1089 73.5644 73.1969 73.5705L61.0521 73.5937L61.4835 69.7533C61.556 69.1067 61.0871 68.5242 60.4358 68.4522C59.7838 68.3809 59.1976 68.8457 59.1251 69.4922L58.6642 73.5985L47.0246 73.6205L47.4295 70.0101C47.502 69.3641 47.0332 68.7816 46.3818 68.7096C45.7323 68.637 45.1436 69.1031 45.0711 69.7496C44.9703 70.6493 44.6465 73.5296 44.6366 73.6254L39.0638 73.6358L39.7693 67.3512C39.8418 66.7053 39.3729 66.1227 38.7216 66.0508C38.0696 65.9782 37.4834 66.4442 37.4109 67.0908L36.6753 73.6406C36.6636 73.6406 36.655 73.6406 36.6483 73.6406H36.6391C36.6366 73.6406 36.6354 73.6406 36.6329 73.6406C36.5561 73.6406 36.1837 73.6412 34.6678 73.6443C30.0106 73.6443 26.0182 70.4907 24.8833 66.1331C23.7188 61.6822 25.7577 56.7121 30.3473 54.5473C30.9391 54.268 31.1916 53.5659 30.9102 52.9785C30.6287 52.3911 29.9215 52.1398 29.3297 52.4197C27.0168 53.5092 25.1506 55.2274 23.9087 57.3282C21.5073 56.1393 18.7605 54.2692 17.2956 51.5152C15.4023 47.945 9.94196 49.2857 9.92352 53.3164L6.20586 46.6073C3.65758 42.0112 2.72417 36.8527 3.83332 31.5288C3.96605 30.8914 3.55311 30.268 2.91097 30.1363C2.26883 30.0045 1.64205 30.4144 1.50932 31.0518C0.319669 36.7648 1.22297 42.5041 4.12582 47.7431L9.19474 56.8884L5.48015 56.4773C3.33067 56.24 1.39687 57.7735 1.15783 59.9084C0.919411 62.0365 2.46792 63.9616 4.61311 64.1989L10.7635 64.8784C9.23837 66.2338 8.01062 67.4622 8.16486 69.3995C8.43154 72.8239 12.7717 74.2506 15.0398 71.6216C16.9066 69.4532 19.8236 68.1137 22.7805 67.3909C24.388 72.3786 29.1085 76 34.6678 76C36.4756 75.9963 71.0167 75.9305 73.2 75.9262C77.6851 75.9177 81.2823 72.3097 81.2823 67.8825C81.2817 64.1141 78.6935 60.8947 74.9869 60.0547ZM11.2047 3.53483C19.0942 2.46555 24.0691 6.19796 25.7306 12.6838C19.3031 14.4015 14.2483 9.35761 11.2047 3.53483ZM71.0161 59.1532L47.7091 53.8672C48.3826 52.6424 49.1298 51.2907 49.9618 49.8036C52.1592 53.561 56.256 56.0924 60.9372 56.0924C66.9598 56.0924 72.1885 51.8433 73.3683 45.9888C73.4968 45.3514 73.0789 44.7311 72.4368 44.6042C71.7928 44.4767 71.1697 44.8896 71.0413 45.5271C70.0827 50.2836 65.8335 53.7373 60.9372 53.7373C56.6026 53.7373 52.8849 51.0662 51.3647 47.2954C53.336 43.5709 54.2804 39.6354 54.2485 35.7315C60.2017 30.6785 69.3803 33.8656 71.0081 41.3311C71.1476 41.9673 71.7768 42.3711 72.4196 42.2326C73.0599 42.0948 73.4666 41.4677 73.3272 40.8321C72.725 38.0665 71.1678 35.5522 68.9483 33.7528C64.7311 30.3363 58.7029 29.9508 54.0605 32.9397C53.6653 29.8441 52.6287 26.618 50.9726 23.9304C51.7334 21.6534 52.1371 19.1751 52.1371 16.6138C52.1371 11.1796 55.5469 5.62947 60.6306 5.62947C65.6602 5.62947 69.1241 11.1052 69.1241 16.6138C69.1241 22.3805 71.1678 27.7275 74.7307 31.2861C80.91 37.4541 80.3121 48.9057 74.9445 55.6514C73.7782 57.1165 72.4509 58.2944 71.0161 59.1532ZM22.2754 65.0718C18.8951 65.8879 15.4748 67.4921 13.2362 70.0906C12.6838 70.7317 11.7092 70.8067 11.064 70.259C10.417 69.7082 10.3414 68.7444 10.895 68.1039C11.928 66.9053 13.1656 65.8623 14.4824 65.023C15.4164 64.4234 15.0779 62.9857 13.9699 62.8643C12.9425 62.7502 5.65282 61.9432 4.87549 61.8572C4.03241 61.7645 3.42161 61.0063 3.51501 60.1694C3.60842 59.3417 4.35502 58.7262 5.21715 58.819C5.22207 58.8196 5.22698 58.8196 5.23128 58.8202C5.22883 58.8202 5.22452 58.8196 5.22452 58.8196C5.23005 58.8202 5.23927 58.8214 5.25279 58.8226H5.25033C5.26324 58.8238 5.27245 58.8244 5.27798 58.8257C5.27368 58.8251 5.26754 58.8244 5.26078 58.8232C5.5035 58.8501 6.92113 59.0068 13.4796 59.7327C13.8569 59.7089 15.0066 60.1938 15.5092 59.1703C15.7292 58.7213 15.6407 58.1858 15.2892 57.8296C14.1377 56.6639 13.1902 55.3891 12.4737 54.0417C12.0767 53.2957 12.3661 52.3691 13.1158 51.9751H13.1176C13.8759 51.5792 14.8001 51.8702 15.1977 52.6143C16.9459 55.9027 20.1523 58.09 22.9114 59.4515C22.2815 61.2149 22.0462 63.1741 22.2754 65.0718Z" stroke="#5E9CEA" stroke-width="0.4" mask="url(#path-1-outside-1)"/>
</svg>
